%TF.GenerationSoftware,KiCad,Pcbnew,10.0.3*%
%TF.CreationDate,2026-06-09T11:17:35-05:00*%
%TF.ProjectId,RP2350_80QFN_minimal,52503233-3530-45f3-9830-51464e5f6d69,REV3*%
%TF.SameCoordinates,PX4692680PY86f1e60*%
%TF.FileFunction,Paste,Top*%
%TF.FilePolarity,Positive*%
%FSLAX46Y46*%
G04 Gerber Fmt 4.6, Leading zero omitted, Abs format (unit mm)*
G04 Created by KiCad (PCBNEW 10.0.3) date 2026-06-09 11:17:35*
%MOMM*%
%LPD*%
G01*
G04 APERTURE LIST*
G04 Aperture macros list*
%AMRoundRect*
0 Rectangle with rounded corners*
0 $1 Rounding radius*
0 $2 $3 $4 $5 $6 $7 $8 $9 X,Y pos of 4 corners*
0 Add a 4 corners polygon primitive as box body*
4,1,4,$2,$3,$4,$5,$6,$7,$8,$9,$2,$3,0*
0 Add four circle primitives for the rounded corners*
1,1,$1+$1,$2,$3*
1,1,$1+$1,$4,$5*
1,1,$1+$1,$6,$7*
1,1,$1+$1,$8,$9*
0 Add four rect primitives between the rounded corners*
20,1,$1+$1,$2,$3,$4,$5,0*
20,1,$1+$1,$4,$5,$6,$7,0*
20,1,$1+$1,$6,$7,$8,$9,0*
20,1,$1+$1,$8,$9,$2,$3,0*%
G04 Aperture macros list end*
%ADD10RoundRect,0.250000X-0.250000X-0.475000X0.250000X-0.475000X0.250000X0.475000X-0.250000X0.475000X0*%
%ADD11R,0.400000X1.650000*%
%ADD12R,1.825000X0.700000*%
%ADD13R,2.000000X1.500000*%
%ADD14R,1.350000X2.000000*%
%ADD15R,1.430000X2.400000*%
%ADD16RoundRect,0.140000X0.140000X0.170000X-0.140000X0.170000X-0.140000X-0.170000X0.140000X-0.170000X0*%
%ADD17RoundRect,0.135000X-0.185000X0.135000X-0.185000X-0.135000X0.185000X-0.135000X0.185000X0.135000X0*%
%ADD18R,1.500000X2.000000*%
%ADD19R,3.800000X2.000000*%
%ADD20RoundRect,0.150000X-0.650000X-0.150000X0.650000X-0.150000X0.650000X0.150000X-0.650000X0.150000X0*%
%ADD21RoundRect,0.140000X-0.140000X-0.170000X0.140000X-0.170000X0.140000X0.170000X-0.140000X0.170000X0*%
%ADD22RoundRect,0.140000X0.170000X-0.140000X0.170000X0.140000X-0.170000X0.140000X-0.170000X-0.140000X0*%
%ADD23R,1.400000X1.200000*%
%ADD24RoundRect,0.150000X-0.150000X-0.625000X0.150000X-0.625000X0.150000X0.625000X-0.150000X0.625000X0*%
%ADD25RoundRect,0.250000X-0.350000X-0.650000X0.350000X-0.650000X0.350000X0.650000X-0.350000X0.650000X0*%
%ADD26RoundRect,0.140000X-0.170000X0.140000X-0.170000X-0.140000X0.170000X-0.140000X0.170000X0.140000X0*%
%ADD27R,0.470000X0.530000*%
%ADD28R,0.650000X1.050000*%
%ADD29RoundRect,0.135000X-0.135000X-0.185000X0.135000X-0.185000X0.135000X0.185000X-0.135000X0.185000X0*%
%ADD30RoundRect,0.250000X-0.350000X-0.350000X0.350000X-0.350000X0.350000X0.350000X-0.350000X0.350000X0*%
%ADD31RoundRect,0.055000X0.335000X-0.055000X0.335000X0.055000X-0.335000X0.055000X-0.335000X-0.055000X0*%
%ADD32RoundRect,0.055000X-0.055000X-0.335000X0.055000X-0.335000X0.055000X0.335000X-0.055000X0.335000X0*%
%ADD33R,0.133333X0.133333*%
%ADD34R,0.700000X1.700000*%
G04 APERTURE END LIST*
D10*
%TO.C,C5*%
X34075000Y52500000D03*
X35975000Y52500000D03*
%TD*%
D11*
%TO.C,J1*%
X27300000Y66900000D03*
X26650000Y66900000D03*
X26000000Y66900000D03*
X25350000Y66900000D03*
X24700000Y66900000D03*
D12*
X28950000Y68100000D03*
D13*
X28850000Y66800000D03*
D14*
X28730000Y68850000D03*
D15*
X26960000Y70000000D03*
X25040000Y70000000D03*
D14*
X23250000Y68850000D03*
D13*
X23100000Y66780000D03*
D12*
X23000000Y68100000D03*
%TD*%
D16*
%TO.C,C17*%
X18480000Y39300000D03*
X17520000Y39300000D03*
%TD*%
%TO.C,C2*%
X22665000Y58670000D03*
X21705000Y58670000D03*
%TD*%
D17*
%TO.C,R1*%
X18400000Y59710000D03*
X18400000Y58690000D03*
%TD*%
D18*
%TO.C,U2*%
X36300000Y62300000D03*
X34000000Y62300000D03*
D19*
X34000000Y56000000D03*
D18*
X31700000Y62300000D03*
%TD*%
D20*
%TO.C,U3*%
X15400000Y56205000D03*
X15400000Y54935000D03*
X15400000Y53665000D03*
X15400000Y52395000D03*
X22600000Y52395000D03*
X22600000Y53665000D03*
X22600000Y54935000D03*
X22600000Y56205000D03*
%TD*%
D21*
%TO.C,C4*%
X27115000Y31080000D03*
X28075000Y31080000D03*
%TD*%
D22*
%TO.C,C12*%
X25000000Y49820000D03*
X25000000Y50780000D03*
%TD*%
D21*
%TO.C,C16*%
X33525000Y41000000D03*
X34485000Y41000000D03*
%TD*%
%TO.C,C18*%
X33020000Y37000000D03*
X33980000Y37000000D03*
%TD*%
D17*
%TO.C,R7*%
X26000000Y50810000D03*
X26000000Y49790000D03*
%TD*%
D10*
%TO.C,C1*%
X32987500Y65300000D03*
X34887500Y65300000D03*
%TD*%
D16*
%TO.C,C15*%
X18480000Y44400000D03*
X17520000Y44400000D03*
%TD*%
%TO.C,C3*%
X25105000Y31080000D03*
X24145000Y31080000D03*
%TD*%
D17*
%TO.C,R8*%
X27000000Y50810000D03*
X27000000Y49790000D03*
%TD*%
D21*
%TO.C,C20*%
X33020000Y45800000D03*
X33980000Y45800000D03*
%TD*%
D17*
%TO.C,R2*%
X26200000Y33705000D03*
X26200000Y32685000D03*
%TD*%
D23*
%TO.C,Y1*%
X24900000Y26650000D03*
X27100000Y26650000D03*
X27100000Y28350000D03*
X24900000Y28350000D03*
%TD*%
D10*
%TO.C,C19*%
X10165000Y63500000D03*
X12065000Y63500000D03*
%TD*%
D17*
%TO.C,R3*%
X31200000Y50360000D03*
X31200000Y49340000D03*
%TD*%
%TO.C,R4*%
X34100000Y28310000D03*
X34100000Y27290000D03*
%TD*%
D24*
%TO.C,J4*%
X35900000Y15700000D03*
X36900000Y15700000D03*
X37900000Y15700000D03*
D25*
X34600000Y11825000D03*
X39200000Y11825000D03*
%TD*%
D26*
%TO.C,C9*%
X31200000Y48480000D03*
X31200000Y47520000D03*
%TD*%
D27*
%TO.C,C7*%
X28485000Y48500000D03*
X29515000Y48500000D03*
%TD*%
D16*
%TO.C,C14*%
X20680000Y49600000D03*
X19720000Y49600000D03*
%TD*%
D28*
%TO.C,SW1*%
X18275000Y68375000D03*
X18275000Y64225000D03*
X16125000Y68375000D03*
X16125000Y64250000D03*
%TD*%
D17*
%TO.C,R9*%
X16900000Y59710000D03*
X16900000Y58690000D03*
%TD*%
D27*
%TO.C,C6*%
X28485000Y47550000D03*
X29515000Y47550000D03*
%TD*%
D29*
%TO.C,R10*%
X14090000Y58700000D03*
X15110000Y58700000D03*
%TD*%
%TO.C,R6*%
X14090000Y60100000D03*
X15110000Y60100000D03*
%TD*%
D26*
%TO.C,C10*%
X27400000Y33680000D03*
X27400000Y32720000D03*
%TD*%
D30*
%TO.C,U1*%
X25300000Y42200000D03*
X25300000Y40800000D03*
X26700000Y42200000D03*
X26700000Y40800000D03*
D31*
X21103500Y45300000D03*
X21103500Y44900000D03*
X21103500Y44500000D03*
X21103500Y44100000D03*
X21103500Y43700000D03*
X21103500Y43300000D03*
X21103500Y42900000D03*
X21103500Y42500000D03*
X21103500Y42100000D03*
X21103500Y41700000D03*
X21103500Y41300000D03*
X21103500Y40900000D03*
X21103500Y40500000D03*
X21103500Y40100000D03*
X21103500Y39700000D03*
X21103500Y39300000D03*
X21103500Y38900000D03*
X21103500Y38500000D03*
X21103500Y38100000D03*
X21103500Y37700000D03*
D32*
X22200000Y36603500D03*
X22600000Y36603500D03*
X23000000Y36603500D03*
X23400000Y36603500D03*
X23800000Y36603500D03*
X24200000Y36603500D03*
X24600000Y36603500D03*
X25000000Y36603500D03*
X25400000Y36603500D03*
X25800000Y36603500D03*
X26200000Y36603500D03*
X26600000Y36603500D03*
X27000000Y36603500D03*
X27400000Y36603500D03*
X27800000Y36603500D03*
X28200000Y36603500D03*
X28600000Y36603500D03*
X29000000Y36603500D03*
X29400000Y36603500D03*
X29800000Y36603500D03*
D31*
X30896500Y37700000D03*
X30896500Y38100000D03*
X30896500Y38500000D03*
X30896500Y38900000D03*
X30896500Y39300000D03*
X30896500Y39700000D03*
X30896500Y40100000D03*
X30896500Y40500000D03*
X30896500Y40900000D03*
X30896500Y41300000D03*
X30896500Y41700000D03*
X30896500Y42100000D03*
X30896500Y42500000D03*
X30896500Y42900000D03*
X30896500Y43300000D03*
X30896500Y43700000D03*
X30896500Y44100000D03*
X30896500Y44500000D03*
X30896500Y44900000D03*
X30896500Y45300000D03*
D32*
X29800000Y46396500D03*
X29400000Y46396500D03*
X29000000Y46396500D03*
X28600000Y46396500D03*
X28200000Y46396500D03*
X27800000Y46396500D03*
X27400000Y46396500D03*
X27000000Y46396500D03*
X26600000Y46396500D03*
X26200000Y46396500D03*
X25800000Y46396500D03*
X25400000Y46396500D03*
X25000000Y46396500D03*
X24600000Y46396500D03*
X24200000Y46396500D03*
X23800000Y46396500D03*
X23400000Y46396500D03*
X23000000Y46396500D03*
X22600000Y46396500D03*
X22200000Y46396500D03*
D33*
X24866667Y42633333D03*
X24866667Y41500000D03*
X24866667Y40366667D03*
X26000000Y42633333D03*
X26000000Y41500000D03*
X26000000Y40366667D03*
X27133333Y42633333D03*
X27133333Y41500000D03*
X27133333Y40366667D03*
%TD*%
D34*
%TO.C,L1*%
X28300000Y50150000D03*
X29700000Y50150000D03*
%TD*%
D16*
%TO.C,C8*%
X18480000Y41700000D03*
X17520000Y41700000D03*
%TD*%
%TO.C,C21*%
X21780000Y34800000D03*
X20820000Y34800000D03*
%TD*%
D28*
%TO.C,SW2*%
X35650000Y25825000D03*
X35650000Y29975000D03*
X37800000Y25825000D03*
X37800000Y29950000D03*
%TD*%
D21*
%TO.C,C11*%
X33520000Y42000000D03*
X34480000Y42000000D03*
%TD*%
D26*
%TO.C,C13*%
X24700000Y33680000D03*
X24700000Y32720000D03*
%TD*%
M02*
