%TF.GenerationSoftware,KiCad,Pcbnew,10.0.3*%
%TF.CreationDate,2026-06-09T11:17:35-05:00*%
%TF.ProjectId,RP2350_80QFN_minimal,52503233-3530-45f3-9830-51464e5f6d69,REV3*%
%TF.SameCoordinates,PX4692680PY86f1e60*%
%TF.FileFunction,Legend,Bot*%
%TF.FilePolarity,Positive*%
%FSLAX46Y46*%
G04 Gerber Fmt 4.6, Leading zero omitted, Abs format (unit mm)*
G04 Created by KiCad (PCBNEW 10.0.3) date 2026-06-09 11:17:35*
%MOMM*%
%LPD*%
G01*
G04 APERTURE LIST*
%ADD10C,0.150000*%
%ADD11C,0.120000*%
G04 APERTURE END LIST*
D10*
X19761904Y51245181D02*
X19761904Y50435658D01*
X19761904Y50435658D02*
X19714285Y50340420D01*
X19714285Y50340420D02*
X19666666Y50292800D01*
X19666666Y50292800D02*
X19571428Y50245181D01*
X19571428Y50245181D02*
X19380952Y50245181D01*
X19380952Y50245181D02*
X19285714Y50292800D01*
X19285714Y50292800D02*
X19238095Y50340420D01*
X19238095Y50340420D02*
X19190476Y50435658D01*
X19190476Y50435658D02*
X19190476Y51245181D01*
X18285714Y50911848D02*
X18285714Y50245181D01*
X18523809Y51292800D02*
X18761904Y50578515D01*
X18761904Y50578515D02*
X18142857Y50578515D01*
X19742857Y61045181D02*
X20076190Y61521372D01*
X20314285Y61045181D02*
X20314285Y62045181D01*
X20314285Y62045181D02*
X19933333Y62045181D01*
X19933333Y62045181D02*
X19838095Y61997562D01*
X19838095Y61997562D02*
X19790476Y61949943D01*
X19790476Y61949943D02*
X19742857Y61854705D01*
X19742857Y61854705D02*
X19742857Y61711848D01*
X19742857Y61711848D02*
X19790476Y61616610D01*
X19790476Y61616610D02*
X19838095Y61568991D01*
X19838095Y61568991D02*
X19933333Y61521372D01*
X19933333Y61521372D02*
X20314285Y61521372D01*
X18790476Y61045181D02*
X19361904Y61045181D01*
X19076190Y61045181D02*
X19076190Y62045181D01*
X19076190Y62045181D02*
X19171428Y61902324D01*
X19171428Y61902324D02*
X19266666Y61807086D01*
X19266666Y61807086D02*
X19361904Y61759467D01*
X17838095Y61045181D02*
X18409523Y61045181D01*
X18123809Y61045181D02*
X18123809Y62045181D01*
X18123809Y62045181D02*
X18219047Y61902324D01*
X18219047Y61902324D02*
X18314285Y61807086D01*
X18314285Y61807086D02*
X18409523Y61759467D01*
X17942857Y57775181D02*
X18276190Y58251372D01*
X18514285Y57775181D02*
X18514285Y58775181D01*
X18514285Y58775181D02*
X18133333Y58775181D01*
X18133333Y58775181D02*
X18038095Y58727562D01*
X18038095Y58727562D02*
X17990476Y58679943D01*
X17990476Y58679943D02*
X17942857Y58584705D01*
X17942857Y58584705D02*
X17942857Y58441848D01*
X17942857Y58441848D02*
X17990476Y58346610D01*
X17990476Y58346610D02*
X18038095Y58298991D01*
X18038095Y58298991D02*
X18133333Y58251372D01*
X18133333Y58251372D02*
X18514285Y58251372D01*
X16990476Y57775181D02*
X17561904Y57775181D01*
X17276190Y57775181D02*
X17276190Y58775181D01*
X17276190Y58775181D02*
X17371428Y58632324D01*
X17371428Y58632324D02*
X17466666Y58537086D01*
X17466666Y58537086D02*
X17561904Y58489467D01*
X16657142Y58775181D02*
X16038095Y58775181D01*
X16038095Y58775181D02*
X16371428Y58394229D01*
X16371428Y58394229D02*
X16228571Y58394229D01*
X16228571Y58394229D02*
X16133333Y58346610D01*
X16133333Y58346610D02*
X16085714Y58298991D01*
X16085714Y58298991D02*
X16038095Y58203753D01*
X16038095Y58203753D02*
X16038095Y57965658D01*
X16038095Y57965658D02*
X16085714Y57870420D01*
X16085714Y57870420D02*
X16133333Y57822800D01*
X16133333Y57822800D02*
X16228571Y57775181D01*
X16228571Y57775181D02*
X16514285Y57775181D01*
X16514285Y57775181D02*
X16609523Y57822800D01*
X16609523Y57822800D02*
X16657142Y57870420D01*
X15242857Y60200420D02*
X15290476Y60152800D01*
X15290476Y60152800D02*
X15433333Y60105181D01*
X15433333Y60105181D02*
X15528571Y60105181D01*
X15528571Y60105181D02*
X15671428Y60152800D01*
X15671428Y60152800D02*
X15766666Y60248039D01*
X15766666Y60248039D02*
X15814285Y60343277D01*
X15814285Y60343277D02*
X15861904Y60533753D01*
X15861904Y60533753D02*
X15861904Y60676610D01*
X15861904Y60676610D02*
X15814285Y60867086D01*
X15814285Y60867086D02*
X15766666Y60962324D01*
X15766666Y60962324D02*
X15671428Y61057562D01*
X15671428Y61057562D02*
X15528571Y61105181D01*
X15528571Y61105181D02*
X15433333Y61105181D01*
X15433333Y61105181D02*
X15290476Y61057562D01*
X15290476Y61057562D02*
X15242857Y61009943D01*
X14861904Y61009943D02*
X14814285Y61057562D01*
X14814285Y61057562D02*
X14719047Y61105181D01*
X14719047Y61105181D02*
X14480952Y61105181D01*
X14480952Y61105181D02*
X14385714Y61057562D01*
X14385714Y61057562D02*
X14338095Y61009943D01*
X14338095Y61009943D02*
X14290476Y60914705D01*
X14290476Y60914705D02*
X14290476Y60819467D01*
X14290476Y60819467D02*
X14338095Y60676610D01*
X14338095Y60676610D02*
X14909523Y60105181D01*
X14909523Y60105181D02*
X14290476Y60105181D01*
X13909523Y61009943D02*
X13861904Y61057562D01*
X13861904Y61057562D02*
X13766666Y61105181D01*
X13766666Y61105181D02*
X13528571Y61105181D01*
X13528571Y61105181D02*
X13433333Y61057562D01*
X13433333Y61057562D02*
X13385714Y61009943D01*
X13385714Y61009943D02*
X13338095Y60914705D01*
X13338095Y60914705D02*
X13338095Y60819467D01*
X13338095Y60819467D02*
X13385714Y60676610D01*
X13385714Y60676610D02*
X13957142Y60105181D01*
X13957142Y60105181D02*
X13338095Y60105181D01*
%TO.C,U4*%
D11*
X16275000Y57025000D02*
X16275000Y56765000D01*
X16275000Y51575000D02*
X16275000Y51835000D01*
X19000000Y57025000D02*
X16275000Y57025000D01*
X19000000Y57025000D02*
X21725000Y57025000D01*
X19000000Y51575000D02*
X16275000Y51575000D01*
X19000000Y51575000D02*
X21725000Y51575000D01*
X21725000Y57025000D02*
X21725000Y56765000D01*
X21725000Y56765000D02*
X23400000Y56765000D01*
X21725000Y51575000D02*
X21725000Y51835000D01*
%TO.C,R11*%
X18720000Y60063641D02*
X18720000Y59756359D01*
X19480000Y60063641D02*
X19480000Y59756359D01*
%TO.C,R13*%
X17146359Y59780000D02*
X17453641Y59780000D01*
X17146359Y59020000D02*
X17453641Y59020000D01*
%TO.C,C22*%
X14707836Y59760000D02*
X14492164Y59760000D01*
X14707836Y59040000D02*
X14492164Y59040000D01*
%TD*%
M02*
