%TF.GenerationSoftware,KiCad,Pcbnew,10.0.3*%
%TF.CreationDate,2026-06-09T11:17:35-05:00*%
%TF.ProjectId,RP2350_80QFN_minimal,52503233-3530-45f3-9830-51464e5f6d69,REV3*%
%TF.SameCoordinates,PX4692680PY86f1e60*%
%TF.FileFunction,Soldermask,Bot*%
%TF.FilePolarity,Negative*%
%FSLAX46Y46*%
G04 Gerber Fmt 4.6, Leading zero omitted, Abs format (unit mm)*
G04 Created by KiCad (PCBNEW 10.0.3) date 2026-06-09 11:17:35*
%MOMM*%
%LPD*%
G01*
G04 APERTURE LIST*
G04 Aperture macros list*
%AMRoundRect*
0 Rectangle with rounded corners*
0 $1 Rounding radius*
0 $2 $3 $4 $5 $6 $7 $8 $9 X,Y pos of 4 corners*
0 Add a 4 corners polygon primitive as box body*
4,1,4,$2,$3,$4,$5,$6,$7,$8,$9,$2,$3,0*
0 Add four circle primitives for the rounded corners*
1,1,$1+$1,$2,$3*
1,1,$1+$1,$4,$5*
1,1,$1+$1,$6,$7*
1,1,$1+$1,$8,$9*
0 Add four rect primitives between the rounded corners*
20,1,$1+$1,$2,$3,$4,$5,0*
20,1,$1+$1,$4,$5,$6,$7,0*
20,1,$1+$1,$6,$7,$8,$9,0*
20,1,$1+$1,$8,$9,$2,$3,0*%
G04 Aperture macros list end*
%ADD10O,1.350000X1.700000*%
%ADD11O,1.100000X1.500000*%
%ADD12R,1.700000X1.700000*%
%ADD13O,1.700000X1.700000*%
%ADD14C,2.700000*%
%ADD15C,0.600000*%
%ADD16RoundRect,0.150000X0.650000X0.150000X-0.650000X0.150000X-0.650000X-0.150000X0.650000X-0.150000X0*%
%ADD17RoundRect,0.135000X-0.185000X0.135000X-0.185000X-0.135000X0.185000X-0.135000X0.185000X0.135000X0*%
%ADD18RoundRect,0.135000X-0.135000X-0.185000X0.135000X-0.185000X0.135000X0.185000X-0.135000X0.185000X0*%
%ADD19RoundRect,0.140000X0.140000X0.170000X-0.140000X0.170000X-0.140000X-0.170000X0.140000X-0.170000X0*%
G04 APERTURE END LIST*
D10*
%TO.C,J1*%
X28730000Y69780000D03*
D11*
X28420000Y66780000D03*
X23580000Y66780000D03*
D10*
X23270000Y69780000D03*
%TD*%
D12*
%TO.C,J2*%
X1870000Y67500000D03*
D13*
X4410000Y67500000D03*
X1870000Y64960000D03*
X4410000Y64960000D03*
X1870000Y62420000D03*
X4410000Y62420000D03*
X1870000Y59880000D03*
X4410000Y59880000D03*
X1870000Y57340000D03*
X4410000Y57340000D03*
X1870000Y54800000D03*
X4410000Y54800000D03*
X1870000Y52260000D03*
X4410000Y52260000D03*
X1870000Y49720000D03*
X4410000Y49720000D03*
X1870000Y47180000D03*
X4410000Y47180000D03*
X1870000Y44640000D03*
X4410000Y44640000D03*
X1870000Y42100000D03*
X4410000Y42100000D03*
X1870000Y39560000D03*
X4410000Y39560000D03*
X1870000Y37020000D03*
X4410000Y37020000D03*
X1870000Y34480000D03*
X4410000Y34480000D03*
X1870000Y31940000D03*
X4410000Y31940000D03*
X1870000Y29400000D03*
X4410000Y29400000D03*
X1870000Y26860000D03*
X4410000Y26860000D03*
X1870000Y24320000D03*
X4410000Y24320000D03*
X1870000Y21780000D03*
X4410000Y21780000D03*
X1870000Y19240000D03*
X4410000Y19240000D03*
X1870000Y16700000D03*
X4410000Y16700000D03*
X1870000Y14160000D03*
X4410000Y14160000D03*
X1870000Y11620000D03*
X4410000Y11620000D03*
X1870000Y9080000D03*
X4410000Y9080000D03*
X1870000Y6540000D03*
X4410000Y6540000D03*
X1870000Y4000000D03*
X4410000Y4000000D03*
%TD*%
D12*
%TO.C,J3*%
X47590000Y67500000D03*
D13*
X50130000Y67500000D03*
X47590000Y64960000D03*
X50130000Y64960000D03*
X47590000Y62420000D03*
X50130000Y62420000D03*
X47590000Y59880000D03*
X50130000Y59880000D03*
X47590000Y57340000D03*
X50130000Y57340000D03*
X47590000Y54800000D03*
X50130000Y54800000D03*
X47590000Y52260000D03*
X50130000Y52260000D03*
X47590000Y49720000D03*
X50130000Y49720000D03*
X47590000Y47180000D03*
X50130000Y47180000D03*
X47590000Y44640000D03*
X50130000Y44640000D03*
X47590000Y42100000D03*
X50130000Y42100000D03*
X47590000Y39560000D03*
X50130000Y39560000D03*
X47590000Y37020000D03*
X50130000Y37020000D03*
X47590000Y34480000D03*
X50130000Y34480000D03*
X47590000Y31940000D03*
X50130000Y31940000D03*
X47590000Y29400000D03*
X50130000Y29400000D03*
X47590000Y26860000D03*
X50130000Y26860000D03*
X47590000Y24320000D03*
X50130000Y24320000D03*
X47590000Y21780000D03*
X50130000Y21780000D03*
X47590000Y19240000D03*
X50130000Y19240000D03*
X47590000Y16700000D03*
X50130000Y16700000D03*
X47590000Y14160000D03*
X50130000Y14160000D03*
X47590000Y11620000D03*
X50130000Y11620000D03*
X47590000Y9080000D03*
X50130000Y9080000D03*
X47590000Y6540000D03*
X50130000Y6540000D03*
X47590000Y4000000D03*
X50130000Y4000000D03*
%TD*%
D14*
%TO.C,H2*%
X39970000Y67500000D03*
%TD*%
%TO.C,H3*%
X39970000Y4000000D03*
%TD*%
%TO.C,H1*%
X12030000Y67500000D03*
%TD*%
%TO.C,H4*%
X12030000Y4000000D03*
%TD*%
D15*
%TO.C,U1*%
X24866667Y42633333D03*
X24866667Y41500000D03*
X24866667Y40366667D03*
X26000000Y42633333D03*
X26000000Y41500000D03*
X26000000Y40366667D03*
X27133333Y42633333D03*
X27133333Y41500000D03*
X27133333Y40366667D03*
%TD*%
D16*
%TO.C,U4*%
X22600000Y56205000D03*
X22600000Y54935000D03*
X22600000Y53665000D03*
X22600000Y52395000D03*
X15400000Y52395000D03*
X15400000Y53665000D03*
X15400000Y54935000D03*
X15400000Y56205000D03*
%TD*%
D17*
%TO.C,R11*%
X19100000Y60420000D03*
X19100000Y59400000D03*
%TD*%
D18*
%TO.C,R13*%
X16790000Y59400000D03*
X17810000Y59400000D03*
%TD*%
D19*
%TO.C,C22*%
X15080000Y59400000D03*
X14120000Y59400000D03*
%TD*%
M02*
