%TF.GenerationSoftware,KiCad,Pcbnew,10.0.3*%
%TF.CreationDate,2026-06-09T11:17:35-05:00*%
%TF.ProjectId,RP2350_80QFN_minimal,52503233-3530-45f3-9830-51464e5f6d69,REV3*%
%TF.SameCoordinates,PX4692680PY86f1e60*%
%TF.FileFunction,Copper,L2,Bot*%
%TF.FilePolarity,Positive*%
%FSLAX46Y46*%
G04 Gerber Fmt 4.6, Leading zero omitted, Abs format (unit mm)*
G04 Created by KiCad (PCBNEW 10.0.3) date 2026-06-09 11:17:35*
%MOMM*%
%LPD*%
G01*
G04 APERTURE LIST*
G04 Aperture macros list*
%AMRoundRect*
0 Rectangle with rounded corners*
0 $1 Rounding radius*
0 $2 $3 $4 $5 $6 $7 $8 $9 X,Y pos of 4 corners*
0 Add a 4 corners polygon primitive as box body*
4,1,4,$2,$3,$4,$5,$6,$7,$8,$9,$2,$3,0*
0 Add four circle primitives for the rounded corners*
1,1,$1+$1,$2,$3*
1,1,$1+$1,$4,$5*
1,1,$1+$1,$6,$7*
1,1,$1+$1,$8,$9*
0 Add four rect primitives between the rounded corners*
20,1,$1+$1,$2,$3,$4,$5,0*
20,1,$1+$1,$4,$5,$6,$7,0*
20,1,$1+$1,$6,$7,$8,$9,0*
20,1,$1+$1,$8,$9,$2,$3,0*%
G04 Aperture macros list end*
%TA.AperFunction,ComponentPad*%
%ADD10O,1.350000X1.700000*%
%TD*%
%TA.AperFunction,ComponentPad*%
%ADD11O,1.100000X1.500000*%
%TD*%
%TA.AperFunction,ComponentPad*%
%ADD12R,1.700000X1.700000*%
%TD*%
%TA.AperFunction,ComponentPad*%
%ADD13O,1.700000X1.700000*%
%TD*%
%TA.AperFunction,ComponentPad*%
%ADD14C,0.600000*%
%TD*%
%TA.AperFunction,SMDPad,CuDef*%
%ADD15RoundRect,0.150000X0.650000X0.150000X-0.650000X0.150000X-0.650000X-0.150000X0.650000X-0.150000X0*%
%TD*%
%TA.AperFunction,SMDPad,CuDef*%
%ADD16RoundRect,0.135000X-0.185000X0.135000X-0.185000X-0.135000X0.185000X-0.135000X0.185000X0.135000X0*%
%TD*%
%TA.AperFunction,SMDPad,CuDef*%
%ADD17RoundRect,0.135000X-0.135000X-0.185000X0.135000X-0.185000X0.135000X0.185000X-0.135000X0.185000X0*%
%TD*%
%TA.AperFunction,SMDPad,CuDef*%
%ADD18RoundRect,0.140000X0.140000X0.170000X-0.140000X0.170000X-0.140000X-0.170000X0.140000X-0.170000X0*%
%TD*%
%TA.AperFunction,ViaPad*%
%ADD19C,0.600000*%
%TD*%
%TA.AperFunction,Conductor*%
%ADD20C,0.150000*%
%TD*%
%TA.AperFunction,Conductor*%
%ADD21C,0.600000*%
%TD*%
G04 APERTURE END LIST*
D10*
%TO.P,J1,6,Shield_6*%
%TO.N,GND*%
X28730000Y69780000D03*
D11*
X28420000Y66780000D03*
X23580000Y66780000D03*
D10*
X23270000Y69780000D03*
%TD*%
D12*
%TO.P,J2,1,Pin_1_1*%
%TO.N,GND*%
X1870000Y67500000D03*
D13*
%TO.P,J2,2,Pin_2_2*%
%TO.N,+3V3*%
X4410000Y67500000D03*
%TO.P,J2,3,Pin_3_3*%
%TO.N,GND*%
X1870000Y64960000D03*
%TO.P,J2,4,Pin_4_4*%
%TO.N,/GPIO0*%
X4410000Y64960000D03*
%TO.P,J2,5,Pin_5_5*%
%TO.N,GND*%
X1870000Y62420000D03*
%TO.P,J2,6,Pin_6_6*%
%TO.N,/GPIO1*%
X4410000Y62420000D03*
%TO.P,J2,7,Pin_7_7*%
%TO.N,GND*%
X1870000Y59880000D03*
%TO.P,J2,8,Pin_8_8*%
%TO.N,/GPIO2*%
X4410000Y59880000D03*
%TO.P,J2,9,Pin_9_9*%
%TO.N,GND*%
X1870000Y57340000D03*
%TO.P,J2,10,Pin_10_10*%
%TO.N,/GPIO3*%
X4410000Y57340000D03*
%TO.P,J2,11,Pin_11_11*%
%TO.N,GND*%
X1870000Y54800000D03*
%TO.P,J2,12,Pin_12_12*%
%TO.N,/GPIO4*%
X4410000Y54800000D03*
%TO.P,J2,13,Pin_13_13*%
%TO.N,GND*%
X1870000Y52260000D03*
%TO.P,J2,14,Pin_14_14*%
%TO.N,/GPIO5*%
X4410000Y52260000D03*
%TO.P,J2,15,Pin_15_15*%
%TO.N,GND*%
X1870000Y49720000D03*
%TO.P,J2,16,Pin_16_16*%
%TO.N,/GPIO6*%
X4410000Y49720000D03*
%TO.P,J2,17,Pin_17_17*%
%TO.N,GND*%
X1870000Y47180000D03*
%TO.P,J2,18,Pin_18_18*%
%TO.N,/GPIO7*%
X4410000Y47180000D03*
%TO.P,J2,19,Pin_19_19*%
%TO.N,GND*%
X1870000Y44640000D03*
%TO.P,J2,20,Pin_20_20*%
%TO.N,/GPIO8*%
X4410000Y44640000D03*
%TO.P,J2,21,Pin_21_21*%
%TO.N,GND*%
X1870000Y42100000D03*
%TO.P,J2,22,Pin_22_22*%
%TO.N,/GPIO9*%
X4410000Y42100000D03*
%TO.P,J2,23,Pin_23_23*%
%TO.N,GND*%
X1870000Y39560000D03*
%TO.P,J2,24,Pin_24_24*%
%TO.N,/GPIO10*%
X4410000Y39560000D03*
%TO.P,J2,25,Pin_25_25*%
%TO.N,GND*%
X1870000Y37020000D03*
%TO.P,J2,26,Pin_26_26*%
%TO.N,/GPIO11*%
X4410000Y37020000D03*
%TO.P,J2,27,Pin_27_27*%
%TO.N,GND*%
X1870000Y34480000D03*
%TO.P,J2,28,Pin_28_28*%
%TO.N,/GPIO12*%
X4410000Y34480000D03*
%TO.P,J2,29,Pin_29_29*%
%TO.N,GND*%
X1870000Y31940000D03*
%TO.P,J2,30,Pin_30_30*%
%TO.N,/GPIO13*%
X4410000Y31940000D03*
%TO.P,J2,31,Pin_31_31*%
%TO.N,GND*%
X1870000Y29400000D03*
%TO.P,J2,32,Pin_32_32*%
%TO.N,/GPIO14*%
X4410000Y29400000D03*
%TO.P,J2,33,Pin_33_33*%
%TO.N,GND*%
X1870000Y26860000D03*
%TO.P,J2,34,Pin_34_34*%
%TO.N,/GPIO15*%
X4410000Y26860000D03*
%TO.P,J2,35,Pin_35_35*%
%TO.N,GND*%
X1870000Y24320000D03*
%TO.P,J2,36,Pin_36_36*%
%TO.N,/GPIO16*%
X4410000Y24320000D03*
%TO.P,J2,37,Pin_37_37*%
%TO.N,GND*%
X1870000Y21780000D03*
%TO.P,J2,38,Pin_38_38*%
%TO.N,/GPIO17*%
X4410000Y21780000D03*
%TO.P,J2,39,Pin_39_39*%
%TO.N,GND*%
X1870000Y19240000D03*
%TO.P,J2,40,Pin_40_40*%
%TO.N,/GPIO18*%
X4410000Y19240000D03*
%TO.P,J2,41,Pin_41_41*%
%TO.N,GND*%
X1870000Y16700000D03*
%TO.P,J2,42,Pin_42_42*%
%TO.N,/GPIO19*%
X4410000Y16700000D03*
%TO.P,J2,43,Pin_43_43*%
%TO.N,GND*%
X1870000Y14160000D03*
%TO.P,J2,44,Pin_44_44*%
%TO.N,/GPIO20*%
X4410000Y14160000D03*
%TO.P,J2,45,Pin_45_45*%
%TO.N,GND*%
X1870000Y11620000D03*
%TO.P,J2,46,Pin_46_46*%
%TO.N,/GPIO21*%
X4410000Y11620000D03*
%TO.P,J2,47,Pin_47_47*%
%TO.N,GND*%
X1870000Y9080000D03*
%TO.P,J2,48,Pin_48_48*%
%TO.N,/GPIO22*%
X4410000Y9080000D03*
%TO.P,J2,49,Pin_49_49*%
%TO.N,GND*%
X1870000Y6540000D03*
%TO.P,J2,50,Pin_50_50*%
%TO.N,/GPIO23*%
X4410000Y6540000D03*
%TO.P,J2,51,Pin_51_51*%
%TO.N,GND*%
X1870000Y4000000D03*
%TO.P,J2,52,Pin_52_52*%
%TO.N,/GPIO24*%
X4410000Y4000000D03*
%TD*%
D12*
%TO.P,J3,1,Pin_1_1*%
%TO.N,/GPIO47_ADC7*%
X47590000Y67500000D03*
D13*
%TO.P,J3,2,Pin_2_2*%
%TO.N,GND*%
X50130000Y67500000D03*
%TO.P,J3,3,Pin_3_3*%
%TO.N,/GPIO46_ADC6*%
X47590000Y64960000D03*
%TO.P,J3,4,Pin_4_4*%
%TO.N,GND*%
X50130000Y64960000D03*
%TO.P,J3,5,Pin_5_5*%
%TO.N,/GPIO45_ADC5*%
X47590000Y62420000D03*
%TO.P,J3,6,Pin_6_6*%
%TO.N,GND*%
X50130000Y62420000D03*
%TO.P,J3,7,Pin_7_7*%
%TO.N,/GPIO44_ADC4*%
X47590000Y59880000D03*
%TO.P,J3,8,Pin_8_8*%
%TO.N,GND*%
X50130000Y59880000D03*
%TO.P,J3,9,Pin_9_9*%
%TO.N,/GPIO43_ADC3*%
X47590000Y57340000D03*
%TO.P,J3,10,Pin_10_10*%
%TO.N,GND*%
X50130000Y57340000D03*
%TO.P,J3,11,Pin_11_11*%
%TO.N,/GPIO42_ADC2*%
X47590000Y54800000D03*
%TO.P,J3,12,Pin_12_12*%
%TO.N,GND*%
X50130000Y54800000D03*
%TO.P,J3,13,Pin_13_13*%
%TO.N,/GPIO41_ADC1*%
X47590000Y52260000D03*
%TO.P,J3,14,Pin_14_14*%
%TO.N,GND*%
X50130000Y52260000D03*
%TO.P,J3,15,Pin_15_15*%
%TO.N,/GPIO40_ADC0*%
X47590000Y49720000D03*
%TO.P,J3,16,Pin_16_16*%
%TO.N,GND*%
X50130000Y49720000D03*
%TO.P,J3,17,Pin_17_17*%
%TO.N,/GPIO39*%
X47590000Y47180000D03*
%TO.P,J3,18,Pin_18_18*%
%TO.N,GND*%
X50130000Y47180000D03*
%TO.P,J3,19,Pin_19_19*%
%TO.N,/GPIO38*%
X47590000Y44640000D03*
%TO.P,J3,20,Pin_20_20*%
%TO.N,GND*%
X50130000Y44640000D03*
%TO.P,J3,21,Pin_21_21*%
%TO.N,/GPIO37*%
X47590000Y42100000D03*
%TO.P,J3,22,Pin_22_22*%
%TO.N,GND*%
X50130000Y42100000D03*
%TO.P,J3,23,Pin_23_23*%
%TO.N,/GPIO36*%
X47590000Y39560000D03*
%TO.P,J3,24,Pin_24_24*%
%TO.N,GND*%
X50130000Y39560000D03*
%TO.P,J3,25,Pin_25_25*%
%TO.N,/GPIO35*%
X47590000Y37020000D03*
%TO.P,J3,26,Pin_26_26*%
%TO.N,GND*%
X50130000Y37020000D03*
%TO.P,J3,27,Pin_27_27*%
%TO.N,/GPIO34*%
X47590000Y34480000D03*
%TO.P,J3,28,Pin_28_28*%
%TO.N,GND*%
X50130000Y34480000D03*
%TO.P,J3,29,Pin_29_29*%
%TO.N,/GPIO33*%
X47590000Y31940000D03*
%TO.P,J3,30,Pin_30_30*%
%TO.N,GND*%
X50130000Y31940000D03*
%TO.P,J3,31,Pin_31_31*%
%TO.N,/GPIO32*%
X47590000Y29400000D03*
%TO.P,J3,32,Pin_32_32*%
%TO.N,GND*%
X50130000Y29400000D03*
%TO.P,J3,33,Pin_33_33*%
%TO.N,/GPIO31*%
X47590000Y26860000D03*
%TO.P,J3,34,Pin_34_34*%
%TO.N,GND*%
X50130000Y26860000D03*
%TO.P,J3,35,Pin_35_35*%
%TO.N,/GPIO30*%
X47590000Y24320000D03*
%TO.P,J3,36,Pin_36_36*%
%TO.N,GND*%
X50130000Y24320000D03*
%TO.P,J3,37,Pin_37_37*%
%TO.N,/GPIO29*%
X47590000Y21780000D03*
%TO.P,J3,38,Pin_38_38*%
%TO.N,GND*%
X50130000Y21780000D03*
%TO.P,J3,39,Pin_39_39*%
%TO.N,/GPIO28*%
X47590000Y19240000D03*
%TO.P,J3,40,Pin_40_40*%
%TO.N,GND*%
X50130000Y19240000D03*
%TO.P,J3,41,Pin_41_41*%
%TO.N,/RUN*%
X47590000Y16700000D03*
%TO.P,J3,42,Pin_42_42*%
%TO.N,GND*%
X50130000Y16700000D03*
%TO.P,J3,43,Pin_43_43*%
%TO.N,/SWD*%
X47590000Y14160000D03*
%TO.P,J3,44,Pin_44_44*%
%TO.N,GND*%
X50130000Y14160000D03*
%TO.P,J3,45,Pin_45_45*%
%TO.N,/SWCLK*%
X47590000Y11620000D03*
%TO.P,J3,46,Pin_46_46*%
%TO.N,GND*%
X50130000Y11620000D03*
%TO.P,J3,47,Pin_47_47*%
%TO.N,/GPIO27*%
X47590000Y9080000D03*
%TO.P,J3,48,Pin_48_48*%
%TO.N,GND*%
X50130000Y9080000D03*
%TO.P,J3,49,Pin_49_49*%
%TO.N,/GPIO26*%
X47590000Y6540000D03*
%TO.P,J3,50,Pin_50_50*%
%TO.N,GND*%
X50130000Y6540000D03*
%TO.P,J3,51,Pin_51_51*%
%TO.N,/GPIO25*%
X47590000Y4000000D03*
%TO.P,J3,52,Pin_52_52*%
%TO.N,GND*%
X50130000Y4000000D03*
%TD*%
D14*
%TO.P,U1,81,GND_81*%
%TO.N,GND*%
X24866667Y42633333D03*
X24866667Y41500000D03*
X24866667Y40366667D03*
X26000000Y42633333D03*
X26000000Y41500000D03*
X26000000Y40366667D03*
X27133333Y42633333D03*
X27133333Y41500000D03*
X27133333Y40366667D03*
%TD*%
D15*
%TO.P,U4,1,~{CS}_1*%
%TO.N,/FLASH2_SS*%
X22600000Y56205000D03*
%TO.P,U4,2,DO(IO1)_2*%
%TO.N,/QSPI_SD1*%
X22600000Y54935000D03*
%TO.P,U4,3,IO2_3*%
%TO.N,/QSPI_SD2*%
X22600000Y53665000D03*
%TO.P,U4,4,GND_4*%
%TO.N,GND*%
X22600000Y52395000D03*
%TO.P,U4,5,DI(IO0)_5*%
%TO.N,/QSPI_SD0*%
X15400000Y52395000D03*
%TO.P,U4,6,CLK_6*%
%TO.N,/QSPI_SCLK*%
X15400000Y53665000D03*
%TO.P,U4,7,IO3_7*%
%TO.N,/QSPI_SD3*%
X15400000Y54935000D03*
%TO.P,U4,8,VCC_8*%
%TO.N,+3V3*%
X15400000Y56205000D03*
%TD*%
D16*
%TO.P,R11,1*%
%TO.N,/GPIO0*%
X19100000Y60420000D03*
%TO.P,R11,2*%
%TO.N,/FLASH2_SS*%
X19100000Y59400000D03*
%TD*%
D17*
%TO.P,R13,1*%
%TO.N,+3V3*%
X16790000Y59400000D03*
%TO.P,R13,2*%
%TO.N,/FLASH2_SS*%
X17810000Y59400000D03*
%TD*%
D18*
%TO.P,C22,1*%
%TO.N,+3V3*%
X15080000Y59400000D03*
%TO.P,C22,2*%
%TO.N,GND*%
X14120000Y59400000D03*
%TD*%
D19*
%TO.N,GND*%
X28700000Y26700000D03*
X23300000Y28300000D03*
X23900000Y32700000D03*
X34100000Y26500000D03*
X20900000Y58700000D03*
X20100000Y34224500D03*
X36900000Y11800000D03*
X35950000Y64050000D03*
X25000000Y51500000D03*
X28200000Y32680000D03*
X30100000Y47850000D03*
X12140000Y62250000D03*
X15400000Y51500000D03*
X16780000Y41700000D03*
X37100000Y52500000D03*
X28800000Y31080000D03*
X34715000Y37000000D03*
X35220000Y41000000D03*
X30100000Y48450000D03*
X24700000Y65500000D03*
X34800000Y46300000D03*
X36900000Y14300000D03*
X35220000Y42000000D03*
X16785000Y44400000D03*
X23400000Y31080000D03*
X16800000Y39300000D03*
X19000000Y49600000D03*
X30800000Y46800000D03*
X18275000Y66425000D03*
%TO.N,+3V3*%
X21400000Y68200000D03*
X16000000Y59400000D03*
X30600000Y68200000D03*
%TO.N,+1V1*%
X27700000Y43700000D03*
X32800000Y41700000D03*
X27700000Y48100000D03*
X26800000Y39200000D03*
X23800000Y41700000D03*
X26800000Y34280000D03*
X19200000Y41700000D03*
X28300000Y41700000D03*
X27700000Y48700000D03*
%TO.N,/GPIO0*%
X11000000Y58400000D03*
X16900000Y60500000D03*
%TO.N,/QSPI_SD3*%
X21300000Y55300000D03*
%TO.N,/QSPI_SCLK*%
X21300000Y54000000D03*
%TO.N,/QSPI_SD0*%
X21300000Y52700000D03*
%TO.N,/QSPI_SD2*%
X16700000Y53300000D03*
%TO.N,/QSPI_SD1*%
X16700000Y54600000D03*
%TD*%
%TO.N,+3V3*%
D20*
X15080000Y58720000D02*
X15400000Y58400000D01*
X15080000Y59400000D02*
X16000000Y59400000D01*
X15080000Y59400000D02*
X15080000Y58720000D01*
D21*
X30600000Y68200000D02*
X21400000Y68200000D01*
D20*
X15400000Y58400000D02*
X15400000Y56205000D01*
X16790000Y59400000D02*
X16000000Y59400000D01*
%TO.N,+1V1*%
D21*
X23800000Y41700000D02*
X19200000Y41700000D01*
X26800000Y39200000D02*
X26800000Y34280000D01*
X27700000Y48700000D02*
X27700000Y43700000D01*
X28300000Y41700000D02*
X32800000Y41700000D01*
%TO.N,/GPIO0*%
D20*
X16900000Y60500000D02*
X13100000Y60500000D01*
X16900000Y60500000D02*
X19020000Y60500000D01*
X19020000Y60500000D02*
X19100000Y60420000D01*
X13100000Y60500000D02*
X11000000Y58400000D01*
%TO.N,/QSPI_SD3*%
X16300000Y55300000D02*
X15935000Y54935000D01*
X15935000Y54935000D02*
X15400000Y54935000D01*
X21300000Y55300000D02*
X16300000Y55300000D01*
%TO.N,/QSPI_SCLK*%
X16300000Y54000000D02*
X15965000Y53665000D01*
X21300000Y54000000D02*
X16300000Y54000000D01*
X15965000Y53665000D02*
X15400000Y53665000D01*
%TO.N,/QSPI_SD0*%
X20995000Y52395000D02*
X15400000Y52395000D01*
X21300000Y52700000D02*
X20995000Y52395000D01*
%TO.N,/QSPI_SD2*%
X16725000Y53275000D02*
X21692500Y53275000D01*
X21692500Y53275000D02*
X22082500Y53665000D01*
X16700000Y53300000D02*
X16725000Y53275000D01*
X22082500Y53665000D02*
X22600000Y53665000D01*
%TO.N,/QSPI_SD1*%
X16700000Y54600000D02*
X21700000Y54600000D01*
X22565000Y54900000D02*
X22600000Y54935000D01*
X21700000Y54600000D02*
X22000000Y54900000D01*
X22000000Y54900000D02*
X22565000Y54900000D01*
%TO.N,/FLASH2_SS*%
X19100000Y59400000D02*
X19100000Y57000000D01*
X19100000Y59400000D02*
X17810000Y59400000D01*
X19100000Y57000000D02*
X19895000Y56205000D01*
X19895000Y56205000D02*
X22600000Y56205000D01*
%TD*%
%TA.AperFunction,Conductor*%
%TO.N,GND*%
G36*
X22810829Y70981093D02*
G01*
X22846793Y70931593D01*
X22846793Y70870407D01*
X22810829Y70820907D01*
X22807640Y70818685D01*
X22648473Y70712332D01*
X22648469Y70712329D01*
X22512671Y70576531D01*
X22512668Y70576527D01*
X22405969Y70416844D01*
X22405965Y70416835D01*
X22332467Y70239396D01*
X22295000Y70051032D01*
X22295000Y69930001D01*
X22295001Y69930000D01*
X22920000Y69930000D01*
X22920000Y69630000D01*
X22295001Y69630000D01*
X22295000Y69629999D01*
X22295000Y69508969D01*
X22332467Y69320605D01*
X22405965Y69143166D01*
X22405969Y69143157D01*
X22512668Y68983474D01*
X22512671Y68983470D01*
X22626637Y68869504D01*
X22654414Y68814987D01*
X22644843Y68754555D01*
X22601578Y68711290D01*
X22556633Y68700500D01*
X21334108Y68700500D01*
X21256200Y68679625D01*
X21206809Y68666391D01*
X21092690Y68600504D01*
X20999496Y68507310D01*
X20933609Y68393191D01*
X20919047Y68338844D01*
X20899500Y68265892D01*
X20899500Y68134108D01*
X20929579Y68021849D01*
X20933609Y68006810D01*
X20999496Y67892691D01*
X20999498Y67892689D01*
X20999500Y67892686D01*
X21092686Y67799500D01*
X21092688Y67799499D01*
X21092690Y67799497D01*
X21206810Y67733610D01*
X21206808Y67733610D01*
X21206812Y67733609D01*
X21206814Y67733608D01*
X21334108Y67699500D01*
X21334110Y67699500D01*
X22858411Y67699500D01*
X22916602Y67680593D01*
X22952566Y67631093D01*
X22952566Y67569907D01*
X22928415Y67530496D01*
X22919759Y67521841D01*
X22826739Y67382626D01*
X22762664Y67227935D01*
X22730000Y67063721D01*
X22730000Y66930001D01*
X22730001Y66930000D01*
X23255000Y66930000D01*
X23255000Y66630000D01*
X22730001Y66630000D01*
X22730000Y66629999D01*
X22730000Y66496280D01*
X22762664Y66332066D01*
X22826739Y66177375D01*
X22919759Y66038160D01*
X23038159Y65919760D01*
X23177374Y65826740D01*
X23332066Y65762665D01*
X23332065Y65762665D01*
X23429999Y65743186D01*
X23430000Y65743186D01*
X23430000Y66291326D01*
X23454555Y66277149D01*
X23537213Y66255000D01*
X23622787Y66255000D01*
X23705445Y66277149D01*
X23730000Y66291326D01*
X23730000Y65743186D01*
X23827933Y65762665D01*
X23982625Y65826740D01*
X24121840Y65919760D01*
X24240240Y66038160D01*
X24333260Y66177375D01*
X24397335Y66332066D01*
X24429999Y66496280D01*
X24430000Y66496284D01*
X24430000Y66629999D01*
X24429999Y66630000D01*
X23905000Y66630000D01*
X23905000Y66930000D01*
X24429999Y66930000D01*
X24430000Y66930001D01*
X24430000Y67063717D01*
X24429999Y67063721D01*
X24397335Y67227935D01*
X24333260Y67382626D01*
X24240240Y67521841D01*
X24231585Y67530496D01*
X24203808Y67585013D01*
X24213379Y67645445D01*
X24256644Y67688710D01*
X24301589Y67699500D01*
X27698411Y67699500D01*
X27756602Y67680593D01*
X27792566Y67631093D01*
X27792566Y67569907D01*
X27768415Y67530496D01*
X27759759Y67521841D01*
X27666739Y67382626D01*
X27602664Y67227935D01*
X27570000Y67063721D01*
X27570000Y66930001D01*
X27570001Y66930000D01*
X28095000Y66930000D01*
X28095000Y66630000D01*
X27570001Y66630000D01*
X27570000Y66629999D01*
X27570000Y66496280D01*
X27602664Y66332066D01*
X27666739Y66177375D01*
X27759759Y66038160D01*
X27878159Y65919760D01*
X28017374Y65826740D01*
X28172066Y65762665D01*
X28172065Y65762665D01*
X28269999Y65743186D01*
X28270000Y65743186D01*
X28270000Y66291326D01*
X28294555Y66277149D01*
X28377213Y66255000D01*
X28462787Y66255000D01*
X28545445Y66277149D01*
X28570000Y66291326D01*
X28570000Y65743186D01*
X28667933Y65762665D01*
X28822625Y65826740D01*
X28961840Y65919760D01*
X29080240Y66038160D01*
X29173260Y66177375D01*
X29237335Y66332066D01*
X29269999Y66496280D01*
X29270000Y66496284D01*
X29270000Y66629999D01*
X29269999Y66630000D01*
X28745000Y66630000D01*
X28745000Y66930000D01*
X29269999Y66930000D01*
X29270000Y66930001D01*
X29270000Y67063717D01*
X29269999Y67063721D01*
X29237335Y67227935D01*
X29173260Y67382626D01*
X29080240Y67521841D01*
X29071585Y67530496D01*
X29043808Y67585013D01*
X29050294Y67625966D01*
X38369500Y67625966D01*
X38369500Y67374035D01*
X38408908Y67125220D01*
X38486759Y66885621D01*
X38601127Y66661159D01*
X38601130Y66661155D01*
X38749207Y66457344D01*
X38927344Y66279207D01*
X39131155Y66131130D01*
X39355621Y66016759D01*
X39595215Y65938910D01*
X39595216Y65938910D01*
X39595219Y65938909D01*
X39844035Y65899500D01*
X39844038Y65899500D01*
X40095965Y65899500D01*
X40344780Y65938909D01*
X40344781Y65938910D01*
X40344785Y65938910D01*
X40584379Y66016759D01*
X40808845Y66131130D01*
X41012656Y66279207D01*
X41190793Y66457344D01*
X41338870Y66661155D01*
X41453241Y66885621D01*
X41531090Y67125215D01*
X41541918Y67193580D01*
X41570500Y67374035D01*
X41570500Y67625966D01*
X41531091Y67874781D01*
X41531090Y67874785D01*
X41453241Y68114379D01*
X41338870Y68338845D01*
X41316418Y68369747D01*
X46539500Y68369747D01*
X46539500Y66630254D01*
X46539501Y66630242D01*
X46551132Y66571773D01*
X46551134Y66571767D01*
X46595445Y66505452D01*
X46595448Y66505448D01*
X46661769Y66461133D01*
X46706231Y66452289D01*
X46720241Y66449502D01*
X46720246Y66449502D01*
X46720252Y66449500D01*
X46720253Y66449500D01*
X48459747Y66449500D01*
X48459748Y66449500D01*
X48518231Y66461133D01*
X48584552Y66505448D01*
X48628867Y66571769D01*
X48640500Y66630252D01*
X48640500Y67650000D01*
X48989423Y67650000D01*
X49652555Y67650000D01*
X49630000Y67565826D01*
X49630000Y67434174D01*
X49652555Y67350000D01*
X48989423Y67350000D01*
X49008316Y67230711D01*
X49064250Y67058560D01*
X49146431Y66897270D01*
X49146433Y66897266D01*
X49252824Y66750831D01*
X49380830Y66622825D01*
X49527265Y66516434D01*
X49527269Y66516432D01*
X49688559Y66434251D01*
X49860710Y66378317D01*
X49980000Y66359423D01*
X49980000Y67022555D01*
X50064174Y67000000D01*
X50195826Y67000000D01*
X50280000Y67022555D01*
X50280000Y66359424D01*
X50399289Y66378317D01*
X50571440Y66434251D01*
X50732730Y66516432D01*
X50732734Y66516434D01*
X50879169Y66622825D01*
X51007175Y66750831D01*
X51113566Y66897266D01*
X51113568Y66897270D01*
X51195749Y67058560D01*
X51251683Y67230711D01*
X51270577Y67350000D01*
X50607445Y67350000D01*
X50630000Y67434174D01*
X50630000Y67565826D01*
X50607445Y67650000D01*
X51270577Y67650000D01*
X51251683Y67769290D01*
X51195749Y67941441D01*
X51113568Y68102731D01*
X51113566Y68102735D01*
X51007175Y68249170D01*
X50879169Y68377176D01*
X50732734Y68483567D01*
X50732730Y68483569D01*
X50571440Y68565750D01*
X50399290Y68621684D01*
X50280000Y68640578D01*
X50280000Y67977446D01*
X50195826Y68000000D01*
X50064174Y68000000D01*
X49980000Y67977446D01*
X49980000Y68640578D01*
X49979999Y68640578D01*
X49860709Y68621684D01*
X49688559Y68565750D01*
X49527269Y68483569D01*
X49527265Y68483567D01*
X49380830Y68377176D01*
X49252824Y68249170D01*
X49146433Y68102735D01*
X49146431Y68102731D01*
X49064250Y67941441D01*
X49008316Y67769290D01*
X48989423Y67650000D01*
X48640500Y67650000D01*
X48640500Y68369748D01*
X48639022Y68377176D01*
X48635517Y68394798D01*
X48628867Y68428231D01*
X48584552Y68494552D01*
X48565453Y68507314D01*
X48518233Y68538866D01*
X48518231Y68538867D01*
X48518228Y68538868D01*
X48518227Y68538868D01*
X48459758Y68550499D01*
X48459748Y68550500D01*
X46720252Y68550500D01*
X46720251Y68550500D01*
X46720241Y68550499D01*
X46661772Y68538868D01*
X46661766Y68538866D01*
X46595451Y68494555D01*
X46595445Y68494549D01*
X46551134Y68428234D01*
X46551132Y68428228D01*
X46539501Y68369759D01*
X46539500Y68369747D01*
X41316418Y68369747D01*
X41190793Y68542656D01*
X41012656Y68720793D01*
X40808845Y68868870D01*
X40808844Y68868871D01*
X40808842Y68868872D01*
X40584379Y68983241D01*
X40344780Y69061092D01*
X40095965Y69100500D01*
X40095962Y69100500D01*
X39844038Y69100500D01*
X39844035Y69100500D01*
X39595219Y69061092D01*
X39355620Y68983241D01*
X39131157Y68868872D01*
X38927345Y68720794D01*
X38749206Y68542655D01*
X38601128Y68338843D01*
X38486759Y68114380D01*
X38408908Y67874781D01*
X38369500Y67625966D01*
X29050294Y67625966D01*
X29053379Y67645445D01*
X29096644Y67688710D01*
X29141589Y67699500D01*
X30665890Y67699500D01*
X30665892Y67699500D01*
X30793186Y67733608D01*
X30793188Y67733610D01*
X30793190Y67733610D01*
X30907309Y67799497D01*
X30907309Y67799498D01*
X30907314Y67799500D01*
X31000500Y67892686D01*
X31066392Y68006814D01*
X31100500Y68134108D01*
X31100500Y68265892D01*
X31066392Y68393186D01*
X31066390Y68393189D01*
X31066390Y68393191D01*
X31000503Y68507310D01*
X31000501Y68507312D01*
X31000500Y68507314D01*
X30907314Y68600500D01*
X30907311Y68600502D01*
X30907309Y68600504D01*
X30793189Y68666391D01*
X30793191Y68666391D01*
X30743799Y68679625D01*
X30665892Y68700500D01*
X29443367Y68700500D01*
X29385176Y68719407D01*
X29349212Y68768907D01*
X29349212Y68830093D01*
X29373363Y68869504D01*
X29487328Y68983470D01*
X29487331Y68983474D01*
X29594030Y69143157D01*
X29594034Y69143166D01*
X29667532Y69320605D01*
X29704999Y69508969D01*
X29705000Y69508972D01*
X29705000Y69629999D01*
X29704999Y69630000D01*
X29080000Y69630000D01*
X29080000Y69930000D01*
X29704999Y69930000D01*
X29705000Y69930001D01*
X29705000Y70051029D01*
X29704999Y70051032D01*
X29667532Y70239396D01*
X29594034Y70416835D01*
X29594030Y70416844D01*
X29487331Y70576527D01*
X29487328Y70576531D01*
X29351530Y70712329D01*
X29351526Y70712332D01*
X29192360Y70818685D01*
X29154481Y70866735D01*
X29152079Y70927873D01*
X29186072Y70978747D01*
X29243476Y70999924D01*
X29247362Y71000000D01*
X49987808Y71000000D01*
X50025694Y70992464D01*
X50166134Y70934292D01*
X50176136Y70929475D01*
X50431353Y70788422D01*
X50440748Y70782519D01*
X50678591Y70613761D01*
X50687242Y70606861D01*
X50904696Y70412532D01*
X50912531Y70404697D01*
X51106859Y70187245D01*
X51113761Y70178589D01*
X51204271Y70051029D01*
X51282515Y69940754D01*
X51288421Y69931354D01*
X51429474Y69676137D01*
X51434291Y69666135D01*
X51465101Y69591754D01*
X51492464Y69525694D01*
X51500000Y69487810D01*
X51500000Y2012189D01*
X51492464Y1974303D01*
X51434292Y1833865D01*
X51429475Y1823863D01*
X51288422Y1568646D01*
X51282516Y1559246D01*
X51113770Y1321420D01*
X51106852Y1312747D01*
X50958629Y1146885D01*
X50912539Y1095310D01*
X50904690Y1087461D01*
X50687253Y893148D01*
X50678580Y886230D01*
X50440754Y717484D01*
X50431354Y711578D01*
X50176137Y570525D01*
X50166135Y565708D01*
X50025698Y507536D01*
X49987812Y500000D01*
X2012188Y500000D01*
X1974302Y507536D01*
X1833864Y565708D01*
X1823862Y570525D01*
X1568645Y711578D01*
X1559245Y717484D01*
X1321410Y886238D01*
X1312754Y893140D01*
X1095302Y1087468D01*
X1087467Y1095303D01*
X893138Y1312757D01*
X886238Y1321408D01*
X717480Y1559251D01*
X711577Y1568646D01*
X570524Y1823863D01*
X565707Y1833866D01*
X507536Y1974304D01*
X500000Y2012189D01*
X500000Y4150000D01*
X729423Y4150000D01*
X1392555Y4150000D01*
X1370000Y4065826D01*
X1370000Y3934174D01*
X1392555Y3850000D01*
X729423Y3850000D01*
X748316Y3730711D01*
X804250Y3558560D01*
X886431Y3397270D01*
X886433Y3397266D01*
X992824Y3250831D01*
X1120830Y3122825D01*
X1267265Y3016434D01*
X1267269Y3016432D01*
X1428559Y2934251D01*
X1600710Y2878317D01*
X1720000Y2859423D01*
X1720000Y3522555D01*
X1804174Y3500000D01*
X1935826Y3500000D01*
X2020000Y3522555D01*
X2020000Y2859424D01*
X2139289Y2878317D01*
X2311440Y2934251D01*
X2472730Y3016432D01*
X2472734Y3016434D01*
X2619169Y3122825D01*
X2747175Y3250831D01*
X2853566Y3397266D01*
X2853568Y3397270D01*
X2935749Y3558560D01*
X2991683Y3730711D01*
X3010577Y3850000D01*
X2347445Y3850000D01*
X2370000Y3934174D01*
X2370000Y4065826D01*
X2359914Y4103468D01*
X3359500Y4103468D01*
X3359500Y3896533D01*
X3399869Y3693582D01*
X3479058Y3502403D01*
X3479059Y3502402D01*
X3594023Y3330345D01*
X3740345Y3184023D01*
X3912402Y3069059D01*
X4103580Y2989870D01*
X4306535Y2949500D01*
X4306536Y2949500D01*
X4513464Y2949500D01*
X4513465Y2949500D01*
X4716420Y2989870D01*
X4907598Y3069059D01*
X5079655Y3184023D01*
X5225977Y3330345D01*
X5340941Y3502402D01*
X5420130Y3693580D01*
X5460500Y3896535D01*
X5460500Y4103465D01*
X5460499Y4103467D01*
X5460499Y4103473D01*
X5459094Y4110536D01*
X5459093Y4110538D01*
X5456024Y4125966D01*
X10429500Y4125966D01*
X10429500Y3874035D01*
X10468908Y3625220D01*
X10498523Y3534075D01*
X10546759Y3385621D01*
X10661130Y3161155D01*
X10809207Y2957344D01*
X10987344Y2779207D01*
X11191155Y2631130D01*
X11415621Y2516759D01*
X11655215Y2438910D01*
X11655216Y2438910D01*
X11655219Y2438909D01*
X11904035Y2399500D01*
X11904038Y2399500D01*
X12155965Y2399500D01*
X12404780Y2438909D01*
X12404781Y2438910D01*
X12404785Y2438910D01*
X12644379Y2516759D01*
X12868845Y2631130D01*
X13072656Y2779207D01*
X13250793Y2957344D01*
X13398870Y3161155D01*
X13513241Y3385621D01*
X13591090Y3625215D01*
X13601918Y3693580D01*
X13630500Y3874035D01*
X13630500Y4125966D01*
X38369500Y4125966D01*
X38369500Y3874035D01*
X38408908Y3625220D01*
X38438523Y3534075D01*
X38486759Y3385621D01*
X38601130Y3161155D01*
X38749207Y2957344D01*
X38927344Y2779207D01*
X39131155Y2631130D01*
X39355621Y2516759D01*
X39595215Y2438910D01*
X39595216Y2438910D01*
X39595219Y2438909D01*
X39844035Y2399500D01*
X39844038Y2399500D01*
X40095965Y2399500D01*
X40344780Y2438909D01*
X40344781Y2438910D01*
X40344785Y2438910D01*
X40584379Y2516759D01*
X40808845Y2631130D01*
X41012656Y2779207D01*
X41190793Y2957344D01*
X41338870Y3161155D01*
X41453241Y3385621D01*
X41531090Y3625215D01*
X41541918Y3693580D01*
X41570500Y3874035D01*
X41570500Y4103468D01*
X46539500Y4103468D01*
X46539500Y3896533D01*
X46579869Y3693582D01*
X46659058Y3502403D01*
X46659059Y3502402D01*
X46774023Y3330345D01*
X46920345Y3184023D01*
X47092402Y3069059D01*
X47283580Y2989870D01*
X47486535Y2949500D01*
X47486536Y2949500D01*
X47693464Y2949500D01*
X47693465Y2949500D01*
X47896420Y2989870D01*
X48087598Y3069059D01*
X48259655Y3184023D01*
X48405977Y3330345D01*
X48520941Y3502402D01*
X48600130Y3693580D01*
X48627290Y3830126D01*
X48640499Y3896529D01*
X48640499Y3896532D01*
X48640500Y3896535D01*
X48640500Y4103465D01*
X48640499Y4103467D01*
X48640499Y4103472D01*
X48631244Y4150000D01*
X48989423Y4150000D01*
X49652555Y4150000D01*
X49630000Y4065826D01*
X49630000Y3934174D01*
X49652555Y3850000D01*
X48989423Y3850000D01*
X49008316Y3730711D01*
X49064250Y3558560D01*
X49146431Y3397270D01*
X49146433Y3397266D01*
X49252824Y3250831D01*
X49380830Y3122825D01*
X49527265Y3016434D01*
X49527269Y3016432D01*
X49688559Y2934251D01*
X49860710Y2878317D01*
X49980000Y2859423D01*
X49980000Y3522555D01*
X50064174Y3500000D01*
X50195826Y3500000D01*
X50280000Y3522555D01*
X50280000Y2859424D01*
X50399289Y2878317D01*
X50571440Y2934251D01*
X50732730Y3016432D01*
X50732734Y3016434D01*
X50879169Y3122825D01*
X51007175Y3250831D01*
X51113566Y3397266D01*
X51113568Y3397270D01*
X51195749Y3558560D01*
X51251683Y3730711D01*
X51270577Y3850000D01*
X50607445Y3850000D01*
X50630000Y3934174D01*
X50630000Y4065826D01*
X50607445Y4150000D01*
X51270577Y4150000D01*
X51251683Y4269290D01*
X51195749Y4441441D01*
X51113568Y4602731D01*
X51113566Y4602735D01*
X51007175Y4749170D01*
X50879169Y4877176D01*
X50732734Y4983567D01*
X50732730Y4983569D01*
X50571440Y5065750D01*
X50399290Y5121684D01*
X50280000Y5140578D01*
X50280000Y4477446D01*
X50195826Y4500000D01*
X50064174Y4500000D01*
X49980000Y4477446D01*
X49980000Y5140578D01*
X49979999Y5140578D01*
X49860709Y5121684D01*
X49688559Y5065750D01*
X49527269Y4983569D01*
X49527265Y4983567D01*
X49380830Y4877176D01*
X49252824Y4749170D01*
X49146433Y4602735D01*
X49146431Y4602731D01*
X49064250Y4441441D01*
X49008316Y4269290D01*
X48989423Y4150000D01*
X48631244Y4150000D01*
X48613710Y4238148D01*
X48600130Y4306420D01*
X48520941Y4497598D01*
X48405977Y4669655D01*
X48259655Y4815977D01*
X48259651Y4815980D01*
X48087597Y4930942D01*
X47896418Y5010131D01*
X47693467Y5050500D01*
X47693465Y5050500D01*
X47486535Y5050500D01*
X47486532Y5050500D01*
X47283581Y5010131D01*
X47092402Y4930942D01*
X46920348Y4815980D01*
X46774020Y4669652D01*
X46659058Y4497598D01*
X46579869Y4306419D01*
X46539500Y4103468D01*
X41570500Y4103468D01*
X41570500Y4125966D01*
X41531091Y4374781D01*
X41509432Y4441441D01*
X41453241Y4614379D01*
X41338870Y4838845D01*
X41190793Y5042656D01*
X41012656Y5220793D01*
X40808845Y5368870D01*
X40808844Y5368871D01*
X40808842Y5368872D01*
X40584379Y5483241D01*
X40344780Y5561092D01*
X40095965Y5600500D01*
X40095962Y5600500D01*
X39844038Y5600500D01*
X39844035Y5600500D01*
X39595219Y5561092D01*
X39355620Y5483241D01*
X39131157Y5368872D01*
X38927345Y5220794D01*
X38749206Y5042655D01*
X38601128Y4838843D01*
X38486759Y4614380D01*
X38408908Y4374781D01*
X38369500Y4125966D01*
X13630500Y4125966D01*
X13591091Y4374781D01*
X13569432Y4441441D01*
X13513241Y4614379D01*
X13398870Y4838845D01*
X13250793Y5042656D01*
X13072656Y5220793D01*
X12868845Y5368870D01*
X12868844Y5368871D01*
X12868842Y5368872D01*
X12644379Y5483241D01*
X12404780Y5561092D01*
X12155965Y5600500D01*
X12155962Y5600500D01*
X11904038Y5600500D01*
X11904035Y5600500D01*
X11655219Y5561092D01*
X11415620Y5483241D01*
X11191157Y5368872D01*
X10987345Y5220794D01*
X10809206Y5042655D01*
X10661128Y4838843D01*
X10546759Y4614380D01*
X10468908Y4374781D01*
X10429500Y4125966D01*
X5456024Y4125966D01*
X5442692Y4192993D01*
X5420130Y4306420D01*
X5340941Y4497598D01*
X5225977Y4669655D01*
X5079655Y4815977D01*
X5079651Y4815980D01*
X4907597Y4930942D01*
X4716418Y5010131D01*
X4513467Y5050500D01*
X4513465Y5050500D01*
X4306535Y5050500D01*
X4306532Y5050500D01*
X4103581Y5010131D01*
X3912402Y4930942D01*
X3740348Y4815980D01*
X3594020Y4669652D01*
X3479058Y4497598D01*
X3399869Y4306419D01*
X3359500Y4103468D01*
X2359914Y4103468D01*
X2347445Y4150000D01*
X3010577Y4150000D01*
X3010577Y4150001D01*
X2991683Y4269290D01*
X2935749Y4441441D01*
X2853568Y4602731D01*
X2853566Y4602735D01*
X2747175Y4749170D01*
X2619169Y4877176D01*
X2472734Y4983567D01*
X2472730Y4983569D01*
X2311440Y5065750D01*
X2139290Y5121684D01*
X2020000Y5140578D01*
X2020000Y4477446D01*
X1935826Y4500000D01*
X1804174Y4500000D01*
X1720000Y4477446D01*
X1720000Y5140578D01*
X1719999Y5140578D01*
X1600709Y5121684D01*
X1428559Y5065750D01*
X1267269Y4983569D01*
X1267265Y4983567D01*
X1120830Y4877176D01*
X992824Y4749170D01*
X886433Y4602735D01*
X886431Y4602731D01*
X804250Y4441441D01*
X748316Y4269290D01*
X729423Y4150000D01*
X500000Y4150000D01*
X500000Y6690000D01*
X729423Y6690000D01*
X1392555Y6690000D01*
X1370000Y6605826D01*
X1370000Y6474174D01*
X1392555Y6390000D01*
X729423Y6390000D01*
X748316Y6270711D01*
X804250Y6098560D01*
X886431Y5937270D01*
X886433Y5937266D01*
X992824Y5790831D01*
X1120830Y5662825D01*
X1267265Y5556434D01*
X1267269Y5556432D01*
X1428559Y5474251D01*
X1600710Y5418317D01*
X1720000Y5399423D01*
X1720000Y6062555D01*
X1804174Y6040000D01*
X1935826Y6040000D01*
X2020000Y6062555D01*
X2020000Y5399424D01*
X2139289Y5418317D01*
X2311440Y5474251D01*
X2472730Y5556432D01*
X2472734Y5556434D01*
X2619169Y5662825D01*
X2747175Y5790831D01*
X2853566Y5937266D01*
X2853568Y5937270D01*
X2935749Y6098560D01*
X2991683Y6270711D01*
X3010577Y6390000D01*
X2347445Y6390000D01*
X2370000Y6474174D01*
X2370000Y6605826D01*
X2359914Y6643468D01*
X3359500Y6643468D01*
X3359500Y6436533D01*
X3399869Y6233582D01*
X3479058Y6042403D01*
X3479059Y6042402D01*
X3594023Y5870345D01*
X3740345Y5724023D01*
X3912402Y5609059D01*
X4103580Y5529870D01*
X4306535Y5489500D01*
X4306536Y5489500D01*
X4513464Y5489500D01*
X4513465Y5489500D01*
X4716420Y5529870D01*
X4907598Y5609059D01*
X5079655Y5724023D01*
X5225977Y5870345D01*
X5340941Y6042402D01*
X5420130Y6233580D01*
X5460500Y6436535D01*
X5460500Y6643465D01*
X5460499Y6643468D01*
X46539500Y6643468D01*
X46539500Y6436533D01*
X46579869Y6233582D01*
X46659058Y6042403D01*
X46659059Y6042402D01*
X46774023Y5870345D01*
X46920345Y5724023D01*
X47092402Y5609059D01*
X47283580Y5529870D01*
X47486535Y5489500D01*
X47486536Y5489500D01*
X47693464Y5489500D01*
X47693465Y5489500D01*
X47896420Y5529870D01*
X48087598Y5609059D01*
X48259655Y5724023D01*
X48405977Y5870345D01*
X48520941Y6042402D01*
X48600130Y6233580D01*
X48627290Y6370126D01*
X48640499Y6436529D01*
X48640499Y6436532D01*
X48640500Y6436535D01*
X48640500Y6643465D01*
X48640499Y6643467D01*
X48640499Y6643472D01*
X48631244Y6690000D01*
X48989423Y6690000D01*
X49652555Y6690000D01*
X49630000Y6605826D01*
X49630000Y6474174D01*
X49652555Y6390000D01*
X48989423Y6390000D01*
X49008316Y6270711D01*
X49064250Y6098560D01*
X49146431Y5937270D01*
X49146433Y5937266D01*
X49252824Y5790831D01*
X49380830Y5662825D01*
X49527265Y5556434D01*
X49527269Y5556432D01*
X49688559Y5474251D01*
X49860710Y5418317D01*
X49980000Y5399423D01*
X49980000Y6062555D01*
X50064174Y6040000D01*
X50195826Y6040000D01*
X50280000Y6062555D01*
X50280000Y5399424D01*
X50399289Y5418317D01*
X50571440Y5474251D01*
X50732730Y5556432D01*
X50732734Y5556434D01*
X50879169Y5662825D01*
X51007175Y5790831D01*
X51113566Y5937266D01*
X51113568Y5937270D01*
X51195749Y6098560D01*
X51251683Y6270711D01*
X51270577Y6390000D01*
X50607445Y6390000D01*
X50630000Y6474174D01*
X50630000Y6605826D01*
X50607445Y6690000D01*
X51270577Y6690000D01*
X51251683Y6809290D01*
X51195749Y6981441D01*
X51113568Y7142731D01*
X51113566Y7142735D01*
X51007175Y7289170D01*
X50879169Y7417176D01*
X50732734Y7523567D01*
X50732730Y7523569D01*
X50571440Y7605750D01*
X50399290Y7661684D01*
X50280000Y7680578D01*
X50280000Y7017446D01*
X50195826Y7040000D01*
X50064174Y7040000D01*
X49980000Y7017446D01*
X49980000Y7680578D01*
X49979999Y7680578D01*
X49860709Y7661684D01*
X49688559Y7605750D01*
X49527269Y7523569D01*
X49527265Y7523567D01*
X49380830Y7417176D01*
X49252824Y7289170D01*
X49146433Y7142735D01*
X49146431Y7142731D01*
X49064250Y6981441D01*
X49008316Y6809290D01*
X48989423Y6690000D01*
X48631244Y6690000D01*
X48613710Y6778148D01*
X48600130Y6846420D01*
X48520941Y7037598D01*
X48405977Y7209655D01*
X48259655Y7355977D01*
X48087598Y7470941D01*
X48087599Y7470941D01*
X48087597Y7470942D01*
X47896418Y7550131D01*
X47693467Y7590500D01*
X47693465Y7590500D01*
X47486535Y7590500D01*
X47486532Y7590500D01*
X47283581Y7550131D01*
X47092402Y7470942D01*
X46920348Y7355980D01*
X46774020Y7209652D01*
X46659058Y7037598D01*
X46579869Y6846419D01*
X46539500Y6643468D01*
X5460499Y6643468D01*
X5420130Y6846420D01*
X5340941Y7037598D01*
X5225977Y7209655D01*
X5079655Y7355977D01*
X4907598Y7470941D01*
X4907599Y7470941D01*
X4907597Y7470942D01*
X4716418Y7550131D01*
X4513467Y7590500D01*
X4513465Y7590500D01*
X4306535Y7590500D01*
X4306532Y7590500D01*
X4103581Y7550131D01*
X3912402Y7470942D01*
X3740348Y7355980D01*
X3594020Y7209652D01*
X3479058Y7037598D01*
X3399869Y6846419D01*
X3359500Y6643468D01*
X2359914Y6643468D01*
X2347445Y6690000D01*
X3010577Y6690000D01*
X3010577Y6690001D01*
X2991683Y6809290D01*
X2935749Y6981441D01*
X2853568Y7142731D01*
X2853566Y7142735D01*
X2747175Y7289170D01*
X2619169Y7417176D01*
X2472734Y7523567D01*
X2472730Y7523569D01*
X2311440Y7605750D01*
X2139290Y7661684D01*
X2020000Y7680578D01*
X2020000Y7017446D01*
X1935826Y7040000D01*
X1804174Y7040000D01*
X1720000Y7017446D01*
X1720000Y7680578D01*
X1719999Y7680578D01*
X1600709Y7661684D01*
X1428559Y7605750D01*
X1267269Y7523569D01*
X1267265Y7523567D01*
X1120830Y7417176D01*
X992824Y7289170D01*
X886433Y7142735D01*
X886431Y7142731D01*
X804250Y6981441D01*
X748316Y6809290D01*
X729423Y6690000D01*
X500000Y6690000D01*
X500000Y9230000D01*
X729423Y9230000D01*
X1392555Y9230000D01*
X1370000Y9145826D01*
X1370000Y9014174D01*
X1392555Y8930000D01*
X729423Y8930000D01*
X748316Y8810711D01*
X804250Y8638560D01*
X886431Y8477270D01*
X886433Y8477266D01*
X992824Y8330831D01*
X1120830Y8202825D01*
X1267265Y8096434D01*
X1267269Y8096432D01*
X1428559Y8014251D01*
X1600710Y7958317D01*
X1720000Y7939423D01*
X1720000Y8602555D01*
X1804174Y8580000D01*
X1935826Y8580000D01*
X2020000Y8602555D01*
X2020000Y7939424D01*
X2139289Y7958317D01*
X2311440Y8014251D01*
X2472730Y8096432D01*
X2472734Y8096434D01*
X2619169Y8202825D01*
X2747175Y8330831D01*
X2853566Y8477266D01*
X2853568Y8477270D01*
X2935749Y8638560D01*
X2991683Y8810711D01*
X3010577Y8930000D01*
X2347445Y8930000D01*
X2370000Y9014174D01*
X2370000Y9145826D01*
X2359914Y9183468D01*
X3359500Y9183468D01*
X3359500Y8976533D01*
X3399869Y8773582D01*
X3479058Y8582403D01*
X3479059Y8582402D01*
X3594023Y8410345D01*
X3740345Y8264023D01*
X3912402Y8149059D01*
X4103580Y8069870D01*
X4306535Y8029500D01*
X4306536Y8029500D01*
X4513464Y8029500D01*
X4513465Y8029500D01*
X4716420Y8069870D01*
X4907598Y8149059D01*
X5079655Y8264023D01*
X5225977Y8410345D01*
X5340941Y8582402D01*
X5420130Y8773580D01*
X5460500Y8976535D01*
X5460500Y9183465D01*
X5460499Y9183468D01*
X46539500Y9183468D01*
X46539500Y8976533D01*
X46579869Y8773582D01*
X46659058Y8582403D01*
X46659059Y8582402D01*
X46774023Y8410345D01*
X46920345Y8264023D01*
X47092402Y8149059D01*
X47283580Y8069870D01*
X47486535Y8029500D01*
X47486536Y8029500D01*
X47693464Y8029500D01*
X47693465Y8029500D01*
X47896420Y8069870D01*
X48087598Y8149059D01*
X48259655Y8264023D01*
X48405977Y8410345D01*
X48520941Y8582402D01*
X48600130Y8773580D01*
X48627290Y8910126D01*
X48640499Y8976529D01*
X48640499Y8976532D01*
X48640500Y8976535D01*
X48640500Y9183465D01*
X48640499Y9183467D01*
X48640499Y9183472D01*
X48631244Y9230000D01*
X48989423Y9230000D01*
X49652555Y9230000D01*
X49630000Y9145826D01*
X49630000Y9014174D01*
X49652555Y8930000D01*
X48989423Y8930000D01*
X49008316Y8810711D01*
X49064250Y8638560D01*
X49146431Y8477270D01*
X49146433Y8477266D01*
X49252824Y8330831D01*
X49380830Y8202825D01*
X49527265Y8096434D01*
X49527269Y8096432D01*
X49688559Y8014251D01*
X49860710Y7958317D01*
X49980000Y7939423D01*
X49980000Y8602555D01*
X50064174Y8580000D01*
X50195826Y8580000D01*
X50280000Y8602555D01*
X50280000Y7939424D01*
X50399289Y7958317D01*
X50571440Y8014251D01*
X50732730Y8096432D01*
X50732734Y8096434D01*
X50879169Y8202825D01*
X51007175Y8330831D01*
X51113566Y8477266D01*
X51113568Y8477270D01*
X51195749Y8638560D01*
X51251683Y8810711D01*
X51270577Y8930000D01*
X50607445Y8930000D01*
X50630000Y9014174D01*
X50630000Y9145826D01*
X50607445Y9230000D01*
X51270577Y9230000D01*
X51251683Y9349290D01*
X51195749Y9521441D01*
X51113568Y9682731D01*
X51113566Y9682735D01*
X51007175Y9829170D01*
X50879169Y9957176D01*
X50732734Y10063567D01*
X50732730Y10063569D01*
X50571440Y10145750D01*
X50399290Y10201684D01*
X50280000Y10220578D01*
X50280000Y9557446D01*
X50195826Y9580000D01*
X50064174Y9580000D01*
X49980000Y9557446D01*
X49980000Y10220578D01*
X49979999Y10220578D01*
X49860709Y10201684D01*
X49688559Y10145750D01*
X49527269Y10063569D01*
X49527265Y10063567D01*
X49380830Y9957176D01*
X49252824Y9829170D01*
X49146433Y9682735D01*
X49146431Y9682731D01*
X49064250Y9521441D01*
X49008316Y9349290D01*
X48989423Y9230000D01*
X48631244Y9230000D01*
X48613710Y9318148D01*
X48600130Y9386420D01*
X48520941Y9577598D01*
X48405977Y9749655D01*
X48259655Y9895977D01*
X48087598Y10010941D01*
X48087599Y10010941D01*
X48087597Y10010942D01*
X47896418Y10090131D01*
X47693467Y10130500D01*
X47693465Y10130500D01*
X47486535Y10130500D01*
X47486532Y10130500D01*
X47283581Y10090131D01*
X47092402Y10010942D01*
X46920348Y9895980D01*
X46774020Y9749652D01*
X46659058Y9577598D01*
X46579869Y9386419D01*
X46539500Y9183468D01*
X5460499Y9183468D01*
X5420130Y9386420D01*
X5340941Y9577598D01*
X5225977Y9749655D01*
X5079655Y9895977D01*
X4907598Y10010941D01*
X4907599Y10010941D01*
X4907597Y10010942D01*
X4716418Y10090131D01*
X4513467Y10130500D01*
X4513465Y10130500D01*
X4306535Y10130500D01*
X4306532Y10130500D01*
X4103581Y10090131D01*
X3912402Y10010942D01*
X3740348Y9895980D01*
X3594020Y9749652D01*
X3479058Y9577598D01*
X3399869Y9386419D01*
X3359500Y9183468D01*
X2359914Y9183468D01*
X2347445Y9230000D01*
X3010577Y9230000D01*
X3010577Y9230001D01*
X2991683Y9349290D01*
X2935749Y9521441D01*
X2853568Y9682731D01*
X2853566Y9682735D01*
X2747175Y9829170D01*
X2619169Y9957176D01*
X2472734Y10063567D01*
X2472730Y10063569D01*
X2311440Y10145750D01*
X2139290Y10201684D01*
X2020000Y10220578D01*
X2020000Y9557446D01*
X1935826Y9580000D01*
X1804174Y9580000D01*
X1720000Y9557446D01*
X1720000Y10220578D01*
X1719999Y10220578D01*
X1600709Y10201684D01*
X1428559Y10145750D01*
X1267269Y10063569D01*
X1267265Y10063567D01*
X1120830Y9957176D01*
X992824Y9829170D01*
X886433Y9682735D01*
X886431Y9682731D01*
X804250Y9521441D01*
X748316Y9349290D01*
X729423Y9230000D01*
X500000Y9230000D01*
X500000Y11770000D01*
X729423Y11770000D01*
X1392555Y11770000D01*
X1370000Y11685826D01*
X1370000Y11554174D01*
X1392555Y11470000D01*
X729423Y11470000D01*
X748316Y11350711D01*
X804250Y11178560D01*
X886431Y11017270D01*
X886433Y11017266D01*
X992824Y10870831D01*
X1120830Y10742825D01*
X1267265Y10636434D01*
X1267269Y10636432D01*
X1428559Y10554251D01*
X1600710Y10498317D01*
X1720000Y10479423D01*
X1720000Y11142555D01*
X1804174Y11120000D01*
X1935826Y11120000D01*
X2020000Y11142555D01*
X2020000Y10479424D01*
X2139289Y10498317D01*
X2311440Y10554251D01*
X2472730Y10636432D01*
X2472734Y10636434D01*
X2619169Y10742825D01*
X2747175Y10870831D01*
X2853566Y11017266D01*
X2853568Y11017270D01*
X2935749Y11178560D01*
X2991683Y11350711D01*
X3010577Y11470000D01*
X2347445Y11470000D01*
X2370000Y11554174D01*
X2370000Y11685826D01*
X2359914Y11723468D01*
X3359500Y11723468D01*
X3359500Y11516533D01*
X3399869Y11313582D01*
X3479058Y11122403D01*
X3479059Y11122402D01*
X3594023Y10950345D01*
X3740345Y10804023D01*
X3912402Y10689059D01*
X4103580Y10609870D01*
X4306535Y10569500D01*
X4306536Y10569500D01*
X4513464Y10569500D01*
X4513465Y10569500D01*
X4716420Y10609870D01*
X4907598Y10689059D01*
X5079655Y10804023D01*
X5225977Y10950345D01*
X5340941Y11122402D01*
X5420130Y11313580D01*
X5460500Y11516535D01*
X5460500Y11723465D01*
X5460499Y11723468D01*
X46539500Y11723468D01*
X46539500Y11516533D01*
X46579869Y11313582D01*
X46659058Y11122403D01*
X46659059Y11122402D01*
X46774023Y10950345D01*
X46920345Y10804023D01*
X47092402Y10689059D01*
X47283580Y10609870D01*
X47486535Y10569500D01*
X47486536Y10569500D01*
X47693464Y10569500D01*
X47693465Y10569500D01*
X47896420Y10609870D01*
X48087598Y10689059D01*
X48259655Y10804023D01*
X48405977Y10950345D01*
X48520941Y11122402D01*
X48600130Y11313580D01*
X48627290Y11450126D01*
X48640499Y11516529D01*
X48640499Y11516532D01*
X48640500Y11516535D01*
X48640500Y11723465D01*
X48640499Y11723467D01*
X48640499Y11723472D01*
X48631244Y11770000D01*
X48989423Y11770000D01*
X49652555Y11770000D01*
X49630000Y11685826D01*
X49630000Y11554174D01*
X49652555Y11470000D01*
X48989423Y11470000D01*
X49008316Y11350711D01*
X49064250Y11178560D01*
X49146431Y11017270D01*
X49146433Y11017266D01*
X49252824Y10870831D01*
X49380830Y10742825D01*
X49527265Y10636434D01*
X49527269Y10636432D01*
X49688559Y10554251D01*
X49860710Y10498317D01*
X49980000Y10479423D01*
X49980000Y11142555D01*
X50064174Y11120000D01*
X50195826Y11120000D01*
X50280000Y11142555D01*
X50280000Y10479424D01*
X50399289Y10498317D01*
X50571440Y10554251D01*
X50732730Y10636432D01*
X50732734Y10636434D01*
X50879169Y10742825D01*
X51007175Y10870831D01*
X51113566Y11017266D01*
X51113568Y11017270D01*
X51195749Y11178560D01*
X51251683Y11350711D01*
X51270577Y11470000D01*
X50607445Y11470000D01*
X50630000Y11554174D01*
X50630000Y11685826D01*
X50607445Y11770000D01*
X51270577Y11770000D01*
X51251683Y11889290D01*
X51195749Y12061441D01*
X51113568Y12222731D01*
X51113566Y12222735D01*
X51007175Y12369170D01*
X50879169Y12497176D01*
X50732734Y12603567D01*
X50732730Y12603569D01*
X50571440Y12685750D01*
X50399290Y12741684D01*
X50280000Y12760578D01*
X50280000Y12097446D01*
X50195826Y12120000D01*
X50064174Y12120000D01*
X49980000Y12097446D01*
X49980000Y12760578D01*
X49979999Y12760578D01*
X49860709Y12741684D01*
X49688559Y12685750D01*
X49527269Y12603569D01*
X49527265Y12603567D01*
X49380830Y12497176D01*
X49252824Y12369170D01*
X49146433Y12222735D01*
X49146431Y12222731D01*
X49064250Y12061441D01*
X49008316Y11889290D01*
X48989423Y11770000D01*
X48631244Y11770000D01*
X48613710Y11858148D01*
X48600130Y11926420D01*
X48520941Y12117598D01*
X48405977Y12289655D01*
X48259655Y12435977D01*
X48087598Y12550941D01*
X48087599Y12550941D01*
X48087597Y12550942D01*
X47896418Y12630131D01*
X47693467Y12670500D01*
X47693465Y12670500D01*
X47486535Y12670500D01*
X47486532Y12670500D01*
X47283581Y12630131D01*
X47092402Y12550942D01*
X46920348Y12435980D01*
X46774020Y12289652D01*
X46659058Y12117598D01*
X46579869Y11926419D01*
X46539500Y11723468D01*
X5460499Y11723468D01*
X5420130Y11926420D01*
X5340941Y12117598D01*
X5225977Y12289655D01*
X5079655Y12435977D01*
X4907598Y12550941D01*
X4907599Y12550941D01*
X4907597Y12550942D01*
X4716418Y12630131D01*
X4513467Y12670500D01*
X4513465Y12670500D01*
X4306535Y12670500D01*
X4306532Y12670500D01*
X4103581Y12630131D01*
X3912402Y12550942D01*
X3740348Y12435980D01*
X3594020Y12289652D01*
X3479058Y12117598D01*
X3399869Y11926419D01*
X3359500Y11723468D01*
X2359914Y11723468D01*
X2347445Y11770000D01*
X3010577Y11770000D01*
X3010577Y11770001D01*
X2991683Y11889290D01*
X2935749Y12061441D01*
X2853568Y12222731D01*
X2853566Y12222735D01*
X2747175Y12369170D01*
X2619169Y12497176D01*
X2472734Y12603567D01*
X2472730Y12603569D01*
X2311440Y12685750D01*
X2139290Y12741684D01*
X2020000Y12760578D01*
X2020000Y12097446D01*
X1935826Y12120000D01*
X1804174Y12120000D01*
X1720000Y12097446D01*
X1720000Y12760578D01*
X1719999Y12760578D01*
X1600709Y12741684D01*
X1428559Y12685750D01*
X1267269Y12603569D01*
X1267265Y12603567D01*
X1120830Y12497176D01*
X992824Y12369170D01*
X886433Y12222735D01*
X886431Y12222731D01*
X804250Y12061441D01*
X748316Y11889290D01*
X729423Y11770000D01*
X500000Y11770000D01*
X500000Y14310000D01*
X729423Y14310000D01*
X1392555Y14310000D01*
X1370000Y14225826D01*
X1370000Y14094174D01*
X1392555Y14010000D01*
X729423Y14010000D01*
X748316Y13890711D01*
X804250Y13718560D01*
X886431Y13557270D01*
X886433Y13557266D01*
X992824Y13410831D01*
X1120830Y13282825D01*
X1267265Y13176434D01*
X1267269Y13176432D01*
X1428559Y13094251D01*
X1600710Y13038317D01*
X1720000Y13019423D01*
X1720000Y13682555D01*
X1804174Y13660000D01*
X1935826Y13660000D01*
X2020000Y13682555D01*
X2020000Y13019424D01*
X2139289Y13038317D01*
X2311440Y13094251D01*
X2472730Y13176432D01*
X2472734Y13176434D01*
X2619169Y13282825D01*
X2747175Y13410831D01*
X2853566Y13557266D01*
X2853568Y13557270D01*
X2935749Y13718560D01*
X2991683Y13890711D01*
X3010577Y14010000D01*
X2347445Y14010000D01*
X2370000Y14094174D01*
X2370000Y14225826D01*
X2359914Y14263468D01*
X3359500Y14263468D01*
X3359500Y14056533D01*
X3399869Y13853582D01*
X3479058Y13662403D01*
X3479059Y13662402D01*
X3594023Y13490345D01*
X3740345Y13344023D01*
X3912402Y13229059D01*
X4103580Y13149870D01*
X4306535Y13109500D01*
X4306536Y13109500D01*
X4513464Y13109500D01*
X4513465Y13109500D01*
X4716420Y13149870D01*
X4907598Y13229059D01*
X5079655Y13344023D01*
X5225977Y13490345D01*
X5340941Y13662402D01*
X5420130Y13853580D01*
X5460500Y14056535D01*
X5460500Y14263465D01*
X5460499Y14263468D01*
X46539500Y14263468D01*
X46539500Y14056533D01*
X46579869Y13853582D01*
X46659058Y13662403D01*
X46659059Y13662402D01*
X46774023Y13490345D01*
X46920345Y13344023D01*
X47092402Y13229059D01*
X47283580Y13149870D01*
X47486535Y13109500D01*
X47486536Y13109500D01*
X47693464Y13109500D01*
X47693465Y13109500D01*
X47896420Y13149870D01*
X48087598Y13229059D01*
X48259655Y13344023D01*
X48405977Y13490345D01*
X48520941Y13662402D01*
X48600130Y13853580D01*
X48627290Y13990126D01*
X48640499Y14056529D01*
X48640499Y14056532D01*
X48640500Y14056535D01*
X48640500Y14263465D01*
X48640499Y14263467D01*
X48640499Y14263472D01*
X48631244Y14310000D01*
X48989423Y14310000D01*
X49652555Y14310000D01*
X49630000Y14225826D01*
X49630000Y14094174D01*
X49652555Y14010000D01*
X48989423Y14010000D01*
X49008316Y13890711D01*
X49064250Y13718560D01*
X49146431Y13557270D01*
X49146433Y13557266D01*
X49252824Y13410831D01*
X49380830Y13282825D01*
X49527265Y13176434D01*
X49527269Y13176432D01*
X49688559Y13094251D01*
X49860710Y13038317D01*
X49980000Y13019423D01*
X49980000Y13682555D01*
X50064174Y13660000D01*
X50195826Y13660000D01*
X50280000Y13682555D01*
X50280000Y13019424D01*
X50399289Y13038317D01*
X50571440Y13094251D01*
X50732730Y13176432D01*
X50732734Y13176434D01*
X50879169Y13282825D01*
X51007175Y13410831D01*
X51113566Y13557266D01*
X51113568Y13557270D01*
X51195749Y13718560D01*
X51251683Y13890711D01*
X51270577Y14010000D01*
X50607445Y14010000D01*
X50630000Y14094174D01*
X50630000Y14225826D01*
X50607445Y14310000D01*
X51270577Y14310000D01*
X51251683Y14429290D01*
X51195749Y14601441D01*
X51113568Y14762731D01*
X51113566Y14762735D01*
X51007175Y14909170D01*
X50879169Y15037176D01*
X50732734Y15143567D01*
X50732730Y15143569D01*
X50571440Y15225750D01*
X50399290Y15281684D01*
X50280000Y15300578D01*
X50280000Y14637446D01*
X50195826Y14660000D01*
X50064174Y14660000D01*
X49980000Y14637446D01*
X49980000Y15300578D01*
X49979999Y15300578D01*
X49860709Y15281684D01*
X49688559Y15225750D01*
X49527269Y15143569D01*
X49527265Y15143567D01*
X49380830Y15037176D01*
X49252824Y14909170D01*
X49146433Y14762735D01*
X49146431Y14762731D01*
X49064250Y14601441D01*
X49008316Y14429290D01*
X48989423Y14310000D01*
X48631244Y14310000D01*
X48613710Y14398148D01*
X48600130Y14466420D01*
X48520941Y14657598D01*
X48405977Y14829655D01*
X48259655Y14975977D01*
X48087598Y15090941D01*
X48087599Y15090941D01*
X48087597Y15090942D01*
X47896418Y15170131D01*
X47693467Y15210500D01*
X47693465Y15210500D01*
X47486535Y15210500D01*
X47486532Y15210500D01*
X47283581Y15170131D01*
X47092402Y15090942D01*
X46920348Y14975980D01*
X46774020Y14829652D01*
X46659058Y14657598D01*
X46579869Y14466419D01*
X46539500Y14263468D01*
X5460499Y14263468D01*
X5420130Y14466420D01*
X5340941Y14657598D01*
X5225977Y14829655D01*
X5079655Y14975977D01*
X4907598Y15090941D01*
X4907599Y15090941D01*
X4907597Y15090942D01*
X4716418Y15170131D01*
X4513467Y15210500D01*
X4513465Y15210500D01*
X4306535Y15210500D01*
X4306532Y15210500D01*
X4103581Y15170131D01*
X3912402Y15090942D01*
X3740348Y14975980D01*
X3594020Y14829652D01*
X3479058Y14657598D01*
X3399869Y14466419D01*
X3359500Y14263468D01*
X2359914Y14263468D01*
X2347445Y14310000D01*
X3010577Y14310000D01*
X3010577Y14310001D01*
X2991683Y14429290D01*
X2935749Y14601441D01*
X2853568Y14762731D01*
X2853566Y14762735D01*
X2747175Y14909170D01*
X2619169Y15037176D01*
X2472734Y15143567D01*
X2472730Y15143569D01*
X2311440Y15225750D01*
X2139290Y15281684D01*
X2020000Y15300578D01*
X2020000Y14637446D01*
X1935826Y14660000D01*
X1804174Y14660000D01*
X1720000Y14637446D01*
X1720000Y15300578D01*
X1719999Y15300578D01*
X1600709Y15281684D01*
X1428559Y15225750D01*
X1267269Y15143569D01*
X1267265Y15143567D01*
X1120830Y15037176D01*
X992824Y14909170D01*
X886433Y14762735D01*
X886431Y14762731D01*
X804250Y14601441D01*
X748316Y14429290D01*
X729423Y14310000D01*
X500000Y14310000D01*
X500000Y16850000D01*
X729423Y16850000D01*
X1392555Y16850000D01*
X1370000Y16765826D01*
X1370000Y16634174D01*
X1392555Y16550000D01*
X729423Y16550000D01*
X748316Y16430711D01*
X804250Y16258560D01*
X886431Y16097270D01*
X886433Y16097266D01*
X992824Y15950831D01*
X1120830Y15822825D01*
X1267265Y15716434D01*
X1267269Y15716432D01*
X1428559Y15634251D01*
X1600710Y15578317D01*
X1720000Y15559423D01*
X1720000Y16222555D01*
X1804174Y16200000D01*
X1935826Y16200000D01*
X2020000Y16222555D01*
X2020000Y15559424D01*
X2139289Y15578317D01*
X2311440Y15634251D01*
X2472730Y15716432D01*
X2472734Y15716434D01*
X2619169Y15822825D01*
X2747175Y15950831D01*
X2853566Y16097266D01*
X2853568Y16097270D01*
X2935749Y16258560D01*
X2991683Y16430711D01*
X3010577Y16550000D01*
X2347445Y16550000D01*
X2370000Y16634174D01*
X2370000Y16765826D01*
X2359914Y16803468D01*
X3359500Y16803468D01*
X3359500Y16596533D01*
X3399869Y16393582D01*
X3479058Y16202403D01*
X3479059Y16202402D01*
X3594023Y16030345D01*
X3740345Y15884023D01*
X3912402Y15769059D01*
X4103580Y15689870D01*
X4306535Y15649500D01*
X4306536Y15649500D01*
X4513464Y15649500D01*
X4513465Y15649500D01*
X4716420Y15689870D01*
X4907598Y15769059D01*
X5079655Y15884023D01*
X5225977Y16030345D01*
X5340941Y16202402D01*
X5420130Y16393580D01*
X5460500Y16596535D01*
X5460500Y16803465D01*
X5460499Y16803468D01*
X46539500Y16803468D01*
X46539500Y16596533D01*
X46579869Y16393582D01*
X46659058Y16202403D01*
X46659059Y16202402D01*
X46774023Y16030345D01*
X46920345Y15884023D01*
X47092402Y15769059D01*
X47283580Y15689870D01*
X47486535Y15649500D01*
X47486536Y15649500D01*
X47693464Y15649500D01*
X47693465Y15649500D01*
X47896420Y15689870D01*
X48087598Y15769059D01*
X48259655Y15884023D01*
X48405977Y16030345D01*
X48520941Y16202402D01*
X48600130Y16393580D01*
X48627290Y16530126D01*
X48640499Y16596529D01*
X48640499Y16596532D01*
X48640500Y16596535D01*
X48640500Y16803465D01*
X48640499Y16803467D01*
X48640499Y16803472D01*
X48631244Y16850000D01*
X48989423Y16850000D01*
X49652555Y16850000D01*
X49630000Y16765826D01*
X49630000Y16634174D01*
X49652555Y16550000D01*
X48989423Y16550000D01*
X49008316Y16430711D01*
X49064250Y16258560D01*
X49146431Y16097270D01*
X49146433Y16097266D01*
X49252824Y15950831D01*
X49380830Y15822825D01*
X49527265Y15716434D01*
X49527269Y15716432D01*
X49688559Y15634251D01*
X49860710Y15578317D01*
X49980000Y15559423D01*
X49980000Y16222555D01*
X50064174Y16200000D01*
X50195826Y16200000D01*
X50280000Y16222555D01*
X50280000Y15559424D01*
X50399289Y15578317D01*
X50571440Y15634251D01*
X50732730Y15716432D01*
X50732734Y15716434D01*
X50879169Y15822825D01*
X51007175Y15950831D01*
X51113566Y16097266D01*
X51113568Y16097270D01*
X51195749Y16258560D01*
X51251683Y16430711D01*
X51270577Y16550000D01*
X50607445Y16550000D01*
X50630000Y16634174D01*
X50630000Y16765826D01*
X50607445Y16850000D01*
X51270577Y16850000D01*
X51251683Y16969290D01*
X51195749Y17141441D01*
X51113568Y17302731D01*
X51113566Y17302735D01*
X51007175Y17449170D01*
X50879169Y17577176D01*
X50732734Y17683567D01*
X50732730Y17683569D01*
X50571440Y17765750D01*
X50399290Y17821684D01*
X50280000Y17840578D01*
X50280000Y17177446D01*
X50195826Y17200000D01*
X50064174Y17200000D01*
X49980000Y17177446D01*
X49980000Y17840578D01*
X49979999Y17840578D01*
X49860709Y17821684D01*
X49688559Y17765750D01*
X49527269Y17683569D01*
X49527265Y17683567D01*
X49380830Y17577176D01*
X49252824Y17449170D01*
X49146433Y17302735D01*
X49146431Y17302731D01*
X49064250Y17141441D01*
X49008316Y16969290D01*
X48989423Y16850000D01*
X48631244Y16850000D01*
X48613710Y16938148D01*
X48600130Y17006420D01*
X48520941Y17197598D01*
X48405977Y17369655D01*
X48259655Y17515977D01*
X48087598Y17630941D01*
X48087599Y17630941D01*
X48087597Y17630942D01*
X47896418Y17710131D01*
X47693467Y17750500D01*
X47693465Y17750500D01*
X47486535Y17750500D01*
X47486532Y17750500D01*
X47283581Y17710131D01*
X47092402Y17630942D01*
X46920348Y17515980D01*
X46774020Y17369652D01*
X46659058Y17197598D01*
X46579869Y17006419D01*
X46539500Y16803468D01*
X5460499Y16803468D01*
X5420130Y17006420D01*
X5340941Y17197598D01*
X5225977Y17369655D01*
X5079655Y17515977D01*
X4907598Y17630941D01*
X4907599Y17630941D01*
X4907597Y17630942D01*
X4716418Y17710131D01*
X4513467Y17750500D01*
X4513465Y17750500D01*
X4306535Y17750500D01*
X4306532Y17750500D01*
X4103581Y17710131D01*
X3912402Y17630942D01*
X3740348Y17515980D01*
X3594020Y17369652D01*
X3479058Y17197598D01*
X3399869Y17006419D01*
X3359500Y16803468D01*
X2359914Y16803468D01*
X2347445Y16850000D01*
X3010577Y16850000D01*
X3010577Y16850001D01*
X2991683Y16969290D01*
X2935749Y17141441D01*
X2853568Y17302731D01*
X2853566Y17302735D01*
X2747175Y17449170D01*
X2619169Y17577176D01*
X2472734Y17683567D01*
X2472730Y17683569D01*
X2311440Y17765750D01*
X2139290Y17821684D01*
X2020000Y17840578D01*
X2020000Y17177446D01*
X1935826Y17200000D01*
X1804174Y17200000D01*
X1720000Y17177446D01*
X1720000Y17840578D01*
X1719999Y17840578D01*
X1600709Y17821684D01*
X1428559Y17765750D01*
X1267269Y17683569D01*
X1267265Y17683567D01*
X1120830Y17577176D01*
X992824Y17449170D01*
X886433Y17302735D01*
X886431Y17302731D01*
X804250Y17141441D01*
X748316Y16969290D01*
X729423Y16850000D01*
X500000Y16850000D01*
X500000Y19390000D01*
X729423Y19390000D01*
X1392555Y19390000D01*
X1370000Y19305826D01*
X1370000Y19174174D01*
X1392555Y19090000D01*
X729423Y19090000D01*
X748316Y18970711D01*
X804250Y18798560D01*
X886431Y18637270D01*
X886433Y18637266D01*
X992824Y18490831D01*
X1120830Y18362825D01*
X1267265Y18256434D01*
X1267269Y18256432D01*
X1428559Y18174251D01*
X1600710Y18118317D01*
X1720000Y18099423D01*
X1720000Y18762555D01*
X1804174Y18740000D01*
X1935826Y18740000D01*
X2020000Y18762555D01*
X2020000Y18099424D01*
X2139289Y18118317D01*
X2311440Y18174251D01*
X2472730Y18256432D01*
X2472734Y18256434D01*
X2619169Y18362825D01*
X2747175Y18490831D01*
X2853566Y18637266D01*
X2853568Y18637270D01*
X2935749Y18798560D01*
X2991683Y18970711D01*
X3010577Y19090000D01*
X2347445Y19090000D01*
X2370000Y19174174D01*
X2370000Y19305826D01*
X2359914Y19343468D01*
X3359500Y19343468D01*
X3359500Y19136533D01*
X3399869Y18933582D01*
X3479058Y18742403D01*
X3479059Y18742402D01*
X3594023Y18570345D01*
X3740345Y18424023D01*
X3912402Y18309059D01*
X4103580Y18229870D01*
X4306535Y18189500D01*
X4306536Y18189500D01*
X4513464Y18189500D01*
X4513465Y18189500D01*
X4716420Y18229870D01*
X4907598Y18309059D01*
X5079655Y18424023D01*
X5225977Y18570345D01*
X5340941Y18742402D01*
X5420130Y18933580D01*
X5460500Y19136535D01*
X5460500Y19343465D01*
X5460499Y19343468D01*
X46539500Y19343468D01*
X46539500Y19136533D01*
X46579869Y18933582D01*
X46659058Y18742403D01*
X46659059Y18742402D01*
X46774023Y18570345D01*
X46920345Y18424023D01*
X47092402Y18309059D01*
X47283580Y18229870D01*
X47486535Y18189500D01*
X47486536Y18189500D01*
X47693464Y18189500D01*
X47693465Y18189500D01*
X47896420Y18229870D01*
X48087598Y18309059D01*
X48259655Y18424023D01*
X48405977Y18570345D01*
X48520941Y18742402D01*
X48600130Y18933580D01*
X48627290Y19070126D01*
X48640499Y19136529D01*
X48640499Y19136532D01*
X48640500Y19136535D01*
X48640500Y19343465D01*
X48640499Y19343467D01*
X48640499Y19343472D01*
X48631244Y19390000D01*
X48989423Y19390000D01*
X49652555Y19390000D01*
X49630000Y19305826D01*
X49630000Y19174174D01*
X49652555Y19090000D01*
X48989423Y19090000D01*
X49008316Y18970711D01*
X49064250Y18798560D01*
X49146431Y18637270D01*
X49146433Y18637266D01*
X49252824Y18490831D01*
X49380830Y18362825D01*
X49527265Y18256434D01*
X49527269Y18256432D01*
X49688559Y18174251D01*
X49860710Y18118317D01*
X49980000Y18099423D01*
X49980000Y18762555D01*
X50064174Y18740000D01*
X50195826Y18740000D01*
X50280000Y18762555D01*
X50280000Y18099424D01*
X50399289Y18118317D01*
X50571440Y18174251D01*
X50732730Y18256432D01*
X50732734Y18256434D01*
X50879169Y18362825D01*
X51007175Y18490831D01*
X51113566Y18637266D01*
X51113568Y18637270D01*
X51195749Y18798560D01*
X51251683Y18970711D01*
X51270577Y19090000D01*
X50607445Y19090000D01*
X50630000Y19174174D01*
X50630000Y19305826D01*
X50607445Y19390000D01*
X51270577Y19390000D01*
X51251683Y19509290D01*
X51195749Y19681441D01*
X51113568Y19842731D01*
X51113566Y19842735D01*
X51007175Y19989170D01*
X50879169Y20117176D01*
X50732734Y20223567D01*
X50732730Y20223569D01*
X50571440Y20305750D01*
X50399290Y20361684D01*
X50280000Y20380578D01*
X50280000Y19717446D01*
X50195826Y19740000D01*
X50064174Y19740000D01*
X49980000Y19717446D01*
X49980000Y20380578D01*
X49979999Y20380578D01*
X49860709Y20361684D01*
X49688559Y20305750D01*
X49527269Y20223569D01*
X49527265Y20223567D01*
X49380830Y20117176D01*
X49252824Y19989170D01*
X49146433Y19842735D01*
X49146431Y19842731D01*
X49064250Y19681441D01*
X49008316Y19509290D01*
X48989423Y19390000D01*
X48631244Y19390000D01*
X48613710Y19478148D01*
X48600130Y19546420D01*
X48520941Y19737598D01*
X48405977Y19909655D01*
X48259655Y20055977D01*
X48087598Y20170941D01*
X48087599Y20170941D01*
X48087597Y20170942D01*
X47896418Y20250131D01*
X47693467Y20290500D01*
X47693465Y20290500D01*
X47486535Y20290500D01*
X47486532Y20290500D01*
X47283581Y20250131D01*
X47092402Y20170942D01*
X46920348Y20055980D01*
X46774020Y19909652D01*
X46659058Y19737598D01*
X46579869Y19546419D01*
X46539500Y19343468D01*
X5460499Y19343468D01*
X5420130Y19546420D01*
X5340941Y19737598D01*
X5225977Y19909655D01*
X5079655Y20055977D01*
X4907598Y20170941D01*
X4907599Y20170941D01*
X4907597Y20170942D01*
X4716418Y20250131D01*
X4513467Y20290500D01*
X4513465Y20290500D01*
X4306535Y20290500D01*
X4306532Y20290500D01*
X4103581Y20250131D01*
X3912402Y20170942D01*
X3740348Y20055980D01*
X3594020Y19909652D01*
X3479058Y19737598D01*
X3399869Y19546419D01*
X3359500Y19343468D01*
X2359914Y19343468D01*
X2347445Y19390000D01*
X3010577Y19390000D01*
X3010577Y19390001D01*
X2991683Y19509290D01*
X2935749Y19681441D01*
X2853568Y19842731D01*
X2853566Y19842735D01*
X2747175Y19989170D01*
X2619169Y20117176D01*
X2472734Y20223567D01*
X2472730Y20223569D01*
X2311440Y20305750D01*
X2139290Y20361684D01*
X2020000Y20380578D01*
X2020000Y19717446D01*
X1935826Y19740000D01*
X1804174Y19740000D01*
X1720000Y19717446D01*
X1720000Y20380578D01*
X1719999Y20380578D01*
X1600709Y20361684D01*
X1428559Y20305750D01*
X1267269Y20223569D01*
X1267265Y20223567D01*
X1120830Y20117176D01*
X992824Y19989170D01*
X886433Y19842735D01*
X886431Y19842731D01*
X804250Y19681441D01*
X748316Y19509290D01*
X729423Y19390000D01*
X500000Y19390000D01*
X500000Y21930000D01*
X729423Y21930000D01*
X1392555Y21930000D01*
X1370000Y21845826D01*
X1370000Y21714174D01*
X1392555Y21630000D01*
X729423Y21630000D01*
X748316Y21510711D01*
X804250Y21338560D01*
X886431Y21177270D01*
X886433Y21177266D01*
X992824Y21030831D01*
X1120830Y20902825D01*
X1267265Y20796434D01*
X1267269Y20796432D01*
X1428559Y20714251D01*
X1600710Y20658317D01*
X1720000Y20639423D01*
X1720000Y21302555D01*
X1804174Y21280000D01*
X1935826Y21280000D01*
X2020000Y21302555D01*
X2020000Y20639424D01*
X2139289Y20658317D01*
X2311440Y20714251D01*
X2472730Y20796432D01*
X2472734Y20796434D01*
X2619169Y20902825D01*
X2747175Y21030831D01*
X2853566Y21177266D01*
X2853568Y21177270D01*
X2935749Y21338560D01*
X2991683Y21510711D01*
X3010577Y21630000D01*
X2347445Y21630000D01*
X2370000Y21714174D01*
X2370000Y21845826D01*
X2359914Y21883468D01*
X3359500Y21883468D01*
X3359500Y21676533D01*
X3399869Y21473582D01*
X3479058Y21282403D01*
X3479059Y21282402D01*
X3594023Y21110345D01*
X3740345Y20964023D01*
X3912402Y20849059D01*
X4103580Y20769870D01*
X4306535Y20729500D01*
X4306536Y20729500D01*
X4513464Y20729500D01*
X4513465Y20729500D01*
X4716420Y20769870D01*
X4907598Y20849059D01*
X5079655Y20964023D01*
X5225977Y21110345D01*
X5340941Y21282402D01*
X5420130Y21473580D01*
X5460500Y21676535D01*
X5460500Y21883465D01*
X5460499Y21883468D01*
X46539500Y21883468D01*
X46539500Y21676533D01*
X46579869Y21473582D01*
X46659058Y21282403D01*
X46659059Y21282402D01*
X46774023Y21110345D01*
X46920345Y20964023D01*
X47092402Y20849059D01*
X47283580Y20769870D01*
X47486535Y20729500D01*
X47486536Y20729500D01*
X47693464Y20729500D01*
X47693465Y20729500D01*
X47896420Y20769870D01*
X48087598Y20849059D01*
X48259655Y20964023D01*
X48405977Y21110345D01*
X48520941Y21282402D01*
X48600130Y21473580D01*
X48627290Y21610126D01*
X48640499Y21676529D01*
X48640499Y21676532D01*
X48640500Y21676535D01*
X48640500Y21883465D01*
X48640499Y21883467D01*
X48640499Y21883472D01*
X48631244Y21930000D01*
X48989423Y21930000D01*
X49652555Y21930000D01*
X49630000Y21845826D01*
X49630000Y21714174D01*
X49652555Y21630000D01*
X48989423Y21630000D01*
X49008316Y21510711D01*
X49064250Y21338560D01*
X49146431Y21177270D01*
X49146433Y21177266D01*
X49252824Y21030831D01*
X49380830Y20902825D01*
X49527265Y20796434D01*
X49527269Y20796432D01*
X49688559Y20714251D01*
X49860710Y20658317D01*
X49980000Y20639423D01*
X49980000Y21302555D01*
X50064174Y21280000D01*
X50195826Y21280000D01*
X50280000Y21302555D01*
X50280000Y20639424D01*
X50399289Y20658317D01*
X50571440Y20714251D01*
X50732730Y20796432D01*
X50732734Y20796434D01*
X50879169Y20902825D01*
X51007175Y21030831D01*
X51113566Y21177266D01*
X51113568Y21177270D01*
X51195749Y21338560D01*
X51251683Y21510711D01*
X51270577Y21630000D01*
X50607445Y21630000D01*
X50630000Y21714174D01*
X50630000Y21845826D01*
X50607445Y21930000D01*
X51270577Y21930000D01*
X51251683Y22049290D01*
X51195749Y22221441D01*
X51113568Y22382731D01*
X51113566Y22382735D01*
X51007175Y22529170D01*
X50879169Y22657176D01*
X50732734Y22763567D01*
X50732730Y22763569D01*
X50571440Y22845750D01*
X50399290Y22901684D01*
X50280000Y22920578D01*
X50280000Y22257446D01*
X50195826Y22280000D01*
X50064174Y22280000D01*
X49980000Y22257446D01*
X49980000Y22920578D01*
X49979999Y22920578D01*
X49860709Y22901684D01*
X49688559Y22845750D01*
X49527269Y22763569D01*
X49527265Y22763567D01*
X49380830Y22657176D01*
X49252824Y22529170D01*
X49146433Y22382735D01*
X49146431Y22382731D01*
X49064250Y22221441D01*
X49008316Y22049290D01*
X48989423Y21930000D01*
X48631244Y21930000D01*
X48613710Y22018148D01*
X48600130Y22086420D01*
X48520941Y22277598D01*
X48405977Y22449655D01*
X48259655Y22595977D01*
X48087598Y22710941D01*
X48087599Y22710941D01*
X48087597Y22710942D01*
X47896418Y22790131D01*
X47693467Y22830500D01*
X47693465Y22830500D01*
X47486535Y22830500D01*
X47486532Y22830500D01*
X47283581Y22790131D01*
X47092402Y22710942D01*
X46920348Y22595980D01*
X46774020Y22449652D01*
X46659058Y22277598D01*
X46579869Y22086419D01*
X46539500Y21883468D01*
X5460499Y21883468D01*
X5420130Y22086420D01*
X5340941Y22277598D01*
X5225977Y22449655D01*
X5079655Y22595977D01*
X4907598Y22710941D01*
X4907599Y22710941D01*
X4907597Y22710942D01*
X4716418Y22790131D01*
X4513467Y22830500D01*
X4513465Y22830500D01*
X4306535Y22830500D01*
X4306532Y22830500D01*
X4103581Y22790131D01*
X3912402Y22710942D01*
X3740348Y22595980D01*
X3594020Y22449652D01*
X3479058Y22277598D01*
X3399869Y22086419D01*
X3359500Y21883468D01*
X2359914Y21883468D01*
X2347445Y21930000D01*
X3010577Y21930000D01*
X3010577Y21930001D01*
X2991683Y22049290D01*
X2935749Y22221441D01*
X2853568Y22382731D01*
X2853566Y22382735D01*
X2747175Y22529170D01*
X2619169Y22657176D01*
X2472734Y22763567D01*
X2472730Y22763569D01*
X2311440Y22845750D01*
X2139290Y22901684D01*
X2020000Y22920578D01*
X2020000Y22257446D01*
X1935826Y22280000D01*
X1804174Y22280000D01*
X1720000Y22257446D01*
X1720000Y22920578D01*
X1719999Y22920578D01*
X1600709Y22901684D01*
X1428559Y22845750D01*
X1267269Y22763569D01*
X1267265Y22763567D01*
X1120830Y22657176D01*
X992824Y22529170D01*
X886433Y22382735D01*
X886431Y22382731D01*
X804250Y22221441D01*
X748316Y22049290D01*
X729423Y21930000D01*
X500000Y21930000D01*
X500000Y24470000D01*
X729423Y24470000D01*
X1392555Y24470000D01*
X1370000Y24385826D01*
X1370000Y24254174D01*
X1392555Y24170000D01*
X729423Y24170000D01*
X748316Y24050711D01*
X804250Y23878560D01*
X886431Y23717270D01*
X886433Y23717266D01*
X992824Y23570831D01*
X1120830Y23442825D01*
X1267265Y23336434D01*
X1267269Y23336432D01*
X1428559Y23254251D01*
X1600710Y23198317D01*
X1720000Y23179423D01*
X1720000Y23842555D01*
X1804174Y23820000D01*
X1935826Y23820000D01*
X2020000Y23842555D01*
X2020000Y23179424D01*
X2139289Y23198317D01*
X2311440Y23254251D01*
X2472730Y23336432D01*
X2472734Y23336434D01*
X2619169Y23442825D01*
X2747175Y23570831D01*
X2853566Y23717266D01*
X2853568Y23717270D01*
X2935749Y23878560D01*
X2991683Y24050711D01*
X3010577Y24170000D01*
X2347445Y24170000D01*
X2370000Y24254174D01*
X2370000Y24385826D01*
X2359914Y24423468D01*
X3359500Y24423468D01*
X3359500Y24216533D01*
X3399869Y24013582D01*
X3479058Y23822403D01*
X3479059Y23822402D01*
X3594023Y23650345D01*
X3740345Y23504023D01*
X3912402Y23389059D01*
X4103580Y23309870D01*
X4306535Y23269500D01*
X4306536Y23269500D01*
X4513464Y23269500D01*
X4513465Y23269500D01*
X4716420Y23309870D01*
X4907598Y23389059D01*
X5079655Y23504023D01*
X5225977Y23650345D01*
X5340941Y23822402D01*
X5420130Y24013580D01*
X5460500Y24216535D01*
X5460500Y24423465D01*
X5460499Y24423468D01*
X46539500Y24423468D01*
X46539500Y24216533D01*
X46579869Y24013582D01*
X46659058Y23822403D01*
X46659059Y23822402D01*
X46774023Y23650345D01*
X46920345Y23504023D01*
X47092402Y23389059D01*
X47283580Y23309870D01*
X47486535Y23269500D01*
X47486536Y23269500D01*
X47693464Y23269500D01*
X47693465Y23269500D01*
X47896420Y23309870D01*
X48087598Y23389059D01*
X48259655Y23504023D01*
X48405977Y23650345D01*
X48520941Y23822402D01*
X48600130Y24013580D01*
X48627290Y24150126D01*
X48640499Y24216529D01*
X48640499Y24216532D01*
X48640500Y24216535D01*
X48640500Y24423465D01*
X48640499Y24423467D01*
X48640499Y24423472D01*
X48631244Y24470000D01*
X48989423Y24470000D01*
X49652555Y24470000D01*
X49630000Y24385826D01*
X49630000Y24254174D01*
X49652555Y24170000D01*
X48989423Y24170000D01*
X49008316Y24050711D01*
X49064250Y23878560D01*
X49146431Y23717270D01*
X49146433Y23717266D01*
X49252824Y23570831D01*
X49380830Y23442825D01*
X49527265Y23336434D01*
X49527269Y23336432D01*
X49688559Y23254251D01*
X49860710Y23198317D01*
X49980000Y23179423D01*
X49980000Y23842555D01*
X50064174Y23820000D01*
X50195826Y23820000D01*
X50280000Y23842555D01*
X50280000Y23179424D01*
X50399289Y23198317D01*
X50571440Y23254251D01*
X50732730Y23336432D01*
X50732734Y23336434D01*
X50879169Y23442825D01*
X51007175Y23570831D01*
X51113566Y23717266D01*
X51113568Y23717270D01*
X51195749Y23878560D01*
X51251683Y24050711D01*
X51270577Y24170000D01*
X50607445Y24170000D01*
X50630000Y24254174D01*
X50630000Y24385826D01*
X50607445Y24470000D01*
X51270577Y24470000D01*
X51251683Y24589290D01*
X51195749Y24761441D01*
X51113568Y24922731D01*
X51113566Y24922735D01*
X51007175Y25069170D01*
X50879169Y25197176D01*
X50732734Y25303567D01*
X50732730Y25303569D01*
X50571440Y25385750D01*
X50399290Y25441684D01*
X50280000Y25460578D01*
X50280000Y24797446D01*
X50195826Y24820000D01*
X50064174Y24820000D01*
X49980000Y24797446D01*
X49980000Y25460578D01*
X49979999Y25460578D01*
X49860709Y25441684D01*
X49688559Y25385750D01*
X49527269Y25303569D01*
X49527265Y25303567D01*
X49380830Y25197176D01*
X49252824Y25069170D01*
X49146433Y24922735D01*
X49146431Y24922731D01*
X49064250Y24761441D01*
X49008316Y24589290D01*
X48989423Y24470000D01*
X48631244Y24470000D01*
X48613710Y24558148D01*
X48600130Y24626420D01*
X48520941Y24817598D01*
X48405977Y24989655D01*
X48259655Y25135977D01*
X48087598Y25250941D01*
X48087599Y25250941D01*
X48087597Y25250942D01*
X47896418Y25330131D01*
X47693467Y25370500D01*
X47693465Y25370500D01*
X47486535Y25370500D01*
X47486532Y25370500D01*
X47283581Y25330131D01*
X47092402Y25250942D01*
X46920348Y25135980D01*
X46774020Y24989652D01*
X46659058Y24817598D01*
X46579869Y24626419D01*
X46539500Y24423468D01*
X5460499Y24423468D01*
X5420130Y24626420D01*
X5340941Y24817598D01*
X5225977Y24989655D01*
X5079655Y25135977D01*
X4907598Y25250941D01*
X4907599Y25250941D01*
X4907597Y25250942D01*
X4716418Y25330131D01*
X4513467Y25370500D01*
X4513465Y25370500D01*
X4306535Y25370500D01*
X4306532Y25370500D01*
X4103581Y25330131D01*
X3912402Y25250942D01*
X3740348Y25135980D01*
X3594020Y24989652D01*
X3479058Y24817598D01*
X3399869Y24626419D01*
X3359500Y24423468D01*
X2359914Y24423468D01*
X2347445Y24470000D01*
X3010577Y24470000D01*
X3010577Y24470001D01*
X2991683Y24589290D01*
X2935749Y24761441D01*
X2853568Y24922731D01*
X2853566Y24922735D01*
X2747175Y25069170D01*
X2619169Y25197176D01*
X2472734Y25303567D01*
X2472730Y25303569D01*
X2311440Y25385750D01*
X2139290Y25441684D01*
X2020000Y25460578D01*
X2020000Y24797446D01*
X1935826Y24820000D01*
X1804174Y24820000D01*
X1720000Y24797446D01*
X1720000Y25460578D01*
X1719999Y25460578D01*
X1600709Y25441684D01*
X1428559Y25385750D01*
X1267269Y25303569D01*
X1267265Y25303567D01*
X1120830Y25197176D01*
X992824Y25069170D01*
X886433Y24922735D01*
X886431Y24922731D01*
X804250Y24761441D01*
X748316Y24589290D01*
X729423Y24470000D01*
X500000Y24470000D01*
X500000Y27010000D01*
X729423Y27010000D01*
X1392555Y27010000D01*
X1370000Y26925826D01*
X1370000Y26794174D01*
X1392555Y26710000D01*
X729423Y26710000D01*
X748316Y26590711D01*
X804250Y26418560D01*
X886431Y26257270D01*
X886433Y26257266D01*
X992824Y26110831D01*
X1120830Y25982825D01*
X1267265Y25876434D01*
X1267269Y25876432D01*
X1428559Y25794251D01*
X1600710Y25738317D01*
X1720000Y25719423D01*
X1720000Y26382555D01*
X1804174Y26360000D01*
X1935826Y26360000D01*
X2020000Y26382555D01*
X2020000Y25719424D01*
X2139289Y25738317D01*
X2311440Y25794251D01*
X2472730Y25876432D01*
X2472734Y25876434D01*
X2619169Y25982825D01*
X2747175Y26110831D01*
X2853566Y26257266D01*
X2853568Y26257270D01*
X2935749Y26418560D01*
X2991683Y26590711D01*
X3010577Y26710000D01*
X2347445Y26710000D01*
X2370000Y26794174D01*
X2370000Y26925826D01*
X2359914Y26963468D01*
X3359500Y26963468D01*
X3359500Y26756533D01*
X3399869Y26553582D01*
X3479058Y26362403D01*
X3479059Y26362402D01*
X3594023Y26190345D01*
X3740345Y26044023D01*
X3912402Y25929059D01*
X4103580Y25849870D01*
X4306535Y25809500D01*
X4306536Y25809500D01*
X4513464Y25809500D01*
X4513465Y25809500D01*
X4716420Y25849870D01*
X4907598Y25929059D01*
X5079655Y26044023D01*
X5225977Y26190345D01*
X5340941Y26362402D01*
X5420130Y26553580D01*
X5460500Y26756535D01*
X5460500Y26963465D01*
X5460499Y26963468D01*
X46539500Y26963468D01*
X46539500Y26756533D01*
X46579869Y26553582D01*
X46659058Y26362403D01*
X46659059Y26362402D01*
X46774023Y26190345D01*
X46920345Y26044023D01*
X47092402Y25929059D01*
X47283580Y25849870D01*
X47486535Y25809500D01*
X47486536Y25809500D01*
X47693464Y25809500D01*
X47693465Y25809500D01*
X47896420Y25849870D01*
X48087598Y25929059D01*
X48259655Y26044023D01*
X48405977Y26190345D01*
X48520941Y26362402D01*
X48600130Y26553580D01*
X48627290Y26690126D01*
X48640499Y26756529D01*
X48640499Y26756532D01*
X48640500Y26756535D01*
X48640500Y26963465D01*
X48640499Y26963467D01*
X48640499Y26963472D01*
X48631244Y27010000D01*
X48989423Y27010000D01*
X49652555Y27010000D01*
X49630000Y26925826D01*
X49630000Y26794174D01*
X49652555Y26710000D01*
X48989423Y26710000D01*
X49008316Y26590711D01*
X49064250Y26418560D01*
X49146431Y26257270D01*
X49146433Y26257266D01*
X49252824Y26110831D01*
X49380830Y25982825D01*
X49527265Y25876434D01*
X49527269Y25876432D01*
X49688559Y25794251D01*
X49860710Y25738317D01*
X49980000Y25719423D01*
X49980000Y26382555D01*
X50064174Y26360000D01*
X50195826Y26360000D01*
X50280000Y26382555D01*
X50280000Y25719424D01*
X50399289Y25738317D01*
X50571440Y25794251D01*
X50732730Y25876432D01*
X50732734Y25876434D01*
X50879169Y25982825D01*
X51007175Y26110831D01*
X51113566Y26257266D01*
X51113568Y26257270D01*
X51195749Y26418560D01*
X51251683Y26590711D01*
X51270577Y26710000D01*
X50607445Y26710000D01*
X50630000Y26794174D01*
X50630000Y26925826D01*
X50607445Y27010000D01*
X51270577Y27010000D01*
X51251683Y27129290D01*
X51195749Y27301441D01*
X51113568Y27462731D01*
X51113566Y27462735D01*
X51007175Y27609170D01*
X50879169Y27737176D01*
X50732734Y27843567D01*
X50732730Y27843569D01*
X50571440Y27925750D01*
X50399290Y27981684D01*
X50280000Y28000578D01*
X50280000Y27337446D01*
X50195826Y27360000D01*
X50064174Y27360000D01*
X49980000Y27337446D01*
X49980000Y28000578D01*
X49979999Y28000578D01*
X49860709Y27981684D01*
X49688559Y27925750D01*
X49527269Y27843569D01*
X49527265Y27843567D01*
X49380830Y27737176D01*
X49252824Y27609170D01*
X49146433Y27462735D01*
X49146431Y27462731D01*
X49064250Y27301441D01*
X49008316Y27129290D01*
X48989423Y27010000D01*
X48631244Y27010000D01*
X48613710Y27098148D01*
X48600130Y27166420D01*
X48520941Y27357598D01*
X48405977Y27529655D01*
X48259655Y27675977D01*
X48087598Y27790941D01*
X48087599Y27790941D01*
X48087597Y27790942D01*
X47896418Y27870131D01*
X47693467Y27910500D01*
X47693465Y27910500D01*
X47486535Y27910500D01*
X47486532Y27910500D01*
X47283581Y27870131D01*
X47092402Y27790942D01*
X46920348Y27675980D01*
X46774020Y27529652D01*
X46659058Y27357598D01*
X46579869Y27166419D01*
X46539500Y26963468D01*
X5460499Y26963468D01*
X5420130Y27166420D01*
X5340941Y27357598D01*
X5225977Y27529655D01*
X5079655Y27675977D01*
X4907598Y27790941D01*
X4907599Y27790941D01*
X4907597Y27790942D01*
X4716418Y27870131D01*
X4513467Y27910500D01*
X4513465Y27910500D01*
X4306535Y27910500D01*
X4306532Y27910500D01*
X4103581Y27870131D01*
X3912402Y27790942D01*
X3740348Y27675980D01*
X3594020Y27529652D01*
X3479058Y27357598D01*
X3399869Y27166419D01*
X3359500Y26963468D01*
X2359914Y26963468D01*
X2347445Y27010000D01*
X3010577Y27010000D01*
X3010577Y27010001D01*
X2991683Y27129290D01*
X2935749Y27301441D01*
X2853568Y27462731D01*
X2853566Y27462735D01*
X2747175Y27609170D01*
X2619169Y27737176D01*
X2472734Y27843567D01*
X2472730Y27843569D01*
X2311440Y27925750D01*
X2139290Y27981684D01*
X2020000Y28000578D01*
X2020000Y27337446D01*
X1935826Y27360000D01*
X1804174Y27360000D01*
X1720000Y27337446D01*
X1720000Y28000578D01*
X1719999Y28000578D01*
X1600709Y27981684D01*
X1428559Y27925750D01*
X1267269Y27843569D01*
X1267265Y27843567D01*
X1120830Y27737176D01*
X992824Y27609170D01*
X886433Y27462735D01*
X886431Y27462731D01*
X804250Y27301441D01*
X748316Y27129290D01*
X729423Y27010000D01*
X500000Y27010000D01*
X500000Y29550000D01*
X729423Y29550000D01*
X1392555Y29550000D01*
X1370000Y29465826D01*
X1370000Y29334174D01*
X1392555Y29250000D01*
X729423Y29250000D01*
X748316Y29130711D01*
X804250Y28958560D01*
X886431Y28797270D01*
X886433Y28797266D01*
X992824Y28650831D01*
X1120830Y28522825D01*
X1267265Y28416434D01*
X1267269Y28416432D01*
X1428559Y28334251D01*
X1600710Y28278317D01*
X1720000Y28259423D01*
X1720000Y28922555D01*
X1804174Y28900000D01*
X1935826Y28900000D01*
X2020000Y28922555D01*
X2020000Y28259424D01*
X2139289Y28278317D01*
X2311440Y28334251D01*
X2472730Y28416432D01*
X2472734Y28416434D01*
X2619169Y28522825D01*
X2747175Y28650831D01*
X2853566Y28797266D01*
X2853568Y28797270D01*
X2935749Y28958560D01*
X2991683Y29130711D01*
X3010577Y29250000D01*
X2347445Y29250000D01*
X2370000Y29334174D01*
X2370000Y29465826D01*
X2359914Y29503468D01*
X3359500Y29503468D01*
X3359500Y29296533D01*
X3399869Y29093582D01*
X3479058Y28902403D01*
X3479059Y28902402D01*
X3594023Y28730345D01*
X3740345Y28584023D01*
X3912402Y28469059D01*
X4103580Y28389870D01*
X4306535Y28349500D01*
X4306536Y28349500D01*
X4513464Y28349500D01*
X4513465Y28349500D01*
X4716420Y28389870D01*
X4907598Y28469059D01*
X5079655Y28584023D01*
X5225977Y28730345D01*
X5340941Y28902402D01*
X5420130Y29093580D01*
X5460500Y29296535D01*
X5460500Y29503465D01*
X5460499Y29503468D01*
X46539500Y29503468D01*
X46539500Y29296533D01*
X46579869Y29093582D01*
X46659058Y28902403D01*
X46659059Y28902402D01*
X46774023Y28730345D01*
X46920345Y28584023D01*
X47092402Y28469059D01*
X47283580Y28389870D01*
X47486535Y28349500D01*
X47486536Y28349500D01*
X47693464Y28349500D01*
X47693465Y28349500D01*
X47896420Y28389870D01*
X48087598Y28469059D01*
X48259655Y28584023D01*
X48405977Y28730345D01*
X48520941Y28902402D01*
X48600130Y29093580D01*
X48627290Y29230126D01*
X48640499Y29296529D01*
X48640499Y29296532D01*
X48640500Y29296535D01*
X48640500Y29503465D01*
X48640499Y29503467D01*
X48640499Y29503472D01*
X48631244Y29550000D01*
X48989423Y29550000D01*
X49652555Y29550000D01*
X49630000Y29465826D01*
X49630000Y29334174D01*
X49652555Y29250000D01*
X48989423Y29250000D01*
X49008316Y29130711D01*
X49064250Y28958560D01*
X49146431Y28797270D01*
X49146433Y28797266D01*
X49252824Y28650831D01*
X49380830Y28522825D01*
X49527265Y28416434D01*
X49527269Y28416432D01*
X49688559Y28334251D01*
X49860710Y28278317D01*
X49980000Y28259423D01*
X49980000Y28922555D01*
X50064174Y28900000D01*
X50195826Y28900000D01*
X50280000Y28922555D01*
X50280000Y28259424D01*
X50399289Y28278317D01*
X50571440Y28334251D01*
X50732730Y28416432D01*
X50732734Y28416434D01*
X50879169Y28522825D01*
X51007175Y28650831D01*
X51113566Y28797266D01*
X51113568Y28797270D01*
X51195749Y28958560D01*
X51251683Y29130711D01*
X51270577Y29250000D01*
X50607445Y29250000D01*
X50630000Y29334174D01*
X50630000Y29465826D01*
X50607445Y29550000D01*
X51270577Y29550000D01*
X51251683Y29669290D01*
X51195749Y29841441D01*
X51113568Y30002731D01*
X51113566Y30002735D01*
X51007175Y30149170D01*
X50879169Y30277176D01*
X50732734Y30383567D01*
X50732730Y30383569D01*
X50571440Y30465750D01*
X50399290Y30521684D01*
X50280000Y30540578D01*
X50280000Y29877446D01*
X50195826Y29900000D01*
X50064174Y29900000D01*
X49980000Y29877446D01*
X49980000Y30540578D01*
X49979999Y30540578D01*
X49860709Y30521684D01*
X49688559Y30465750D01*
X49527269Y30383569D01*
X49527265Y30383567D01*
X49380830Y30277176D01*
X49252824Y30149170D01*
X49146433Y30002735D01*
X49146431Y30002731D01*
X49064250Y29841441D01*
X49008316Y29669290D01*
X48989423Y29550000D01*
X48631244Y29550000D01*
X48613710Y29638148D01*
X48600130Y29706420D01*
X48520941Y29897598D01*
X48405977Y30069655D01*
X48259655Y30215977D01*
X48087598Y30330941D01*
X48087599Y30330941D01*
X48087597Y30330942D01*
X47896418Y30410131D01*
X47693467Y30450500D01*
X47693465Y30450500D01*
X47486535Y30450500D01*
X47486532Y30450500D01*
X47283581Y30410131D01*
X47092402Y30330942D01*
X46920348Y30215980D01*
X46774020Y30069652D01*
X46659058Y29897598D01*
X46579869Y29706419D01*
X46539500Y29503468D01*
X5460499Y29503468D01*
X5420130Y29706420D01*
X5340941Y29897598D01*
X5225977Y30069655D01*
X5079655Y30215977D01*
X4907598Y30330941D01*
X4907599Y30330941D01*
X4907597Y30330942D01*
X4716418Y30410131D01*
X4513467Y30450500D01*
X4513465Y30450500D01*
X4306535Y30450500D01*
X4306532Y30450500D01*
X4103581Y30410131D01*
X3912402Y30330942D01*
X3740348Y30215980D01*
X3594020Y30069652D01*
X3479058Y29897598D01*
X3399869Y29706419D01*
X3359500Y29503468D01*
X2359914Y29503468D01*
X2347445Y29550000D01*
X3010577Y29550000D01*
X3010577Y29550001D01*
X2991683Y29669290D01*
X2935749Y29841441D01*
X2853568Y30002731D01*
X2853566Y30002735D01*
X2747175Y30149170D01*
X2619169Y30277176D01*
X2472734Y30383567D01*
X2472730Y30383569D01*
X2311440Y30465750D01*
X2139290Y30521684D01*
X2020000Y30540578D01*
X2020000Y29877446D01*
X1935826Y29900000D01*
X1804174Y29900000D01*
X1720000Y29877446D01*
X1720000Y30540578D01*
X1719999Y30540578D01*
X1600709Y30521684D01*
X1428559Y30465750D01*
X1267269Y30383569D01*
X1267265Y30383567D01*
X1120830Y30277176D01*
X992824Y30149170D01*
X886433Y30002735D01*
X886431Y30002731D01*
X804250Y29841441D01*
X748316Y29669290D01*
X729423Y29550000D01*
X500000Y29550000D01*
X500000Y32090000D01*
X729423Y32090000D01*
X1392555Y32090000D01*
X1370000Y32005826D01*
X1370000Y31874174D01*
X1392555Y31790000D01*
X729423Y31790000D01*
X748316Y31670711D01*
X804250Y31498560D01*
X886431Y31337270D01*
X886433Y31337266D01*
X992824Y31190831D01*
X1120830Y31062825D01*
X1267265Y30956434D01*
X1267269Y30956432D01*
X1428559Y30874251D01*
X1600710Y30818317D01*
X1720000Y30799423D01*
X1720000Y31462555D01*
X1804174Y31440000D01*
X1935826Y31440000D01*
X2020000Y31462555D01*
X2020000Y30799424D01*
X2139289Y30818317D01*
X2311440Y30874251D01*
X2472730Y30956432D01*
X2472734Y30956434D01*
X2619169Y31062825D01*
X2747175Y31190831D01*
X2853566Y31337266D01*
X2853568Y31337270D01*
X2935749Y31498560D01*
X2991683Y31670711D01*
X3010577Y31790000D01*
X2347445Y31790000D01*
X2370000Y31874174D01*
X2370000Y32005826D01*
X2359914Y32043468D01*
X3359500Y32043468D01*
X3359500Y31836533D01*
X3399869Y31633582D01*
X3479058Y31442403D01*
X3479059Y31442402D01*
X3594023Y31270345D01*
X3740345Y31124023D01*
X3912402Y31009059D01*
X4103580Y30929870D01*
X4306535Y30889500D01*
X4306536Y30889500D01*
X4513464Y30889500D01*
X4513465Y30889500D01*
X4716420Y30929870D01*
X4907598Y31009059D01*
X5079655Y31124023D01*
X5225977Y31270345D01*
X5340941Y31442402D01*
X5420130Y31633580D01*
X5460500Y31836535D01*
X5460500Y32043465D01*
X5460499Y32043468D01*
X46539500Y32043468D01*
X46539500Y31836533D01*
X46579869Y31633582D01*
X46659058Y31442403D01*
X46659059Y31442402D01*
X46774023Y31270345D01*
X46920345Y31124023D01*
X47092402Y31009059D01*
X47283580Y30929870D01*
X47486535Y30889500D01*
X47486536Y30889500D01*
X47693464Y30889500D01*
X47693465Y30889500D01*
X47896420Y30929870D01*
X48087598Y31009059D01*
X48259655Y31124023D01*
X48405977Y31270345D01*
X48520941Y31442402D01*
X48600130Y31633580D01*
X48627290Y31770126D01*
X48640499Y31836529D01*
X48640499Y31836532D01*
X48640500Y31836535D01*
X48640500Y32043465D01*
X48640499Y32043467D01*
X48640499Y32043472D01*
X48631244Y32090000D01*
X48989423Y32090000D01*
X49652555Y32090000D01*
X49630000Y32005826D01*
X49630000Y31874174D01*
X49652555Y31790000D01*
X48989423Y31790000D01*
X49008316Y31670711D01*
X49064250Y31498560D01*
X49146431Y31337270D01*
X49146433Y31337266D01*
X49252824Y31190831D01*
X49380830Y31062825D01*
X49527265Y30956434D01*
X49527269Y30956432D01*
X49688559Y30874251D01*
X49860710Y30818317D01*
X49980000Y30799423D01*
X49980000Y31462555D01*
X50064174Y31440000D01*
X50195826Y31440000D01*
X50280000Y31462555D01*
X50280000Y30799424D01*
X50399289Y30818317D01*
X50571440Y30874251D01*
X50732730Y30956432D01*
X50732734Y30956434D01*
X50879169Y31062825D01*
X51007175Y31190831D01*
X51113566Y31337266D01*
X51113568Y31337270D01*
X51195749Y31498560D01*
X51251683Y31670711D01*
X51270577Y31790000D01*
X50607445Y31790000D01*
X50630000Y31874174D01*
X50630000Y32005826D01*
X50607445Y32090000D01*
X51270577Y32090000D01*
X51251683Y32209290D01*
X51195749Y32381441D01*
X51113568Y32542731D01*
X51113566Y32542735D01*
X51007175Y32689170D01*
X50879169Y32817176D01*
X50732734Y32923567D01*
X50732730Y32923569D01*
X50571440Y33005750D01*
X50399290Y33061684D01*
X50280000Y33080578D01*
X50280000Y32417446D01*
X50195826Y32440000D01*
X50064174Y32440000D01*
X49980000Y32417446D01*
X49980000Y33080578D01*
X49979999Y33080578D01*
X49860709Y33061684D01*
X49688559Y33005750D01*
X49527269Y32923569D01*
X49527265Y32923567D01*
X49380830Y32817176D01*
X49252824Y32689170D01*
X49146433Y32542735D01*
X49146431Y32542731D01*
X49064250Y32381441D01*
X49008316Y32209290D01*
X48989423Y32090000D01*
X48631244Y32090000D01*
X48613710Y32178148D01*
X48600130Y32246420D01*
X48520941Y32437598D01*
X48405977Y32609655D01*
X48259655Y32755977D01*
X48087598Y32870941D01*
X48087599Y32870941D01*
X48087597Y32870942D01*
X47896418Y32950131D01*
X47693467Y32990500D01*
X47693465Y32990500D01*
X47486535Y32990500D01*
X47486532Y32990500D01*
X47283581Y32950131D01*
X47092402Y32870942D01*
X46920348Y32755980D01*
X46774020Y32609652D01*
X46659058Y32437598D01*
X46579869Y32246419D01*
X46539500Y32043468D01*
X5460499Y32043468D01*
X5420130Y32246420D01*
X5340941Y32437598D01*
X5225977Y32609655D01*
X5079655Y32755977D01*
X4907598Y32870941D01*
X4907599Y32870941D01*
X4907597Y32870942D01*
X4716418Y32950131D01*
X4513467Y32990500D01*
X4513465Y32990500D01*
X4306535Y32990500D01*
X4306532Y32990500D01*
X4103581Y32950131D01*
X3912402Y32870942D01*
X3740348Y32755980D01*
X3594020Y32609652D01*
X3479058Y32437598D01*
X3399869Y32246419D01*
X3359500Y32043468D01*
X2359914Y32043468D01*
X2347445Y32090000D01*
X3010577Y32090000D01*
X3010577Y32090001D01*
X2991683Y32209290D01*
X2935749Y32381441D01*
X2853568Y32542731D01*
X2853566Y32542735D01*
X2747175Y32689170D01*
X2619169Y32817176D01*
X2472734Y32923567D01*
X2472730Y32923569D01*
X2311440Y33005750D01*
X2139290Y33061684D01*
X2020000Y33080578D01*
X2020000Y32417446D01*
X1935826Y32440000D01*
X1804174Y32440000D01*
X1720000Y32417446D01*
X1720000Y33080578D01*
X1719999Y33080578D01*
X1600709Y33061684D01*
X1428559Y33005750D01*
X1267269Y32923569D01*
X1267265Y32923567D01*
X1120830Y32817176D01*
X992824Y32689170D01*
X886433Y32542735D01*
X886431Y32542731D01*
X804250Y32381441D01*
X748316Y32209290D01*
X729423Y32090000D01*
X500000Y32090000D01*
X500000Y34630000D01*
X729423Y34630000D01*
X1392555Y34630000D01*
X1370000Y34545826D01*
X1370000Y34414174D01*
X1392555Y34330000D01*
X729423Y34330000D01*
X748316Y34210711D01*
X804250Y34038560D01*
X886431Y33877270D01*
X886433Y33877266D01*
X992824Y33730831D01*
X1120830Y33602825D01*
X1267265Y33496434D01*
X1267269Y33496432D01*
X1428559Y33414251D01*
X1600710Y33358317D01*
X1720000Y33339423D01*
X1720000Y34002555D01*
X1804174Y33980000D01*
X1935826Y33980000D01*
X2020000Y34002555D01*
X2020000Y33339424D01*
X2139289Y33358317D01*
X2311440Y33414251D01*
X2472730Y33496432D01*
X2472734Y33496434D01*
X2619169Y33602825D01*
X2747175Y33730831D01*
X2853566Y33877266D01*
X2853568Y33877270D01*
X2935749Y34038560D01*
X2991683Y34210711D01*
X3010577Y34330000D01*
X2347445Y34330000D01*
X2370000Y34414174D01*
X2370000Y34545826D01*
X2359914Y34583468D01*
X3359500Y34583468D01*
X3359500Y34376533D01*
X3399869Y34173582D01*
X3479058Y33982403D01*
X3594020Y33810349D01*
X3594023Y33810345D01*
X3740345Y33664023D01*
X3912402Y33549059D01*
X4103580Y33469870D01*
X4306535Y33429500D01*
X4306536Y33429500D01*
X4513464Y33429500D01*
X4513465Y33429500D01*
X4716420Y33469870D01*
X4907598Y33549059D01*
X5079655Y33664023D01*
X5225977Y33810345D01*
X5340941Y33982402D01*
X5420130Y34173580D01*
X5460500Y34376535D01*
X5460500Y34583465D01*
X5420130Y34786420D01*
X5340941Y34977598D01*
X5225977Y35149655D01*
X5079655Y35295977D01*
X4907598Y35410941D01*
X4907599Y35410941D01*
X4907597Y35410942D01*
X4716418Y35490131D01*
X4513467Y35530500D01*
X4513465Y35530500D01*
X4306535Y35530500D01*
X4306532Y35530500D01*
X4103581Y35490131D01*
X3912402Y35410942D01*
X3740348Y35295980D01*
X3594020Y35149652D01*
X3479058Y34977598D01*
X3399869Y34786419D01*
X3359500Y34583468D01*
X2359914Y34583468D01*
X2347445Y34630000D01*
X3010577Y34630000D01*
X3010577Y34630001D01*
X2991683Y34749290D01*
X2935749Y34921441D01*
X2853568Y35082731D01*
X2853566Y35082735D01*
X2747175Y35229170D01*
X2619169Y35357176D01*
X2472734Y35463567D01*
X2472730Y35463569D01*
X2311440Y35545750D01*
X2139290Y35601684D01*
X2020000Y35620578D01*
X2020000Y34957446D01*
X1935826Y34980000D01*
X1804174Y34980000D01*
X1720000Y34957446D01*
X1720000Y35620578D01*
X1719999Y35620578D01*
X1600709Y35601684D01*
X1428559Y35545750D01*
X1267269Y35463569D01*
X1267265Y35463567D01*
X1120830Y35357176D01*
X992824Y35229170D01*
X886433Y35082735D01*
X886431Y35082731D01*
X804250Y34921441D01*
X748316Y34749290D01*
X729423Y34630000D01*
X500000Y34630000D01*
X500000Y37170000D01*
X729423Y37170000D01*
X1392555Y37170000D01*
X1370000Y37085826D01*
X1370000Y36954174D01*
X1392555Y36870000D01*
X729423Y36870000D01*
X748316Y36750711D01*
X804250Y36578560D01*
X886431Y36417270D01*
X886433Y36417266D01*
X992824Y36270831D01*
X1120830Y36142825D01*
X1267265Y36036434D01*
X1267269Y36036432D01*
X1428559Y35954251D01*
X1600710Y35898317D01*
X1720000Y35879423D01*
X1720000Y36542555D01*
X1804174Y36520000D01*
X1935826Y36520000D01*
X2020000Y36542555D01*
X2020000Y35879424D01*
X2139289Y35898317D01*
X2311440Y35954251D01*
X2472730Y36036432D01*
X2472734Y36036434D01*
X2619169Y36142825D01*
X2747175Y36270831D01*
X2853566Y36417266D01*
X2853568Y36417270D01*
X2935749Y36578560D01*
X2991683Y36750711D01*
X3010577Y36870000D01*
X2347445Y36870000D01*
X2370000Y36954174D01*
X2370000Y37085826D01*
X2359914Y37123468D01*
X3359500Y37123468D01*
X3359500Y36916533D01*
X3399869Y36713582D01*
X3479058Y36522403D01*
X3479059Y36522402D01*
X3594023Y36350345D01*
X3740345Y36204023D01*
X3912402Y36089059D01*
X4103580Y36009870D01*
X4306535Y35969500D01*
X4306536Y35969500D01*
X4513464Y35969500D01*
X4513465Y35969500D01*
X4716420Y36009870D01*
X4907598Y36089059D01*
X5079655Y36204023D01*
X5225977Y36350345D01*
X5340941Y36522402D01*
X5420130Y36713580D01*
X5460500Y36916535D01*
X5460500Y37123465D01*
X5420130Y37326420D01*
X5340941Y37517598D01*
X5225977Y37689655D01*
X5079655Y37835977D01*
X4907598Y37950941D01*
X4907599Y37950941D01*
X4907597Y37950942D01*
X4716418Y38030131D01*
X4513467Y38070500D01*
X4513465Y38070500D01*
X4306535Y38070500D01*
X4306532Y38070500D01*
X4103581Y38030131D01*
X3912402Y37950942D01*
X3740348Y37835980D01*
X3594020Y37689652D01*
X3479058Y37517598D01*
X3399869Y37326419D01*
X3359500Y37123468D01*
X2359914Y37123468D01*
X2347445Y37170000D01*
X3010577Y37170000D01*
X3010577Y37170001D01*
X2991683Y37289290D01*
X2935749Y37461441D01*
X2853568Y37622731D01*
X2853566Y37622735D01*
X2747175Y37769170D01*
X2619169Y37897176D01*
X2472734Y38003567D01*
X2472730Y38003569D01*
X2311440Y38085750D01*
X2139290Y38141684D01*
X2020000Y38160578D01*
X2020000Y37497446D01*
X1935826Y37520000D01*
X1804174Y37520000D01*
X1720000Y37497446D01*
X1720000Y38160578D01*
X1719999Y38160578D01*
X1600709Y38141684D01*
X1428559Y38085750D01*
X1267269Y38003569D01*
X1267265Y38003567D01*
X1120830Y37897176D01*
X992824Y37769170D01*
X886433Y37622735D01*
X886431Y37622731D01*
X804250Y37461441D01*
X748316Y37289290D01*
X729423Y37170000D01*
X500000Y37170000D01*
X500000Y39710000D01*
X729423Y39710000D01*
X1392555Y39710000D01*
X1370000Y39625826D01*
X1370000Y39494174D01*
X1392555Y39410000D01*
X729423Y39410000D01*
X748316Y39290711D01*
X804250Y39118560D01*
X886431Y38957270D01*
X886433Y38957266D01*
X992824Y38810831D01*
X1120830Y38682825D01*
X1267265Y38576434D01*
X1267269Y38576432D01*
X1428559Y38494251D01*
X1600710Y38438317D01*
X1720000Y38419423D01*
X1720000Y39082555D01*
X1804174Y39060000D01*
X1935826Y39060000D01*
X2020000Y39082555D01*
X2020000Y38419424D01*
X2139289Y38438317D01*
X2311440Y38494251D01*
X2472730Y38576432D01*
X2472734Y38576434D01*
X2619169Y38682825D01*
X2747175Y38810831D01*
X2853566Y38957266D01*
X2853568Y38957270D01*
X2935749Y39118560D01*
X2991683Y39290711D01*
X3010577Y39410000D01*
X2347445Y39410000D01*
X2370000Y39494174D01*
X2370000Y39625826D01*
X2359914Y39663468D01*
X3359500Y39663468D01*
X3359500Y39456533D01*
X3399869Y39253582D01*
X3479058Y39062403D01*
X3479059Y39062402D01*
X3594023Y38890345D01*
X3740345Y38744023D01*
X3912402Y38629059D01*
X4103580Y38549870D01*
X4306535Y38509500D01*
X4306536Y38509500D01*
X4513464Y38509500D01*
X4513465Y38509500D01*
X4716420Y38549870D01*
X4907598Y38629059D01*
X5079655Y38744023D01*
X5225977Y38890345D01*
X5340941Y39062402D01*
X5420130Y39253580D01*
X5422579Y39265892D01*
X26299500Y39265892D01*
X26299500Y34214108D01*
X26310517Y34172993D01*
X26333609Y34086810D01*
X26399496Y33972691D01*
X26399498Y33972689D01*
X26399500Y33972686D01*
X26492686Y33879500D01*
X26492688Y33879499D01*
X26492690Y33879497D01*
X26606810Y33813610D01*
X26606808Y33813610D01*
X26606812Y33813609D01*
X26606814Y33813608D01*
X26734108Y33779500D01*
X26734110Y33779500D01*
X26865890Y33779500D01*
X26865892Y33779500D01*
X26993186Y33813608D01*
X26993188Y33813610D01*
X26993190Y33813610D01*
X27107309Y33879497D01*
X27107309Y33879498D01*
X27107314Y33879500D01*
X27200500Y33972686D01*
X27224396Y34014075D01*
X27266390Y34086810D01*
X27266390Y34086812D01*
X27266392Y34086814D01*
X27300500Y34214108D01*
X27300500Y34583468D01*
X46539500Y34583468D01*
X46539500Y34376533D01*
X46579869Y34173582D01*
X46659058Y33982403D01*
X46774020Y33810349D01*
X46774023Y33810345D01*
X46920345Y33664023D01*
X47092402Y33549059D01*
X47283580Y33469870D01*
X47486535Y33429500D01*
X47486536Y33429500D01*
X47693464Y33429500D01*
X47693465Y33429500D01*
X47896420Y33469870D01*
X48087598Y33549059D01*
X48259655Y33664023D01*
X48405977Y33810345D01*
X48520941Y33982402D01*
X48600130Y34173580D01*
X48627290Y34310126D01*
X48640499Y34376529D01*
X48640499Y34376532D01*
X48640500Y34376535D01*
X48640500Y34583465D01*
X48640499Y34583467D01*
X48640499Y34583472D01*
X48631244Y34630000D01*
X48989423Y34630000D01*
X49652555Y34630000D01*
X49630000Y34545826D01*
X49630000Y34414174D01*
X49652555Y34330000D01*
X48989423Y34330000D01*
X49008316Y34210711D01*
X49064250Y34038560D01*
X49146431Y33877270D01*
X49146433Y33877266D01*
X49252824Y33730831D01*
X49380830Y33602825D01*
X49527265Y33496434D01*
X49527269Y33496432D01*
X49688559Y33414251D01*
X49860710Y33358317D01*
X49980000Y33339423D01*
X49980000Y34002555D01*
X50064174Y33980000D01*
X50195826Y33980000D01*
X50280000Y34002555D01*
X50280000Y33339424D01*
X50399289Y33358317D01*
X50571440Y33414251D01*
X50732730Y33496432D01*
X50732734Y33496434D01*
X50879169Y33602825D01*
X51007175Y33730831D01*
X51113566Y33877266D01*
X51113568Y33877270D01*
X51195749Y34038560D01*
X51251683Y34210711D01*
X51270577Y34330000D01*
X50607445Y34330000D01*
X50630000Y34414174D01*
X50630000Y34545826D01*
X50607445Y34630000D01*
X51270577Y34630000D01*
X51251683Y34749290D01*
X51195749Y34921441D01*
X51113568Y35082731D01*
X51113566Y35082735D01*
X51007175Y35229170D01*
X50879169Y35357176D01*
X50732734Y35463567D01*
X50732730Y35463569D01*
X50571440Y35545750D01*
X50399290Y35601684D01*
X50280000Y35620578D01*
X50280000Y34957446D01*
X50195826Y34980000D01*
X50064174Y34980000D01*
X49980000Y34957446D01*
X49980000Y35620578D01*
X49979999Y35620578D01*
X49860709Y35601684D01*
X49688559Y35545750D01*
X49527269Y35463569D01*
X49527265Y35463567D01*
X49380830Y35357176D01*
X49252824Y35229170D01*
X49146433Y35082735D01*
X49146431Y35082731D01*
X49064250Y34921441D01*
X49008316Y34749290D01*
X48989423Y34630000D01*
X48631244Y34630000D01*
X48613710Y34718148D01*
X48600130Y34786420D01*
X48520941Y34977598D01*
X48405977Y35149655D01*
X48259655Y35295977D01*
X48087598Y35410941D01*
X48087599Y35410941D01*
X48087597Y35410942D01*
X47896418Y35490131D01*
X47693467Y35530500D01*
X47693465Y35530500D01*
X47486535Y35530500D01*
X47486532Y35530500D01*
X47283581Y35490131D01*
X47092402Y35410942D01*
X46920348Y35295980D01*
X46774020Y35149652D01*
X46659058Y34977598D01*
X46579869Y34786419D01*
X46539500Y34583468D01*
X27300500Y34583468D01*
X27300500Y37123468D01*
X46539500Y37123468D01*
X46539500Y36916533D01*
X46579869Y36713582D01*
X46659058Y36522403D01*
X46659059Y36522402D01*
X46774023Y36350345D01*
X46920345Y36204023D01*
X47092402Y36089059D01*
X47283580Y36009870D01*
X47486535Y35969500D01*
X47486536Y35969500D01*
X47693464Y35969500D01*
X47693465Y35969500D01*
X47896420Y36009870D01*
X48087598Y36089059D01*
X48259655Y36204023D01*
X48405977Y36350345D01*
X48520941Y36522402D01*
X48600130Y36713580D01*
X48627290Y36850126D01*
X48640499Y36916529D01*
X48640499Y36916532D01*
X48640500Y36916535D01*
X48640500Y37123465D01*
X48640499Y37123467D01*
X48640499Y37123472D01*
X48631244Y37170000D01*
X48989423Y37170000D01*
X49652555Y37170000D01*
X49630000Y37085826D01*
X49630000Y36954174D01*
X49652555Y36870000D01*
X48989423Y36870000D01*
X49008316Y36750711D01*
X49064250Y36578560D01*
X49146431Y36417270D01*
X49146433Y36417266D01*
X49252824Y36270831D01*
X49380830Y36142825D01*
X49527265Y36036434D01*
X49527269Y36036432D01*
X49688559Y35954251D01*
X49860710Y35898317D01*
X49980000Y35879423D01*
X49980000Y36542555D01*
X50064174Y36520000D01*
X50195826Y36520000D01*
X50280000Y36542555D01*
X50280000Y35879424D01*
X50399289Y35898317D01*
X50571440Y35954251D01*
X50732730Y36036432D01*
X50732734Y36036434D01*
X50879169Y36142825D01*
X51007175Y36270831D01*
X51113566Y36417266D01*
X51113568Y36417270D01*
X51195749Y36578560D01*
X51251683Y36750711D01*
X51270577Y36870000D01*
X50607445Y36870000D01*
X50630000Y36954174D01*
X50630000Y37085826D01*
X50607445Y37170000D01*
X51270577Y37170000D01*
X51251683Y37289290D01*
X51195749Y37461441D01*
X51113568Y37622731D01*
X51113566Y37622735D01*
X51007175Y37769170D01*
X50879169Y37897176D01*
X50732734Y38003567D01*
X50732730Y38003569D01*
X50571440Y38085750D01*
X50399290Y38141684D01*
X50280000Y38160578D01*
X50280000Y37497446D01*
X50195826Y37520000D01*
X50064174Y37520000D01*
X49980000Y37497446D01*
X49980000Y38160578D01*
X49979999Y38160578D01*
X49860709Y38141684D01*
X49688559Y38085750D01*
X49527269Y38003569D01*
X49527265Y38003567D01*
X49380830Y37897176D01*
X49252824Y37769170D01*
X49146433Y37622735D01*
X49146431Y37622731D01*
X49064250Y37461441D01*
X49008316Y37289290D01*
X48989423Y37170000D01*
X48631244Y37170000D01*
X48613710Y37258148D01*
X48600130Y37326420D01*
X48520941Y37517598D01*
X48405977Y37689655D01*
X48259655Y37835977D01*
X48087598Y37950941D01*
X48087599Y37950941D01*
X48087597Y37950942D01*
X47896418Y38030131D01*
X47693467Y38070500D01*
X47693465Y38070500D01*
X47486535Y38070500D01*
X47486532Y38070500D01*
X47283581Y38030131D01*
X47092402Y37950942D01*
X46920348Y37835980D01*
X46774020Y37689652D01*
X46659058Y37517598D01*
X46579869Y37326419D01*
X46539500Y37123468D01*
X27300500Y37123468D01*
X27300500Y39265892D01*
X27266392Y39393186D01*
X27266390Y39393189D01*
X27266390Y39393191D01*
X27200503Y39507310D01*
X27200501Y39507312D01*
X27200500Y39507314D01*
X27107314Y39600500D01*
X27107311Y39600502D01*
X27107309Y39600504D01*
X26998252Y39663468D01*
X46539500Y39663468D01*
X46539500Y39456533D01*
X46579869Y39253582D01*
X46659058Y39062403D01*
X46659059Y39062402D01*
X46774023Y38890345D01*
X46920345Y38744023D01*
X47092402Y38629059D01*
X47283580Y38549870D01*
X47486535Y38509500D01*
X47486536Y38509500D01*
X47693464Y38509500D01*
X47693465Y38509500D01*
X47896420Y38549870D01*
X48087598Y38629059D01*
X48259655Y38744023D01*
X48405977Y38890345D01*
X48520941Y39062402D01*
X48600130Y39253580D01*
X48627900Y39393191D01*
X48640499Y39456529D01*
X48640499Y39456532D01*
X48640500Y39456535D01*
X48640500Y39663465D01*
X48640499Y39663467D01*
X48640499Y39663472D01*
X48631244Y39710000D01*
X48989423Y39710000D01*
X49652555Y39710000D01*
X49630000Y39625826D01*
X49630000Y39494174D01*
X49652555Y39410000D01*
X48989423Y39410000D01*
X49008316Y39290711D01*
X49064250Y39118560D01*
X49146431Y38957270D01*
X49146433Y38957266D01*
X49252824Y38810831D01*
X49380830Y38682825D01*
X49527265Y38576434D01*
X49527269Y38576432D01*
X49688559Y38494251D01*
X49860710Y38438317D01*
X49980000Y38419423D01*
X49980000Y39082555D01*
X50064174Y39060000D01*
X50195826Y39060000D01*
X50280000Y39082555D01*
X50280000Y38419424D01*
X50399289Y38438317D01*
X50571440Y38494251D01*
X50732730Y38576432D01*
X50732734Y38576434D01*
X50879169Y38682825D01*
X51007175Y38810831D01*
X51113566Y38957266D01*
X51113568Y38957270D01*
X51195749Y39118560D01*
X51251683Y39290711D01*
X51270577Y39410000D01*
X50607445Y39410000D01*
X50630000Y39494174D01*
X50630000Y39625826D01*
X50607445Y39710000D01*
X51270577Y39710000D01*
X51251683Y39829290D01*
X51195749Y40001441D01*
X51113568Y40162731D01*
X51113566Y40162735D01*
X51007175Y40309170D01*
X50879169Y40437176D01*
X50732734Y40543567D01*
X50732730Y40543569D01*
X50571440Y40625750D01*
X50399290Y40681684D01*
X50280000Y40700578D01*
X50280000Y40037446D01*
X50195826Y40060000D01*
X50064174Y40060000D01*
X49980000Y40037446D01*
X49980000Y40700578D01*
X49979999Y40700578D01*
X49860709Y40681684D01*
X49688559Y40625750D01*
X49527269Y40543569D01*
X49527265Y40543567D01*
X49380830Y40437176D01*
X49252824Y40309170D01*
X49146433Y40162735D01*
X49146431Y40162731D01*
X49064250Y40001441D01*
X49008316Y39829290D01*
X48989423Y39710000D01*
X48631244Y39710000D01*
X48613710Y39798148D01*
X48600130Y39866420D01*
X48520941Y40057598D01*
X48405977Y40229655D01*
X48259655Y40375977D01*
X48087598Y40490941D01*
X48087599Y40490941D01*
X48087597Y40490942D01*
X47896418Y40570131D01*
X47693467Y40610500D01*
X47693465Y40610500D01*
X47486535Y40610500D01*
X47486532Y40610500D01*
X47283581Y40570131D01*
X47092402Y40490942D01*
X46920348Y40375980D01*
X46774020Y40229652D01*
X46659058Y40057598D01*
X46579869Y39866419D01*
X46539500Y39663468D01*
X26998252Y39663468D01*
X26993189Y39666391D01*
X26993191Y39666391D01*
X26943799Y39679625D01*
X26865892Y39700500D01*
X26734108Y39700500D01*
X26656200Y39679625D01*
X26606809Y39666391D01*
X26492690Y39600504D01*
X26399496Y39507310D01*
X26333609Y39393191D01*
X26333608Y39393186D01*
X26299500Y39265892D01*
X5422579Y39265892D01*
X5460500Y39456535D01*
X5460500Y39663465D01*
X5420130Y39866420D01*
X5340941Y40057598D01*
X5225977Y40229655D01*
X5079655Y40375977D01*
X4907598Y40490941D01*
X4907599Y40490941D01*
X4907597Y40490942D01*
X4716418Y40570131D01*
X4513467Y40610500D01*
X4513465Y40610500D01*
X4306535Y40610500D01*
X4306532Y40610500D01*
X4103581Y40570131D01*
X3912402Y40490942D01*
X3740348Y40375980D01*
X3594020Y40229652D01*
X3479058Y40057598D01*
X3399869Y39866419D01*
X3359500Y39663468D01*
X2359914Y39663468D01*
X2347445Y39710000D01*
X3010577Y39710000D01*
X3010577Y39710001D01*
X2991683Y39829290D01*
X2935749Y40001441D01*
X2853568Y40162731D01*
X2853566Y40162735D01*
X2747175Y40309170D01*
X2619169Y40437176D01*
X2472734Y40543567D01*
X2472730Y40543569D01*
X2311440Y40625750D01*
X2139290Y40681684D01*
X2020000Y40700578D01*
X2020000Y40037446D01*
X1935826Y40060000D01*
X1804174Y40060000D01*
X1720000Y40037446D01*
X1720000Y40700578D01*
X1719999Y40700578D01*
X1600709Y40681684D01*
X1428559Y40625750D01*
X1267269Y40543569D01*
X1267265Y40543567D01*
X1120830Y40437176D01*
X992824Y40309170D01*
X886433Y40162735D01*
X886431Y40162731D01*
X804250Y40001441D01*
X748316Y39829290D01*
X729423Y39710000D01*
X500000Y39710000D01*
X500000Y42250000D01*
X729423Y42250000D01*
X1392555Y42250000D01*
X1370000Y42165826D01*
X1370000Y42034174D01*
X1392555Y41950000D01*
X729423Y41950000D01*
X748316Y41830711D01*
X804250Y41658560D01*
X886431Y41497270D01*
X886433Y41497266D01*
X992824Y41350831D01*
X1120830Y41222825D01*
X1267265Y41116434D01*
X1267269Y41116432D01*
X1428559Y41034251D01*
X1600710Y40978317D01*
X1720000Y40959423D01*
X1720000Y41622555D01*
X1804174Y41600000D01*
X1935826Y41600000D01*
X2020000Y41622555D01*
X2020000Y40959424D01*
X2139289Y40978317D01*
X2311440Y41034251D01*
X2472730Y41116432D01*
X2472734Y41116434D01*
X2619169Y41222825D01*
X2747175Y41350831D01*
X2853566Y41497266D01*
X2853568Y41497270D01*
X2935749Y41658560D01*
X2991683Y41830711D01*
X3010577Y41950000D01*
X2347445Y41950000D01*
X2370000Y42034174D01*
X2370000Y42165826D01*
X2359914Y42203468D01*
X3359500Y42203468D01*
X3359500Y41996533D01*
X3399869Y41793582D01*
X3479058Y41602403D01*
X3479059Y41602402D01*
X3594023Y41430345D01*
X3740345Y41284023D01*
X3912402Y41169059D01*
X4103580Y41089870D01*
X4306535Y41049500D01*
X4306536Y41049500D01*
X4513464Y41049500D01*
X4513465Y41049500D01*
X4716420Y41089870D01*
X4907598Y41169059D01*
X5079655Y41284023D01*
X5225977Y41430345D01*
X5340941Y41602402D01*
X5408661Y41765892D01*
X18699500Y41765892D01*
X18699500Y41634108D01*
X18707996Y41602402D01*
X18733609Y41506810D01*
X18799496Y41392691D01*
X18799498Y41392689D01*
X18799500Y41392686D01*
X18892686Y41299500D01*
X18892688Y41299499D01*
X18892690Y41299497D01*
X19006810Y41233610D01*
X19006808Y41233610D01*
X19006812Y41233609D01*
X19006814Y41233608D01*
X19134108Y41199500D01*
X19134110Y41199500D01*
X23865890Y41199500D01*
X23865892Y41199500D01*
X23993186Y41233608D01*
X23993188Y41233610D01*
X23993190Y41233610D01*
X24107309Y41299497D01*
X24107309Y41299498D01*
X24107314Y41299500D01*
X24200500Y41392686D01*
X24200503Y41392691D01*
X24266390Y41506810D01*
X24266390Y41506812D01*
X24266392Y41506814D01*
X24300500Y41634108D01*
X24300500Y41765892D01*
X27799500Y41765892D01*
X27799500Y41634108D01*
X27807996Y41602402D01*
X27833609Y41506810D01*
X27899496Y41392691D01*
X27899498Y41392689D01*
X27899500Y41392686D01*
X27992686Y41299500D01*
X27992688Y41299499D01*
X27992690Y41299497D01*
X28106810Y41233610D01*
X28106808Y41233610D01*
X28106812Y41233609D01*
X28106814Y41233608D01*
X28234108Y41199500D01*
X28234110Y41199500D01*
X32865890Y41199500D01*
X32865892Y41199500D01*
X32993186Y41233608D01*
X32993188Y41233610D01*
X32993190Y41233610D01*
X33107309Y41299497D01*
X33107309Y41299498D01*
X33107314Y41299500D01*
X33200500Y41392686D01*
X33200503Y41392691D01*
X33266390Y41506810D01*
X33266390Y41506812D01*
X33266392Y41506814D01*
X33300500Y41634108D01*
X33300500Y41765892D01*
X33266392Y41893186D01*
X33266390Y41893189D01*
X33266390Y41893191D01*
X33200503Y42007310D01*
X33200501Y42007312D01*
X33200500Y42007314D01*
X33107314Y42100500D01*
X33069048Y42122593D01*
X33069047Y42122595D01*
X32993189Y42166391D01*
X32993191Y42166391D01*
X32943799Y42179625D01*
X32865892Y42200500D01*
X28234108Y42200500D01*
X28156200Y42179625D01*
X28106809Y42166391D01*
X27992690Y42100504D01*
X27899496Y42007310D01*
X27833609Y41893191D01*
X27833608Y41893186D01*
X27799500Y41765892D01*
X24300500Y41765892D01*
X24266392Y41893186D01*
X24266390Y41893189D01*
X24266390Y41893191D01*
X24200503Y42007310D01*
X24200501Y42007312D01*
X24200500Y42007314D01*
X24107314Y42100500D01*
X24107311Y42100502D01*
X24107309Y42100504D01*
X23993189Y42166391D01*
X23993191Y42166391D01*
X23943799Y42179625D01*
X23865892Y42200500D01*
X19134108Y42200500D01*
X19056200Y42179625D01*
X19006809Y42166391D01*
X18892690Y42100504D01*
X18799496Y42007310D01*
X18733609Y41893191D01*
X18733608Y41893186D01*
X18699500Y41765892D01*
X5408661Y41765892D01*
X5420130Y41793580D01*
X5460500Y41996535D01*
X5460500Y42203465D01*
X5460499Y42203468D01*
X46539500Y42203468D01*
X46539500Y41996533D01*
X46579869Y41793582D01*
X46659058Y41602403D01*
X46659059Y41602402D01*
X46774023Y41430345D01*
X46920345Y41284023D01*
X47092402Y41169059D01*
X47283580Y41089870D01*
X47486535Y41049500D01*
X47486536Y41049500D01*
X47693464Y41049500D01*
X47693465Y41049500D01*
X47896420Y41089870D01*
X48087598Y41169059D01*
X48259655Y41284023D01*
X48405977Y41430345D01*
X48520941Y41602402D01*
X48600130Y41793580D01*
X48627290Y41930126D01*
X48640499Y41996529D01*
X48640499Y41996532D01*
X48640500Y41996535D01*
X48640500Y42203465D01*
X48640499Y42203467D01*
X48640499Y42203472D01*
X48631244Y42250000D01*
X48989423Y42250000D01*
X49652555Y42250000D01*
X49630000Y42165826D01*
X49630000Y42034174D01*
X49652555Y41950000D01*
X48989423Y41950000D01*
X49008316Y41830711D01*
X49064250Y41658560D01*
X49146431Y41497270D01*
X49146433Y41497266D01*
X49252824Y41350831D01*
X49380830Y41222825D01*
X49527265Y41116434D01*
X49527269Y41116432D01*
X49688559Y41034251D01*
X49860710Y40978317D01*
X49980000Y40959423D01*
X49980000Y41622555D01*
X50064174Y41600000D01*
X50195826Y41600000D01*
X50280000Y41622555D01*
X50280000Y40959424D01*
X50399289Y40978317D01*
X50571440Y41034251D01*
X50732730Y41116432D01*
X50732734Y41116434D01*
X50879169Y41222825D01*
X51007175Y41350831D01*
X51113566Y41497266D01*
X51113568Y41497270D01*
X51195749Y41658560D01*
X51251683Y41830711D01*
X51270577Y41950000D01*
X50607445Y41950000D01*
X50630000Y42034174D01*
X50630000Y42165826D01*
X50607445Y42250000D01*
X51270577Y42250000D01*
X51251683Y42369290D01*
X51195749Y42541441D01*
X51113568Y42702731D01*
X51113566Y42702735D01*
X51007175Y42849170D01*
X50879169Y42977176D01*
X50732734Y43083567D01*
X50732730Y43083569D01*
X50571440Y43165750D01*
X50399290Y43221684D01*
X50280000Y43240578D01*
X50280000Y42577446D01*
X50195826Y42600000D01*
X50064174Y42600000D01*
X49980000Y42577446D01*
X49980000Y43240578D01*
X49979999Y43240578D01*
X49860709Y43221684D01*
X49688559Y43165750D01*
X49527269Y43083569D01*
X49527265Y43083567D01*
X49380830Y42977176D01*
X49252824Y42849170D01*
X49146433Y42702735D01*
X49146431Y42702731D01*
X49064250Y42541441D01*
X49008316Y42369290D01*
X48989423Y42250000D01*
X48631244Y42250000D01*
X48613710Y42338148D01*
X48600130Y42406420D01*
X48520941Y42597598D01*
X48405977Y42769655D01*
X48259655Y42915977D01*
X48087598Y43030941D01*
X48087599Y43030941D01*
X48087597Y43030942D01*
X47896418Y43110131D01*
X47693467Y43150500D01*
X47693465Y43150500D01*
X47486535Y43150500D01*
X47486532Y43150500D01*
X47283581Y43110131D01*
X47092402Y43030942D01*
X46920348Y42915980D01*
X46774020Y42769652D01*
X46659058Y42597598D01*
X46579869Y42406419D01*
X46539500Y42203468D01*
X5460499Y42203468D01*
X5420130Y42406420D01*
X5340941Y42597598D01*
X5225977Y42769655D01*
X5079655Y42915977D01*
X4907598Y43030941D01*
X4907599Y43030941D01*
X4907597Y43030942D01*
X4716418Y43110131D01*
X4513467Y43150500D01*
X4513465Y43150500D01*
X4306535Y43150500D01*
X4306532Y43150500D01*
X4103581Y43110131D01*
X3912402Y43030942D01*
X3740348Y42915980D01*
X3594020Y42769652D01*
X3479058Y42597598D01*
X3399869Y42406419D01*
X3359500Y42203468D01*
X2359914Y42203468D01*
X2347445Y42250000D01*
X3010577Y42250000D01*
X3010577Y42250001D01*
X2991683Y42369290D01*
X2935749Y42541441D01*
X2853568Y42702731D01*
X2853566Y42702735D01*
X2747175Y42849170D01*
X2619169Y42977176D01*
X2472734Y43083567D01*
X2472730Y43083569D01*
X2311440Y43165750D01*
X2139290Y43221684D01*
X2020000Y43240578D01*
X2020000Y42577446D01*
X1935826Y42600000D01*
X1804174Y42600000D01*
X1720000Y42577446D01*
X1720000Y43240578D01*
X1719999Y43240578D01*
X1600709Y43221684D01*
X1428559Y43165750D01*
X1267269Y43083569D01*
X1267265Y43083567D01*
X1120830Y42977176D01*
X992824Y42849170D01*
X886433Y42702735D01*
X886431Y42702731D01*
X804250Y42541441D01*
X748316Y42369290D01*
X729423Y42250000D01*
X500000Y42250000D01*
X500000Y44790000D01*
X729423Y44790000D01*
X1392555Y44790000D01*
X1370000Y44705826D01*
X1370000Y44574174D01*
X1392555Y44490000D01*
X729423Y44490000D01*
X748316Y44370711D01*
X804250Y44198560D01*
X886431Y44037270D01*
X886433Y44037266D01*
X992824Y43890831D01*
X1120830Y43762825D01*
X1267265Y43656434D01*
X1267269Y43656432D01*
X1428559Y43574251D01*
X1600710Y43518317D01*
X1720000Y43499423D01*
X1720000Y44162555D01*
X1804174Y44140000D01*
X1935826Y44140000D01*
X2020000Y44162555D01*
X2020000Y43499424D01*
X2139289Y43518317D01*
X2311440Y43574251D01*
X2472730Y43656432D01*
X2472734Y43656434D01*
X2619169Y43762825D01*
X2747175Y43890831D01*
X2853566Y44037266D01*
X2853568Y44037270D01*
X2935749Y44198560D01*
X2991683Y44370711D01*
X3010577Y44490000D01*
X2347445Y44490000D01*
X2370000Y44574174D01*
X2370000Y44705826D01*
X2359914Y44743468D01*
X3359500Y44743468D01*
X3359500Y44536533D01*
X3399869Y44333582D01*
X3479058Y44142403D01*
X3479059Y44142402D01*
X3594023Y43970345D01*
X3740345Y43824023D01*
X3912402Y43709059D01*
X4103580Y43629870D01*
X4306535Y43589500D01*
X4306536Y43589500D01*
X4513464Y43589500D01*
X4513465Y43589500D01*
X4716420Y43629870D01*
X4907598Y43709059D01*
X5079655Y43824023D01*
X5225977Y43970345D01*
X5340941Y44142402D01*
X5420130Y44333580D01*
X5460500Y44536535D01*
X5460500Y44743465D01*
X5420130Y44946420D01*
X5340941Y45137598D01*
X5225977Y45309655D01*
X5079655Y45455977D01*
X4907598Y45570941D01*
X4907599Y45570941D01*
X4907597Y45570942D01*
X4716418Y45650131D01*
X4513467Y45690500D01*
X4513465Y45690500D01*
X4306535Y45690500D01*
X4306532Y45690500D01*
X4103581Y45650131D01*
X3912402Y45570942D01*
X3740348Y45455980D01*
X3594020Y45309652D01*
X3479058Y45137598D01*
X3399869Y44946419D01*
X3359500Y44743468D01*
X2359914Y44743468D01*
X2347445Y44790000D01*
X3010577Y44790000D01*
X3010577Y44790001D01*
X2991683Y44909290D01*
X2935749Y45081441D01*
X2853568Y45242731D01*
X2853566Y45242735D01*
X2747175Y45389170D01*
X2619169Y45517176D01*
X2472734Y45623567D01*
X2472730Y45623569D01*
X2311440Y45705750D01*
X2139290Y45761684D01*
X2020000Y45780578D01*
X2020000Y45117446D01*
X1935826Y45140000D01*
X1804174Y45140000D01*
X1720000Y45117446D01*
X1720000Y45780578D01*
X1719999Y45780578D01*
X1600709Y45761684D01*
X1428559Y45705750D01*
X1267269Y45623569D01*
X1267265Y45623567D01*
X1120830Y45517176D01*
X992824Y45389170D01*
X886433Y45242735D01*
X886431Y45242731D01*
X804250Y45081441D01*
X748316Y44909290D01*
X729423Y44790000D01*
X500000Y44790000D01*
X500000Y47330000D01*
X729423Y47330000D01*
X1392555Y47330000D01*
X1370000Y47245826D01*
X1370000Y47114174D01*
X1392555Y47030000D01*
X729423Y47030000D01*
X748316Y46910711D01*
X804250Y46738560D01*
X886431Y46577270D01*
X886433Y46577266D01*
X992824Y46430831D01*
X1120830Y46302825D01*
X1267265Y46196434D01*
X1267269Y46196432D01*
X1428559Y46114251D01*
X1600710Y46058317D01*
X1720000Y46039423D01*
X1720000Y46702555D01*
X1804174Y46680000D01*
X1935826Y46680000D01*
X2020000Y46702555D01*
X2020000Y46039424D01*
X2139289Y46058317D01*
X2311440Y46114251D01*
X2472730Y46196432D01*
X2472734Y46196434D01*
X2619169Y46302825D01*
X2747175Y46430831D01*
X2853566Y46577266D01*
X2853568Y46577270D01*
X2935749Y46738560D01*
X2991683Y46910711D01*
X3010577Y47030000D01*
X2347445Y47030000D01*
X2370000Y47114174D01*
X2370000Y47245826D01*
X2359914Y47283468D01*
X3359500Y47283468D01*
X3359500Y47076533D01*
X3399869Y46873582D01*
X3479058Y46682403D01*
X3479059Y46682402D01*
X3594023Y46510345D01*
X3740345Y46364023D01*
X3912402Y46249059D01*
X4103580Y46169870D01*
X4306535Y46129500D01*
X4306536Y46129500D01*
X4513464Y46129500D01*
X4513465Y46129500D01*
X4716420Y46169870D01*
X4907598Y46249059D01*
X5079655Y46364023D01*
X5225977Y46510345D01*
X5340941Y46682402D01*
X5420130Y46873580D01*
X5460500Y47076535D01*
X5460500Y47283465D01*
X5420130Y47486420D01*
X5340941Y47677598D01*
X5225977Y47849655D01*
X5079655Y47995977D01*
X4907598Y48110941D01*
X4907599Y48110941D01*
X4907597Y48110942D01*
X4716418Y48190131D01*
X4513467Y48230500D01*
X4513465Y48230500D01*
X4306535Y48230500D01*
X4306532Y48230500D01*
X4103581Y48190131D01*
X3912402Y48110942D01*
X3740348Y47995980D01*
X3594020Y47849652D01*
X3479058Y47677598D01*
X3399869Y47486419D01*
X3359500Y47283468D01*
X2359914Y47283468D01*
X2347445Y47330000D01*
X3010577Y47330000D01*
X3010577Y47330001D01*
X2991683Y47449290D01*
X2935749Y47621441D01*
X2853568Y47782731D01*
X2853566Y47782735D01*
X2747175Y47929170D01*
X2619169Y48057176D01*
X2472734Y48163567D01*
X2472730Y48163569D01*
X2311440Y48245750D01*
X2139290Y48301684D01*
X2020000Y48320578D01*
X2020000Y47657446D01*
X1935826Y47680000D01*
X1804174Y47680000D01*
X1720000Y47657446D01*
X1720000Y48320578D01*
X1719999Y48320578D01*
X1600709Y48301684D01*
X1428559Y48245750D01*
X1267269Y48163569D01*
X1267265Y48163567D01*
X1120830Y48057176D01*
X992824Y47929170D01*
X886433Y47782735D01*
X886431Y47782731D01*
X804250Y47621441D01*
X748316Y47449290D01*
X729423Y47330000D01*
X500000Y47330000D01*
X500000Y49870000D01*
X729423Y49870000D01*
X1392555Y49870000D01*
X1370000Y49785826D01*
X1370000Y49654174D01*
X1392555Y49570000D01*
X729423Y49570000D01*
X748316Y49450711D01*
X804250Y49278560D01*
X886431Y49117270D01*
X886433Y49117266D01*
X992824Y48970831D01*
X1120830Y48842825D01*
X1267265Y48736434D01*
X1267269Y48736432D01*
X1428559Y48654251D01*
X1600710Y48598317D01*
X1720000Y48579423D01*
X1720000Y49242555D01*
X1804174Y49220000D01*
X1935826Y49220000D01*
X2020000Y49242555D01*
X2020000Y48579424D01*
X2139289Y48598317D01*
X2311440Y48654251D01*
X2472730Y48736432D01*
X2472734Y48736434D01*
X2619169Y48842825D01*
X2747175Y48970831D01*
X2853566Y49117266D01*
X2853568Y49117270D01*
X2935749Y49278560D01*
X2991683Y49450711D01*
X3010577Y49570000D01*
X2347445Y49570000D01*
X2370000Y49654174D01*
X2370000Y49785826D01*
X2359914Y49823468D01*
X3359500Y49823468D01*
X3359500Y49616533D01*
X3399869Y49413582D01*
X3479058Y49222403D01*
X3594020Y49050349D01*
X3594023Y49050345D01*
X3740345Y48904023D01*
X3912402Y48789059D01*
X4103580Y48709870D01*
X4306535Y48669500D01*
X4306536Y48669500D01*
X4513464Y48669500D01*
X4513465Y48669500D01*
X4716420Y48709870D01*
X4851668Y48765892D01*
X27199500Y48765892D01*
X27199500Y43634108D01*
X27229579Y43521849D01*
X27233609Y43506810D01*
X27299496Y43392691D01*
X27299498Y43392689D01*
X27299500Y43392686D01*
X27392686Y43299500D01*
X27392688Y43299499D01*
X27392690Y43299497D01*
X27506810Y43233610D01*
X27506808Y43233610D01*
X27506812Y43233609D01*
X27506814Y43233608D01*
X27634108Y43199500D01*
X27634110Y43199500D01*
X27765890Y43199500D01*
X27765892Y43199500D01*
X27893186Y43233608D01*
X27893188Y43233610D01*
X27893190Y43233610D01*
X28007309Y43299497D01*
X28007309Y43299498D01*
X28007314Y43299500D01*
X28100500Y43392686D01*
X28162125Y43499423D01*
X28166390Y43506810D01*
X28166390Y43506812D01*
X28166392Y43506814D01*
X28200500Y43634108D01*
X28200500Y44743468D01*
X46539500Y44743468D01*
X46539500Y44536533D01*
X46579869Y44333582D01*
X46659058Y44142403D01*
X46659059Y44142402D01*
X46774023Y43970345D01*
X46920345Y43824023D01*
X47092402Y43709059D01*
X47283580Y43629870D01*
X47486535Y43589500D01*
X47486536Y43589500D01*
X47693464Y43589500D01*
X47693465Y43589500D01*
X47896420Y43629870D01*
X48087598Y43709059D01*
X48259655Y43824023D01*
X48405977Y43970345D01*
X48520941Y44142402D01*
X48600130Y44333580D01*
X48627290Y44470126D01*
X48640499Y44536529D01*
X48640499Y44536532D01*
X48640500Y44536535D01*
X48640500Y44743465D01*
X48640499Y44743467D01*
X48640499Y44743472D01*
X48631244Y44790000D01*
X48989423Y44790000D01*
X49652555Y44790000D01*
X49630000Y44705826D01*
X49630000Y44574174D01*
X49652555Y44490000D01*
X48989423Y44490000D01*
X49008316Y44370711D01*
X49064250Y44198560D01*
X49146431Y44037270D01*
X49146433Y44037266D01*
X49252824Y43890831D01*
X49380830Y43762825D01*
X49527265Y43656434D01*
X49527269Y43656432D01*
X49688559Y43574251D01*
X49860710Y43518317D01*
X49980000Y43499423D01*
X49980000Y44162555D01*
X50064174Y44140000D01*
X50195826Y44140000D01*
X50280000Y44162555D01*
X50280000Y43499424D01*
X50399289Y43518317D01*
X50571440Y43574251D01*
X50732730Y43656432D01*
X50732734Y43656434D01*
X50879169Y43762825D01*
X51007175Y43890831D01*
X51113566Y44037266D01*
X51113568Y44037270D01*
X51195749Y44198560D01*
X51251683Y44370711D01*
X51270577Y44490000D01*
X50607445Y44490000D01*
X50630000Y44574174D01*
X50630000Y44705826D01*
X50607445Y44790000D01*
X51270577Y44790000D01*
X51251683Y44909290D01*
X51195749Y45081441D01*
X51113568Y45242731D01*
X51113566Y45242735D01*
X51007175Y45389170D01*
X50879169Y45517176D01*
X50732734Y45623567D01*
X50732730Y45623569D01*
X50571440Y45705750D01*
X50399290Y45761684D01*
X50280000Y45780578D01*
X50280000Y45117446D01*
X50195826Y45140000D01*
X50064174Y45140000D01*
X49980000Y45117446D01*
X49980000Y45780578D01*
X49979999Y45780578D01*
X49860709Y45761684D01*
X49688559Y45705750D01*
X49527269Y45623569D01*
X49527265Y45623567D01*
X49380830Y45517176D01*
X49252824Y45389170D01*
X49146433Y45242735D01*
X49146431Y45242731D01*
X49064250Y45081441D01*
X49008316Y44909290D01*
X48989423Y44790000D01*
X48631244Y44790000D01*
X48613710Y44878148D01*
X48600130Y44946420D01*
X48520941Y45137598D01*
X48405977Y45309655D01*
X48259655Y45455977D01*
X48087598Y45570941D01*
X48087599Y45570941D01*
X48087597Y45570942D01*
X47896418Y45650131D01*
X47693467Y45690500D01*
X47693465Y45690500D01*
X47486535Y45690500D01*
X47486532Y45690500D01*
X47283581Y45650131D01*
X47092402Y45570942D01*
X46920348Y45455980D01*
X46774020Y45309652D01*
X46659058Y45137598D01*
X46579869Y44946419D01*
X46539500Y44743468D01*
X28200500Y44743468D01*
X28200500Y47283468D01*
X46539500Y47283468D01*
X46539500Y47076533D01*
X46579869Y46873582D01*
X46659058Y46682403D01*
X46659059Y46682402D01*
X46774023Y46510345D01*
X46920345Y46364023D01*
X47092402Y46249059D01*
X47283580Y46169870D01*
X47486535Y46129500D01*
X47486536Y46129500D01*
X47693464Y46129500D01*
X47693465Y46129500D01*
X47896420Y46169870D01*
X48087598Y46249059D01*
X48259655Y46364023D01*
X48405977Y46510345D01*
X48520941Y46682402D01*
X48600130Y46873580D01*
X48627290Y47010126D01*
X48640499Y47076529D01*
X48640499Y47076532D01*
X48640500Y47076535D01*
X48640500Y47283465D01*
X48640499Y47283467D01*
X48640499Y47283472D01*
X48631244Y47330000D01*
X48989423Y47330000D01*
X49652555Y47330000D01*
X49630000Y47245826D01*
X49630000Y47114174D01*
X49652555Y47030000D01*
X48989423Y47030000D01*
X49008316Y46910711D01*
X49064250Y46738560D01*
X49146431Y46577270D01*
X49146433Y46577266D01*
X49252824Y46430831D01*
X49380830Y46302825D01*
X49527265Y46196434D01*
X49527269Y46196432D01*
X49688559Y46114251D01*
X49860710Y46058317D01*
X49980000Y46039423D01*
X49980000Y46702555D01*
X50064174Y46680000D01*
X50195826Y46680000D01*
X50280000Y46702555D01*
X50280000Y46039424D01*
X50399289Y46058317D01*
X50571440Y46114251D01*
X50732730Y46196432D01*
X50732734Y46196434D01*
X50879169Y46302825D01*
X51007175Y46430831D01*
X51113566Y46577266D01*
X51113568Y46577270D01*
X51195749Y46738560D01*
X51251683Y46910711D01*
X51270577Y47030000D01*
X50607445Y47030000D01*
X50630000Y47114174D01*
X50630000Y47245826D01*
X50607445Y47330000D01*
X51270577Y47330000D01*
X51251683Y47449290D01*
X51195749Y47621441D01*
X51113568Y47782731D01*
X51113566Y47782735D01*
X51007175Y47929170D01*
X50879169Y48057176D01*
X50732734Y48163567D01*
X50732730Y48163569D01*
X50571440Y48245750D01*
X50399290Y48301684D01*
X50280000Y48320578D01*
X50280000Y47657446D01*
X50195826Y47680000D01*
X50064174Y47680000D01*
X49980000Y47657446D01*
X49980000Y48320578D01*
X49979999Y48320578D01*
X49860709Y48301684D01*
X49688559Y48245750D01*
X49527269Y48163569D01*
X49527265Y48163567D01*
X49380830Y48057176D01*
X49252824Y47929170D01*
X49146433Y47782735D01*
X49146431Y47782731D01*
X49064250Y47621441D01*
X49008316Y47449290D01*
X48989423Y47330000D01*
X48631244Y47330000D01*
X48613710Y47418148D01*
X48600130Y47486420D01*
X48520941Y47677598D01*
X48405977Y47849655D01*
X48259655Y47995977D01*
X48087598Y48110941D01*
X48087599Y48110941D01*
X48087597Y48110942D01*
X47896418Y48190131D01*
X47693467Y48230500D01*
X47693465Y48230500D01*
X47486535Y48230500D01*
X47486532Y48230500D01*
X47283581Y48190131D01*
X47092402Y48110942D01*
X46920348Y47995980D01*
X46774020Y47849652D01*
X46659058Y47677598D01*
X46579869Y47486419D01*
X46539500Y47283468D01*
X28200500Y47283468D01*
X28200500Y48765892D01*
X28166392Y48893186D01*
X28166390Y48893189D01*
X28166390Y48893191D01*
X28100503Y49007310D01*
X28100501Y49007312D01*
X28100500Y49007314D01*
X28007314Y49100500D01*
X28007311Y49100502D01*
X28007309Y49100504D01*
X27893189Y49166391D01*
X27893191Y49166391D01*
X27843799Y49179625D01*
X27765892Y49200500D01*
X27634108Y49200500D01*
X27556200Y49179625D01*
X27506809Y49166391D01*
X27392690Y49100504D01*
X27299496Y49007310D01*
X27233609Y48893191D01*
X27233608Y48893186D01*
X27199500Y48765892D01*
X4851668Y48765892D01*
X4907598Y48789059D01*
X5079655Y48904023D01*
X5225977Y49050345D01*
X5340941Y49222402D01*
X5420130Y49413580D01*
X5460500Y49616535D01*
X5460500Y49823465D01*
X5460499Y49823468D01*
X46539500Y49823468D01*
X46539500Y49616533D01*
X46579869Y49413582D01*
X46659058Y49222403D01*
X46774020Y49050349D01*
X46774023Y49050345D01*
X46920345Y48904023D01*
X47092402Y48789059D01*
X47283580Y48709870D01*
X47486535Y48669500D01*
X47486536Y48669500D01*
X47693464Y48669500D01*
X47693465Y48669500D01*
X47896420Y48709870D01*
X48087598Y48789059D01*
X48259655Y48904023D01*
X48405977Y49050345D01*
X48520941Y49222402D01*
X48600130Y49413580D01*
X48627290Y49550126D01*
X48640499Y49616529D01*
X48640499Y49616532D01*
X48640500Y49616535D01*
X48640500Y49823465D01*
X48640499Y49823467D01*
X48640499Y49823472D01*
X48631244Y49870000D01*
X48989423Y49870000D01*
X49652555Y49870000D01*
X49630000Y49785826D01*
X49630000Y49654174D01*
X49652555Y49570000D01*
X48989423Y49570000D01*
X49008316Y49450711D01*
X49064250Y49278560D01*
X49146431Y49117270D01*
X49146433Y49117266D01*
X49252824Y48970831D01*
X49380830Y48842825D01*
X49527265Y48736434D01*
X49527269Y48736432D01*
X49688559Y48654251D01*
X49860710Y48598317D01*
X49980000Y48579423D01*
X49980000Y49242555D01*
X50064174Y49220000D01*
X50195826Y49220000D01*
X50280000Y49242555D01*
X50280000Y48579424D01*
X50399289Y48598317D01*
X50571440Y48654251D01*
X50732730Y48736432D01*
X50732734Y48736434D01*
X50879169Y48842825D01*
X51007175Y48970831D01*
X51113566Y49117266D01*
X51113568Y49117270D01*
X51195749Y49278560D01*
X51251683Y49450711D01*
X51270577Y49570000D01*
X50607445Y49570000D01*
X50630000Y49654174D01*
X50630000Y49785826D01*
X50607445Y49870000D01*
X51270577Y49870000D01*
X51251683Y49989290D01*
X51195749Y50161441D01*
X51113568Y50322731D01*
X51113566Y50322735D01*
X51007175Y50469170D01*
X50879169Y50597176D01*
X50732734Y50703567D01*
X50732730Y50703569D01*
X50571440Y50785750D01*
X50399290Y50841684D01*
X50280000Y50860578D01*
X50280000Y50197446D01*
X50195826Y50220000D01*
X50064174Y50220000D01*
X49980000Y50197446D01*
X49980000Y50860578D01*
X49979999Y50860578D01*
X49860709Y50841684D01*
X49688559Y50785750D01*
X49527269Y50703569D01*
X49527265Y50703567D01*
X49380830Y50597176D01*
X49252824Y50469170D01*
X49146433Y50322735D01*
X49146431Y50322731D01*
X49064250Y50161441D01*
X49008316Y49989290D01*
X48989423Y49870000D01*
X48631244Y49870000D01*
X48613710Y49958148D01*
X48600130Y50026420D01*
X48520941Y50217598D01*
X48405977Y50389655D01*
X48259655Y50535977D01*
X48087598Y50650941D01*
X48087599Y50650941D01*
X48087597Y50650942D01*
X47896418Y50730131D01*
X47693467Y50770500D01*
X47693465Y50770500D01*
X47486535Y50770500D01*
X47486532Y50770500D01*
X47283581Y50730131D01*
X47092402Y50650942D01*
X46920348Y50535980D01*
X46774020Y50389652D01*
X46659058Y50217598D01*
X46579869Y50026419D01*
X46539500Y49823468D01*
X5460499Y49823468D01*
X5420130Y50026420D01*
X5340941Y50217598D01*
X5225977Y50389655D01*
X5079655Y50535977D01*
X4907598Y50650941D01*
X4907599Y50650941D01*
X4907597Y50650942D01*
X4716418Y50730131D01*
X4513467Y50770500D01*
X4513465Y50770500D01*
X4306535Y50770500D01*
X4306532Y50770500D01*
X4103581Y50730131D01*
X3912402Y50650942D01*
X3740348Y50535980D01*
X3594020Y50389652D01*
X3479058Y50217598D01*
X3399869Y50026419D01*
X3359500Y49823468D01*
X2359914Y49823468D01*
X2347445Y49870000D01*
X3010577Y49870000D01*
X3010577Y49870001D01*
X2991683Y49989290D01*
X2935749Y50161441D01*
X2853568Y50322731D01*
X2853566Y50322735D01*
X2747175Y50469170D01*
X2619169Y50597176D01*
X2472734Y50703567D01*
X2472730Y50703569D01*
X2311440Y50785750D01*
X2139290Y50841684D01*
X2020000Y50860578D01*
X2020000Y50197446D01*
X1935826Y50220000D01*
X1804174Y50220000D01*
X1720000Y50197446D01*
X1720000Y50860578D01*
X1719999Y50860578D01*
X1600709Y50841684D01*
X1428559Y50785750D01*
X1267269Y50703569D01*
X1267265Y50703567D01*
X1120830Y50597176D01*
X992824Y50469170D01*
X886433Y50322735D01*
X886431Y50322731D01*
X804250Y50161441D01*
X748316Y49989290D01*
X729423Y49870000D01*
X500000Y49870000D01*
X500000Y52410000D01*
X729423Y52410000D01*
X1392555Y52410000D01*
X1370000Y52325826D01*
X1370000Y52194174D01*
X1392555Y52110000D01*
X729423Y52110000D01*
X748316Y51990711D01*
X804250Y51818560D01*
X886431Y51657270D01*
X886433Y51657266D01*
X992824Y51510831D01*
X1120830Y51382825D01*
X1267265Y51276434D01*
X1267269Y51276432D01*
X1428559Y51194251D01*
X1600710Y51138317D01*
X1720000Y51119423D01*
X1720000Y51782555D01*
X1804174Y51760000D01*
X1935826Y51760000D01*
X2020000Y51782555D01*
X2020000Y51119424D01*
X2139289Y51138317D01*
X2311440Y51194251D01*
X2472730Y51276432D01*
X2472734Y51276434D01*
X2619169Y51382825D01*
X2747175Y51510831D01*
X2853566Y51657266D01*
X2853568Y51657270D01*
X2935749Y51818560D01*
X2991683Y51990711D01*
X3010577Y52110000D01*
X2347445Y52110000D01*
X2370000Y52194174D01*
X2370000Y52325826D01*
X2359914Y52363468D01*
X3359500Y52363468D01*
X3359500Y52156533D01*
X3399869Y51953582D01*
X3479058Y51762403D01*
X3479059Y51762402D01*
X3594023Y51590345D01*
X3740345Y51444023D01*
X3912402Y51329059D01*
X4103580Y51249870D01*
X4306535Y51209500D01*
X4306536Y51209500D01*
X4513464Y51209500D01*
X4513465Y51209500D01*
X4716420Y51249870D01*
X4907598Y51329059D01*
X5079655Y51444023D01*
X5225977Y51590345D01*
X5340941Y51762402D01*
X5420130Y51953580D01*
X5460500Y52156535D01*
X5460500Y52363465D01*
X5420130Y52566420D01*
X5340941Y52757598D01*
X5225977Y52929655D01*
X5079655Y53075977D01*
X4988064Y53137176D01*
X4907597Y53190942D01*
X4716418Y53270131D01*
X4513467Y53310500D01*
X4513465Y53310500D01*
X4306535Y53310500D01*
X4306532Y53310500D01*
X4103581Y53270131D01*
X3912402Y53190942D01*
X3740348Y53075980D01*
X3594020Y52929652D01*
X3479058Y52757598D01*
X3399869Y52566419D01*
X3359500Y52363468D01*
X2359914Y52363468D01*
X2347445Y52410000D01*
X3010577Y52410000D01*
X3010577Y52410001D01*
X2991683Y52529290D01*
X2935749Y52701441D01*
X2853568Y52862731D01*
X2853566Y52862735D01*
X2747175Y53009170D01*
X2619169Y53137176D01*
X2472734Y53243567D01*
X2472730Y53243569D01*
X2311440Y53325750D01*
X2139290Y53381684D01*
X2020000Y53400578D01*
X2020000Y52737446D01*
X1935826Y52760000D01*
X1804174Y52760000D01*
X1720000Y52737446D01*
X1720000Y53400578D01*
X1719999Y53400578D01*
X1600709Y53381684D01*
X1428559Y53325750D01*
X1267269Y53243569D01*
X1267265Y53243567D01*
X1120830Y53137176D01*
X992824Y53009170D01*
X886433Y52862735D01*
X886431Y52862731D01*
X804250Y52701441D01*
X748316Y52529290D01*
X729423Y52410000D01*
X500000Y52410000D01*
X500000Y54950000D01*
X729423Y54950000D01*
X1392555Y54950000D01*
X1370000Y54865826D01*
X1370000Y54734174D01*
X1392555Y54650000D01*
X729423Y54650000D01*
X748316Y54530711D01*
X804250Y54358560D01*
X886431Y54197270D01*
X886433Y54197266D01*
X992824Y54050831D01*
X1120830Y53922825D01*
X1267265Y53816434D01*
X1267269Y53816432D01*
X1428559Y53734251D01*
X1600710Y53678317D01*
X1720000Y53659423D01*
X1720000Y54322555D01*
X1804174Y54300000D01*
X1935826Y54300000D01*
X2020000Y54322555D01*
X2020000Y53659424D01*
X2139289Y53678317D01*
X2311440Y53734251D01*
X2472730Y53816432D01*
X2472734Y53816434D01*
X2619169Y53922825D01*
X2747175Y54050831D01*
X2853566Y54197266D01*
X2853568Y54197270D01*
X2935749Y54358560D01*
X2991683Y54530711D01*
X3010577Y54650000D01*
X2347445Y54650000D01*
X2370000Y54734174D01*
X2370000Y54865826D01*
X2359914Y54903468D01*
X3359500Y54903468D01*
X3359500Y54696533D01*
X3399869Y54493582D01*
X3479058Y54302403D01*
X3577166Y54155573D01*
X3594023Y54130345D01*
X3740345Y53984023D01*
X3912402Y53869059D01*
X4103580Y53789870D01*
X4306535Y53749500D01*
X4306536Y53749500D01*
X4513464Y53749500D01*
X4513465Y53749500D01*
X4716420Y53789870D01*
X4907598Y53869059D01*
X5079655Y53984023D01*
X5225977Y54130345D01*
X5340941Y54302402D01*
X5420130Y54493580D01*
X5460500Y54696535D01*
X5460500Y54903465D01*
X5420130Y55106420D01*
X5340941Y55297598D01*
X5225977Y55469655D01*
X5079655Y55615977D01*
X5079651Y55615980D01*
X4907597Y55730942D01*
X4716418Y55810131D01*
X4513467Y55850500D01*
X4513465Y55850500D01*
X4306535Y55850500D01*
X4306532Y55850500D01*
X4103581Y55810131D01*
X3912402Y55730942D01*
X3740348Y55615980D01*
X3594020Y55469652D01*
X3479058Y55297598D01*
X3399869Y55106419D01*
X3359500Y54903468D01*
X2359914Y54903468D01*
X2347445Y54950000D01*
X3010577Y54950000D01*
X3010577Y54950001D01*
X2991683Y55069290D01*
X2935749Y55241441D01*
X2853568Y55402731D01*
X2853566Y55402735D01*
X2747175Y55549170D01*
X2619169Y55677176D01*
X2472734Y55783567D01*
X2472730Y55783569D01*
X2311440Y55865750D01*
X2139290Y55921684D01*
X2020000Y55940578D01*
X2020000Y55277446D01*
X1935826Y55300000D01*
X1804174Y55300000D01*
X1720000Y55277446D01*
X1720000Y55940578D01*
X1719999Y55940578D01*
X1600709Y55921684D01*
X1428559Y55865750D01*
X1267269Y55783569D01*
X1267265Y55783567D01*
X1120830Y55677176D01*
X992824Y55549170D01*
X886433Y55402735D01*
X886431Y55402731D01*
X804250Y55241441D01*
X748316Y55069290D01*
X729423Y54950000D01*
X500000Y54950000D01*
X500000Y57490000D01*
X729423Y57490000D01*
X1392555Y57490000D01*
X1370000Y57405826D01*
X1370000Y57274174D01*
X1392555Y57190000D01*
X729423Y57190000D01*
X748316Y57070711D01*
X804250Y56898560D01*
X886431Y56737270D01*
X886433Y56737266D01*
X992824Y56590831D01*
X1120830Y56462825D01*
X1267265Y56356434D01*
X1267269Y56356432D01*
X1428559Y56274251D01*
X1600710Y56218317D01*
X1720000Y56199423D01*
X1720000Y56862555D01*
X1804174Y56840000D01*
X1935826Y56840000D01*
X2020000Y56862555D01*
X2020000Y56199424D01*
X2139289Y56218317D01*
X2311440Y56274251D01*
X2472730Y56356432D01*
X2472734Y56356434D01*
X2619169Y56462825D01*
X2747175Y56590831D01*
X2853566Y56737266D01*
X2853568Y56737270D01*
X2935749Y56898560D01*
X2991683Y57070711D01*
X3010577Y57190000D01*
X2347445Y57190000D01*
X2370000Y57274174D01*
X2370000Y57405826D01*
X2359914Y57443468D01*
X3359500Y57443468D01*
X3359500Y57236533D01*
X3399869Y57033582D01*
X3479058Y56842403D01*
X3543266Y56746309D01*
X3594023Y56670345D01*
X3740345Y56524023D01*
X3912402Y56409059D01*
X4103580Y56329870D01*
X4306535Y56289500D01*
X4306536Y56289500D01*
X4513464Y56289500D01*
X4513465Y56289500D01*
X4716420Y56329870D01*
X4907598Y56409059D01*
X5079655Y56524023D01*
X5225977Y56670345D01*
X5340941Y56842402D01*
X5420130Y57033580D01*
X5460500Y57236535D01*
X5460500Y57443465D01*
X5420130Y57646420D01*
X5340941Y57837598D01*
X5225977Y58009655D01*
X5079655Y58155977D01*
X4988064Y58217176D01*
X4907597Y58270942D01*
X4716418Y58350131D01*
X4589967Y58375283D01*
X4513467Y58390500D01*
X4513465Y58390500D01*
X4306535Y58390500D01*
X4306532Y58390500D01*
X4103581Y58350131D01*
X3912402Y58270942D01*
X3740348Y58155980D01*
X3594020Y58009652D01*
X3479058Y57837598D01*
X3399869Y57646419D01*
X3359500Y57443468D01*
X2359914Y57443468D01*
X2347445Y57490000D01*
X3010577Y57490000D01*
X3010577Y57490001D01*
X2991683Y57609290D01*
X2935749Y57781441D01*
X2853568Y57942731D01*
X2853566Y57942735D01*
X2747175Y58089170D01*
X2619169Y58217176D01*
X2472734Y58323567D01*
X2472730Y58323569D01*
X2311440Y58405750D01*
X2139290Y58461684D01*
X2112722Y58465892D01*
X10499500Y58465892D01*
X10499500Y58334108D01*
X10519259Y58260365D01*
X10533609Y58206810D01*
X10599496Y58092691D01*
X10599498Y58092689D01*
X10599500Y58092686D01*
X10692686Y57999500D01*
X10692688Y57999499D01*
X10692690Y57999497D01*
X10806810Y57933610D01*
X10806808Y57933610D01*
X10806812Y57933609D01*
X10806814Y57933608D01*
X10934108Y57899500D01*
X10934110Y57899500D01*
X11065890Y57899500D01*
X11065892Y57899500D01*
X11193186Y57933608D01*
X11193188Y57933610D01*
X11193190Y57933610D01*
X11307309Y57999497D01*
X11307309Y57999498D01*
X11307314Y57999500D01*
X11400500Y58092686D01*
X11466392Y58206814D01*
X11500500Y58334108D01*
X11500500Y58465892D01*
X11500500Y58469878D01*
X11519407Y58528069D01*
X11529496Y58539882D01*
X11923223Y58933608D01*
X12239614Y59249999D01*
X13540001Y59249999D01*
X13540001Y59176997D01*
X13542786Y59147279D01*
X13542787Y59147274D01*
X13586594Y59022080D01*
X13665358Y58915361D01*
X13665360Y58915359D01*
X13772079Y58836595D01*
X13897272Y58792788D01*
X13926999Y58790001D01*
X13970000Y58790002D01*
X13970000Y59249999D01*
X13969999Y59250000D01*
X13540002Y59250000D01*
X13540001Y59249999D01*
X12239614Y59249999D01*
X12612617Y59623001D01*
X13540000Y59623001D01*
X13540000Y59550001D01*
X13540001Y59550000D01*
X13969999Y59550000D01*
X13970000Y59550001D01*
X13970000Y60010001D01*
X13926997Y60010000D01*
X13897278Y60007214D01*
X13897273Y60007213D01*
X13772079Y59963406D01*
X13665360Y59884642D01*
X13665358Y59884640D01*
X13586594Y59777921D01*
X13542787Y59652728D01*
X13540000Y59623001D01*
X12612617Y59623001D01*
X13185120Y60195504D01*
X13239637Y60223281D01*
X13255124Y60224500D01*
X16426679Y60224500D01*
X16484870Y60205593D01*
X16496683Y60195504D01*
X16499498Y60192689D01*
X16499500Y60192686D01*
X16592686Y60099500D01*
X16592688Y60099499D01*
X16592690Y60099497D01*
X16596852Y60097094D01*
X16637793Y60051625D01*
X16644189Y59990774D01*
X16613596Y59937786D01*
X16573227Y59919174D01*
X16574098Y59916187D01*
X16566824Y59914068D01*
X16459598Y59864067D01*
X16459595Y59864065D01*
X16417273Y59821743D01*
X16362756Y59793966D01*
X16302324Y59803538D01*
X16297770Y59806011D01*
X16193189Y59866391D01*
X16193191Y59866391D01*
X16125094Y59884637D01*
X16065892Y59900500D01*
X15934108Y59900500D01*
X15874906Y59884637D01*
X15806809Y59866391D01*
X15692690Y59800504D01*
X15692684Y59800500D01*
X15651423Y59759238D01*
X15596906Y59731461D01*
X15536474Y59741033D01*
X15510643Y59763487D01*
X15509348Y59762191D01*
X15503224Y59768315D01*
X15503224Y59768316D01*
X15418316Y59853224D01*
X15418314Y59853225D01*
X15418313Y59853226D01*
X15309489Y59903971D01*
X15309488Y59903972D01*
X15292958Y59906148D01*
X15259901Y59910500D01*
X15259899Y59910500D01*
X14900104Y59910500D01*
X14900092Y59910499D01*
X14850513Y59903973D01*
X14850511Y59903973D01*
X14741686Y59853226D01*
X14741681Y59853223D01*
X14740255Y59851796D01*
X14738014Y59850655D01*
X14734589Y59848256D01*
X14734251Y59848738D01*
X14685737Y59824022D01*
X14625305Y59833597D01*
X14590601Y59863016D01*
X14574644Y59884637D01*
X14574639Y59884642D01*
X14467920Y59963406D01*
X14342727Y60007213D01*
X14313000Y60010000D01*
X14270001Y60010000D01*
X14270000Y60009999D01*
X14270000Y58790002D01*
X14270001Y58790001D01*
X14313004Y58790001D01*
X14342721Y58792787D01*
X14342726Y58792788D01*
X14467920Y58836595D01*
X14574639Y58915359D01*
X14574642Y58915362D01*
X14590600Y58936984D01*
X14640367Y58972577D01*
X14701550Y58972121D01*
X14725631Y58960261D01*
X14733527Y58954933D01*
X14741684Y58946776D01*
X14754407Y58940843D01*
X14760875Y58936479D01*
X14775135Y58918220D01*
X14792086Y58902414D01*
X14794366Y58893597D01*
X14798536Y58888258D01*
X14798968Y58875803D01*
X14804500Y58854415D01*
X14804500Y58665200D01*
X14818848Y58630561D01*
X14846441Y58563945D01*
X14846442Y58563944D01*
X14846443Y58563942D01*
X15095505Y58314880D01*
X15123281Y58260365D01*
X15124500Y58244878D01*
X15124500Y56804500D01*
X15105593Y56746309D01*
X15056093Y56710345D01*
X15025500Y56705500D01*
X14716740Y56705500D01*
X14682673Y56700537D01*
X14648604Y56695573D01*
X14543518Y56644199D01*
X14460801Y56561482D01*
X14409427Y56456396D01*
X14409427Y56456393D01*
X14399500Y56388260D01*
X14399500Y56021740D01*
X14406118Y55976318D01*
X14409427Y55953605D01*
X14430455Y55910593D01*
X14460802Y55848517D01*
X14543517Y55765802D01*
X14586551Y55744764D01*
X14648604Y55714428D01*
X14648605Y55714428D01*
X14648607Y55714427D01*
X14716740Y55704500D01*
X14716743Y55704500D01*
X16075878Y55704500D01*
X16097928Y55697336D01*
X16120824Y55693709D01*
X16126471Y55688062D01*
X16134069Y55685593D01*
X16147697Y55666835D01*
X16164088Y55650444D01*
X16165337Y55642557D01*
X16170033Y55636093D01*
X16170033Y55612907D01*
X16173659Y55590012D01*
X16170033Y55582896D01*
X16170033Y55574907D01*
X16145881Y55535496D01*
X16074880Y55464496D01*
X16020363Y55436719D01*
X16004877Y55435500D01*
X14716740Y55435500D01*
X14682673Y55430537D01*
X14648604Y55425573D01*
X14543518Y55374199D01*
X14460801Y55291482D01*
X14409427Y55186396D01*
X14409427Y55186393D01*
X14399500Y55118260D01*
X14399500Y54751740D01*
X14406118Y54706318D01*
X14409427Y54683605D01*
X14446874Y54607007D01*
X14460802Y54578517D01*
X14543517Y54495802D01*
X14584825Y54475608D01*
X14648604Y54444428D01*
X14648605Y54444428D01*
X14648607Y54444427D01*
X14716740Y54434500D01*
X14716743Y54434500D01*
X16083256Y54434500D01*
X16083260Y54434500D01*
X16139282Y54442663D01*
X16199589Y54432343D01*
X16242314Y54388546D01*
X16251136Y54328000D01*
X16222685Y54273831D01*
X16208984Y54262670D01*
X16200683Y54257061D01*
X16143942Y54233558D01*
X16098173Y54187790D01*
X16090306Y54182473D01*
X16069578Y54176510D01*
X16050362Y54166719D01*
X16034876Y54165500D01*
X14716740Y54165500D01*
X14682673Y54160537D01*
X14648604Y54155573D01*
X14543518Y54104199D01*
X14460801Y54021482D01*
X14409427Y53916396D01*
X14409427Y53916393D01*
X14399500Y53848260D01*
X14399500Y53481740D01*
X14406118Y53436318D01*
X14409427Y53413605D01*
X14452377Y53325750D01*
X14460802Y53308517D01*
X14543517Y53225802D01*
X14591931Y53202134D01*
X14648604Y53174428D01*
X14648605Y53174428D01*
X14648607Y53174427D01*
X14716740Y53164500D01*
X14716743Y53164500D01*
X16083259Y53164500D01*
X16083260Y53164500D01*
X16126265Y53170766D01*
X16153971Y53166026D01*
X16181917Y53162740D01*
X16183640Y53160949D01*
X16186574Y53160447D01*
X16226879Y53121242D01*
X16232359Y53111475D01*
X16233608Y53106814D01*
X16282007Y53022985D01*
X16282330Y53022409D01*
X16288201Y52993014D01*
X16294449Y52963620D01*
X16294188Y52963036D01*
X16294314Y52962409D01*
X16281762Y52935127D01*
X16269562Y52907724D01*
X16269009Y52907405D01*
X16268742Y52906824D01*
X16242559Y52892134D01*
X16216574Y52877131D01*
X16215938Y52877198D01*
X16215381Y52876885D01*
X16185556Y52880392D01*
X16155724Y52883527D01*
X16154659Y52884024D01*
X16154614Y52884029D01*
X16154578Y52884062D01*
X16152512Y52885026D01*
X16151394Y52885573D01*
X16134359Y52888055D01*
X16083260Y52895500D01*
X14716740Y52895500D01*
X14682673Y52890537D01*
X14648604Y52885573D01*
X14543518Y52834199D01*
X14460801Y52751482D01*
X14409427Y52646396D01*
X14406980Y52629601D01*
X14399500Y52578260D01*
X14399500Y52211740D01*
X14402553Y52190789D01*
X14409427Y52143605D01*
X14446874Y52067007D01*
X14460802Y52038517D01*
X14543517Y51955802D01*
X14597285Y51929517D01*
X14648604Y51904428D01*
X14648605Y51904428D01*
X14648607Y51904427D01*
X14716740Y51894500D01*
X14716743Y51894500D01*
X16083257Y51894500D01*
X16083260Y51894500D01*
X16151393Y51904427D01*
X16256483Y51955802D01*
X16339198Y52038517D01*
X16351646Y52063981D01*
X16394189Y52107954D01*
X16440587Y52119500D01*
X21049799Y52119500D01*
X21049800Y52119500D01*
X21151058Y52161443D01*
X21160116Y52170501D01*
X21164876Y52172927D01*
X21167784Y52177409D01*
X21187117Y52184261D01*
X21214632Y52198281D01*
X21224896Y52199362D01*
X21233020Y52199792D01*
X21234108Y52199500D01*
X21365892Y52199500D01*
X21399902Y52208614D01*
X21410268Y52209161D01*
X21430282Y52203808D01*
X21450971Y52202724D01*
X21459175Y52196081D01*
X21469376Y52193352D01*
X21482421Y52177257D01*
X21498522Y52164219D01*
X21507017Y52146911D01*
X21507902Y52145819D01*
X21507944Y52145022D01*
X21508938Y52142997D01*
X21547653Y52032355D01*
X21628207Y51923210D01*
X21628209Y51923208D01*
X21737352Y51842655D01*
X21865398Y51797851D01*
X21895789Y51795001D01*
X22449998Y51795001D01*
X22450000Y51795002D01*
X22450000Y52244999D01*
X22750000Y52244999D01*
X22750000Y51795002D01*
X22750001Y51795001D01*
X23304203Y51795001D01*
X23334600Y51797851D01*
X23334602Y51797851D01*
X23462647Y51842655D01*
X23571790Y51923208D01*
X23571792Y51923210D01*
X23652345Y52032353D01*
X23697149Y52160399D01*
X23699999Y52190789D01*
X23700000Y52190790D01*
X23700000Y52244999D01*
X23699999Y52245000D01*
X22750001Y52245000D01*
X22750000Y52244999D01*
X22450000Y52244999D01*
X22450000Y52296000D01*
X22468907Y52354191D01*
X22481676Y52363468D01*
X46539500Y52363468D01*
X46539500Y52156533D01*
X46579869Y51953582D01*
X46659058Y51762403D01*
X46659059Y51762402D01*
X46774023Y51590345D01*
X46920345Y51444023D01*
X47092402Y51329059D01*
X47283580Y51249870D01*
X47486535Y51209500D01*
X47486536Y51209500D01*
X47693464Y51209500D01*
X47693465Y51209500D01*
X47896420Y51249870D01*
X48087598Y51329059D01*
X48259655Y51444023D01*
X48405977Y51590345D01*
X48520941Y51762402D01*
X48600130Y51953580D01*
X48630837Y52107954D01*
X48640499Y52156529D01*
X48640499Y52156532D01*
X48640500Y52156535D01*
X48640500Y52363465D01*
X48640499Y52363467D01*
X48640499Y52363472D01*
X48631244Y52410000D01*
X48989423Y52410000D01*
X49652555Y52410000D01*
X49630000Y52325826D01*
X49630000Y52194174D01*
X49652555Y52110000D01*
X48989423Y52110000D01*
X49008316Y51990711D01*
X49064250Y51818560D01*
X49146431Y51657270D01*
X49146433Y51657266D01*
X49252824Y51510831D01*
X49380830Y51382825D01*
X49527265Y51276434D01*
X49527269Y51276432D01*
X49688559Y51194251D01*
X49860710Y51138317D01*
X49980000Y51119423D01*
X49980000Y51782555D01*
X50064174Y51760000D01*
X50195826Y51760000D01*
X50280000Y51782555D01*
X50280000Y51119424D01*
X50399289Y51138317D01*
X50571440Y51194251D01*
X50732730Y51276432D01*
X50732734Y51276434D01*
X50879169Y51382825D01*
X51007175Y51510831D01*
X51113566Y51657266D01*
X51113568Y51657270D01*
X51195749Y51818560D01*
X51251683Y51990711D01*
X51270577Y52110000D01*
X50607445Y52110000D01*
X50630000Y52194174D01*
X50630000Y52325826D01*
X50607445Y52410000D01*
X51270577Y52410000D01*
X51251683Y52529290D01*
X51195749Y52701441D01*
X51113568Y52862731D01*
X51113566Y52862735D01*
X51007175Y53009170D01*
X50879169Y53137176D01*
X50732734Y53243567D01*
X50732730Y53243569D01*
X50571440Y53325750D01*
X50399290Y53381684D01*
X50280000Y53400578D01*
X50280000Y52737446D01*
X50195826Y52760000D01*
X50064174Y52760000D01*
X49980000Y52737446D01*
X49980000Y53400578D01*
X49979999Y53400578D01*
X49860709Y53381684D01*
X49688559Y53325750D01*
X49527269Y53243569D01*
X49527265Y53243567D01*
X49380830Y53137176D01*
X49252824Y53009170D01*
X49146433Y52862735D01*
X49146431Y52862731D01*
X49064250Y52701441D01*
X49008316Y52529290D01*
X48989423Y52410000D01*
X48631244Y52410000D01*
X48611986Y52506814D01*
X48600130Y52566420D01*
X48520941Y52757598D01*
X48405977Y52929655D01*
X48259655Y53075977D01*
X48168064Y53137176D01*
X48087597Y53190942D01*
X47896418Y53270131D01*
X47693467Y53310500D01*
X47693465Y53310500D01*
X47486535Y53310500D01*
X47486532Y53310500D01*
X47283581Y53270131D01*
X47092402Y53190942D01*
X46920348Y53075980D01*
X46774020Y52929652D01*
X46659058Y52757598D01*
X46579869Y52566419D01*
X46539500Y52363468D01*
X22481676Y52363468D01*
X22518407Y52390155D01*
X22549000Y52395000D01*
X22599999Y52395000D01*
X22600000Y52395001D01*
X22600000Y52446000D01*
X22618907Y52504191D01*
X22668407Y52540155D01*
X22699000Y52545000D01*
X23699998Y52545000D01*
X23699999Y52545001D01*
X23699999Y52599204D01*
X23697149Y52629601D01*
X23697149Y52629603D01*
X23652345Y52757648D01*
X23571792Y52866791D01*
X23571790Y52866793D01*
X23462645Y52947347D01*
X23349582Y52986909D01*
X23300902Y53023974D01*
X23283305Y53082574D01*
X23303513Y53140326D01*
X23345251Y53169485D01*
X23344486Y53171050D01*
X23385175Y53190942D01*
X23456483Y53225802D01*
X23539198Y53308517D01*
X23590573Y53413607D01*
X23600500Y53481740D01*
X23600500Y53848260D01*
X23590573Y53916393D01*
X23539198Y54021483D01*
X23456483Y54104198D01*
X23456481Y54104199D01*
X23351395Y54155573D01*
X23324139Y54159544D01*
X23283260Y54165500D01*
X21916740Y54165500D01*
X21889022Y54161462D01*
X21860712Y54157337D01*
X21800403Y54167658D01*
X21757678Y54211456D01*
X21748858Y54272002D01*
X21777309Y54326170D01*
X21791011Y54337332D01*
X21799298Y54342933D01*
X21856058Y54366443D01*
X21901828Y54412214D01*
X21909695Y54417529D01*
X21930423Y54423492D01*
X21949637Y54433281D01*
X21965123Y54434500D01*
X23283257Y54434500D01*
X23283260Y54434500D01*
X23351393Y54444427D01*
X23456483Y54495802D01*
X23539198Y54578517D01*
X23590573Y54683607D01*
X23600500Y54751740D01*
X23600500Y54903468D01*
X46539500Y54903468D01*
X46539500Y54696533D01*
X46579869Y54493582D01*
X46659058Y54302403D01*
X46757166Y54155573D01*
X46774023Y54130345D01*
X46920345Y53984023D01*
X47092402Y53869059D01*
X47283580Y53789870D01*
X47486535Y53749500D01*
X47486536Y53749500D01*
X47693464Y53749500D01*
X47693465Y53749500D01*
X47896420Y53789870D01*
X48087598Y53869059D01*
X48259655Y53984023D01*
X48405977Y54130345D01*
X48520941Y54302402D01*
X48600130Y54493580D01*
X48627290Y54630126D01*
X48640499Y54696529D01*
X48640499Y54696532D01*
X48640500Y54696535D01*
X48640500Y54903465D01*
X48640499Y54903467D01*
X48640499Y54903472D01*
X48631244Y54950000D01*
X48989423Y54950000D01*
X49652555Y54950000D01*
X49630000Y54865826D01*
X49630000Y54734174D01*
X49652555Y54650000D01*
X48989423Y54650000D01*
X49008316Y54530711D01*
X49064250Y54358560D01*
X49146431Y54197270D01*
X49146433Y54197266D01*
X49252824Y54050831D01*
X49380830Y53922825D01*
X49527265Y53816434D01*
X49527269Y53816432D01*
X49688559Y53734251D01*
X49860710Y53678317D01*
X49980000Y53659423D01*
X49980000Y54322555D01*
X50064174Y54300000D01*
X50195826Y54300000D01*
X50280000Y54322555D01*
X50280000Y53659424D01*
X50399289Y53678317D01*
X50571440Y53734251D01*
X50732730Y53816432D01*
X50732734Y53816434D01*
X50879169Y53922825D01*
X51007175Y54050831D01*
X51113566Y54197266D01*
X51113568Y54197270D01*
X51195749Y54358560D01*
X51251683Y54530711D01*
X51270577Y54650000D01*
X50607445Y54650000D01*
X50630000Y54734174D01*
X50630000Y54865826D01*
X50607445Y54950000D01*
X51270577Y54950000D01*
X51251683Y55069290D01*
X51195749Y55241441D01*
X51113568Y55402731D01*
X51113566Y55402735D01*
X51007175Y55549170D01*
X50879169Y55677176D01*
X50732734Y55783567D01*
X50732730Y55783569D01*
X50571440Y55865750D01*
X50399290Y55921684D01*
X50280000Y55940578D01*
X50280000Y55277446D01*
X50195826Y55300000D01*
X50064174Y55300000D01*
X49980000Y55277446D01*
X49980000Y55940578D01*
X49979999Y55940578D01*
X49860709Y55921684D01*
X49688559Y55865750D01*
X49527269Y55783569D01*
X49527265Y55783567D01*
X49380830Y55677176D01*
X49252824Y55549170D01*
X49146433Y55402735D01*
X49146431Y55402731D01*
X49064250Y55241441D01*
X49008316Y55069290D01*
X48989423Y54950000D01*
X48631244Y54950000D01*
X48613710Y55038148D01*
X48600130Y55106420D01*
X48520941Y55297598D01*
X48405977Y55469655D01*
X48259655Y55615977D01*
X48259651Y55615980D01*
X48087597Y55730942D01*
X47896418Y55810131D01*
X47693467Y55850500D01*
X47693465Y55850500D01*
X47486535Y55850500D01*
X47486532Y55850500D01*
X47283581Y55810131D01*
X47092402Y55730942D01*
X46920348Y55615980D01*
X46774020Y55469652D01*
X46659058Y55297598D01*
X46579869Y55106419D01*
X46539500Y54903468D01*
X23600500Y54903468D01*
X23600500Y55118260D01*
X23590573Y55186393D01*
X23539198Y55291483D01*
X23456483Y55374198D01*
X23456481Y55374199D01*
X23351395Y55425573D01*
X23324139Y55429544D01*
X23283260Y55435500D01*
X21916740Y55435500D01*
X21873731Y55429234D01*
X21846018Y55433977D01*
X21818082Y55437261D01*
X21816358Y55439053D01*
X21813423Y55439555D01*
X21773120Y55478759D01*
X21767641Y55488525D01*
X21766392Y55493186D01*
X21717977Y55577043D01*
X21717669Y55577592D01*
X21711797Y55606988D01*
X21705550Y55636381D01*
X21705810Y55636966D01*
X21705685Y55637592D01*
X21718236Y55664875D01*
X21730437Y55692277D01*
X21730989Y55692597D01*
X21731257Y55693177D01*
X21757439Y55707868D01*
X21783425Y55722870D01*
X21784060Y55722804D01*
X21784618Y55723116D01*
X21814442Y55719610D01*
X21844275Y55716474D01*
X21845338Y55715978D01*
X21845385Y55715972D01*
X21845421Y55715939D01*
X21847491Y55714972D01*
X21848603Y55714428D01*
X21848605Y55714428D01*
X21848607Y55714427D01*
X21916740Y55704500D01*
X21916743Y55704500D01*
X23283257Y55704500D01*
X23283260Y55704500D01*
X23351393Y55714427D01*
X23456483Y55765802D01*
X23539198Y55848517D01*
X23590573Y55953607D01*
X23600500Y56021740D01*
X23600500Y56388260D01*
X23590573Y56456393D01*
X23573143Y56492046D01*
X23539198Y56561482D01*
X23539198Y56561483D01*
X23456483Y56644198D01*
X23456481Y56644199D01*
X23351395Y56695573D01*
X23324139Y56699544D01*
X23283260Y56705500D01*
X21916740Y56705500D01*
X21882673Y56700537D01*
X21848604Y56695573D01*
X21743518Y56644199D01*
X21660801Y56561482D01*
X21648354Y56536020D01*
X21605811Y56492046D01*
X21559413Y56480500D01*
X20050124Y56480500D01*
X19991933Y56499407D01*
X19980120Y56509496D01*
X19404496Y57085120D01*
X19376719Y57139637D01*
X19375500Y57155124D01*
X19375500Y57443468D01*
X46539500Y57443468D01*
X46539500Y57236533D01*
X46579869Y57033582D01*
X46659058Y56842403D01*
X46723266Y56746309D01*
X46774023Y56670345D01*
X46920345Y56524023D01*
X47092402Y56409059D01*
X47283580Y56329870D01*
X47486535Y56289500D01*
X47486536Y56289500D01*
X47693464Y56289500D01*
X47693465Y56289500D01*
X47896420Y56329870D01*
X48087598Y56409059D01*
X48259655Y56524023D01*
X48405977Y56670345D01*
X48520941Y56842402D01*
X48600130Y57033580D01*
X48627290Y57170126D01*
X48640499Y57236529D01*
X48640499Y57236532D01*
X48640500Y57236535D01*
X48640500Y57443465D01*
X48640499Y57443467D01*
X48640499Y57443472D01*
X48631244Y57490000D01*
X48989423Y57490000D01*
X49652555Y57490000D01*
X49630000Y57405826D01*
X49630000Y57274174D01*
X49652555Y57190000D01*
X48989423Y57190000D01*
X49008316Y57070711D01*
X49064250Y56898560D01*
X49146431Y56737270D01*
X49146433Y56737266D01*
X49252824Y56590831D01*
X49380830Y56462825D01*
X49527265Y56356434D01*
X49527269Y56356432D01*
X49688559Y56274251D01*
X49860710Y56218317D01*
X49980000Y56199423D01*
X49980000Y56862555D01*
X50064174Y56840000D01*
X50195826Y56840000D01*
X50280000Y56862555D01*
X50280000Y56199424D01*
X50399289Y56218317D01*
X50571440Y56274251D01*
X50732730Y56356432D01*
X50732734Y56356434D01*
X50879169Y56462825D01*
X51007175Y56590831D01*
X51113566Y56737266D01*
X51113568Y56737270D01*
X51195749Y56898560D01*
X51251683Y57070711D01*
X51270577Y57190000D01*
X50607445Y57190000D01*
X50630000Y57274174D01*
X50630000Y57405826D01*
X50607445Y57490000D01*
X51270577Y57490000D01*
X51251683Y57609290D01*
X51195749Y57781441D01*
X51113568Y57942731D01*
X51113566Y57942735D01*
X51007175Y58089170D01*
X50879169Y58217176D01*
X50732734Y58323567D01*
X50732730Y58323569D01*
X50571440Y58405750D01*
X50399290Y58461684D01*
X50280000Y58480578D01*
X50280000Y57817446D01*
X50195826Y57840000D01*
X50064174Y57840000D01*
X49980000Y57817446D01*
X49980000Y58480578D01*
X49979999Y58480578D01*
X49860709Y58461684D01*
X49688559Y58405750D01*
X49527269Y58323569D01*
X49527265Y58323567D01*
X49380830Y58217176D01*
X49252824Y58089170D01*
X49146433Y57942735D01*
X49146431Y57942731D01*
X49064250Y57781441D01*
X49008316Y57609290D01*
X48989423Y57490000D01*
X48631244Y57490000D01*
X48613710Y57578148D01*
X48600130Y57646420D01*
X48520941Y57837598D01*
X48405977Y58009655D01*
X48259655Y58155977D01*
X48168064Y58217176D01*
X48087597Y58270942D01*
X47896418Y58350131D01*
X47693467Y58390500D01*
X47693465Y58390500D01*
X47486535Y58390500D01*
X47486532Y58390500D01*
X47283581Y58350131D01*
X47092402Y58270942D01*
X46920348Y58155980D01*
X46774020Y58009652D01*
X46659058Y57837598D01*
X46579869Y57646419D01*
X46539500Y57443468D01*
X19375500Y57443468D01*
X19375500Y58873948D01*
X19394407Y58932139D01*
X19432659Y58963672D01*
X19480404Y58985935D01*
X19564065Y59069596D01*
X19614068Y59176827D01*
X19620500Y59225684D01*
X19620500Y59574316D01*
X19614068Y59623173D01*
X19597134Y59659487D01*
X19564066Y59730402D01*
X19564065Y59730403D01*
X19564065Y59730404D01*
X19480404Y59814065D01*
X19467085Y59820276D01*
X19422337Y59862003D01*
X19410662Y59922064D01*
X19436519Y59977517D01*
X19442807Y59983468D01*
X46539500Y59983468D01*
X46539500Y59776533D01*
X46579869Y59573582D01*
X46659058Y59382403D01*
X46763774Y59225684D01*
X46774023Y59210345D01*
X46920345Y59064023D01*
X47092402Y58949059D01*
X47283580Y58869870D01*
X47486535Y58829500D01*
X47486536Y58829500D01*
X47693464Y58829500D01*
X47693465Y58829500D01*
X47896420Y58869870D01*
X48087598Y58949059D01*
X48259655Y59064023D01*
X48405977Y59210345D01*
X48520941Y59382402D01*
X48600130Y59573580D01*
X48629719Y59722337D01*
X48640499Y59776529D01*
X48640499Y59776532D01*
X48640500Y59776535D01*
X48640500Y59983465D01*
X48640499Y59983467D01*
X48640499Y59983472D01*
X48631244Y60030000D01*
X48989423Y60030000D01*
X49652555Y60030000D01*
X49630000Y59945826D01*
X49630000Y59814174D01*
X49652555Y59730000D01*
X48989423Y59730000D01*
X49008316Y59610711D01*
X49064250Y59438560D01*
X49146431Y59277270D01*
X49146433Y59277266D01*
X49252824Y59130831D01*
X49380830Y59002825D01*
X49527265Y58896434D01*
X49527269Y58896432D01*
X49688559Y58814251D01*
X49860710Y58758317D01*
X49980000Y58739423D01*
X49980000Y59402555D01*
X50064174Y59380000D01*
X50195826Y59380000D01*
X50280000Y59402555D01*
X50280000Y58739424D01*
X50399289Y58758317D01*
X50571440Y58814251D01*
X50732730Y58896432D01*
X50732734Y58896434D01*
X50879169Y59002825D01*
X51007175Y59130831D01*
X51113566Y59277266D01*
X51113568Y59277270D01*
X51195749Y59438560D01*
X51251683Y59610711D01*
X51270577Y59730000D01*
X50607445Y59730000D01*
X50630000Y59814174D01*
X50630000Y59945826D01*
X50607445Y60030000D01*
X51270577Y60030000D01*
X51251683Y60149290D01*
X51195749Y60321441D01*
X51113568Y60482731D01*
X51113566Y60482735D01*
X51007175Y60629170D01*
X50879169Y60757176D01*
X50732734Y60863567D01*
X50732730Y60863569D01*
X50571440Y60945750D01*
X50399290Y61001684D01*
X50280000Y61020578D01*
X50280000Y60357446D01*
X50195826Y60380000D01*
X50064174Y60380000D01*
X49980000Y60357446D01*
X49980000Y61020578D01*
X49979999Y61020578D01*
X49860709Y61001684D01*
X49688559Y60945750D01*
X49527269Y60863569D01*
X49527265Y60863567D01*
X49380830Y60757176D01*
X49252824Y60629170D01*
X49146433Y60482735D01*
X49146431Y60482731D01*
X49064250Y60321441D01*
X49008316Y60149290D01*
X48989423Y60030000D01*
X48631244Y60030000D01*
X48613710Y60118148D01*
X48600130Y60186420D01*
X48520941Y60377598D01*
X48405977Y60549655D01*
X48259655Y60695977D01*
X48259651Y60695980D01*
X48087597Y60810942D01*
X47896418Y60890131D01*
X47693467Y60930500D01*
X47693465Y60930500D01*
X47486535Y60930500D01*
X47486532Y60930500D01*
X47283581Y60890131D01*
X47092402Y60810942D01*
X46920348Y60695980D01*
X46774020Y60549652D01*
X46659058Y60377598D01*
X46579869Y60186419D01*
X46539500Y59983468D01*
X19442807Y59983468D01*
X19445500Y59986016D01*
X19455397Y59994275D01*
X19480404Y60005935D01*
X19564065Y60089596D01*
X19614068Y60196827D01*
X19620500Y60245684D01*
X19620500Y60594316D01*
X19614068Y60643173D01*
X19564065Y60750404D01*
X19480404Y60834065D01*
X19480402Y60834066D01*
X19480401Y60834067D01*
X19373175Y60884068D01*
X19327126Y60890130D01*
X19324316Y60890500D01*
X18875684Y60890500D01*
X18872874Y60890130D01*
X18826825Y60884068D01*
X18826824Y60884068D01*
X18719598Y60834067D01*
X18690026Y60804495D01*
X18635509Y60776719D01*
X18620023Y60775500D01*
X17373321Y60775500D01*
X17315130Y60794407D01*
X17303317Y60804496D01*
X17300501Y60807312D01*
X17300500Y60807314D01*
X17207314Y60900500D01*
X17207311Y60900502D01*
X17207309Y60900504D01*
X17093189Y60966391D01*
X17093191Y60966391D01*
X17043799Y60979625D01*
X16965892Y61000500D01*
X16834108Y61000500D01*
X16756200Y60979625D01*
X16706809Y60966391D01*
X16592690Y60900504D01*
X16592689Y60900503D01*
X16592686Y60900501D01*
X16592686Y60900500D01*
X16499500Y60807314D01*
X16499498Y60807312D01*
X16496683Y60804496D01*
X16442166Y60776719D01*
X16426679Y60775500D01*
X13045200Y60775500D01*
X12984614Y60750404D01*
X12984613Y60750404D01*
X12943943Y60733559D01*
X11139880Y58929496D01*
X11085363Y58901719D01*
X11069876Y58900500D01*
X11065892Y58900500D01*
X10934108Y58900500D01*
X10856200Y58879625D01*
X10806809Y58866391D01*
X10692690Y58800504D01*
X10599496Y58707310D01*
X10533609Y58593191D01*
X10533608Y58593186D01*
X10499500Y58465892D01*
X2112722Y58465892D01*
X2020000Y58480578D01*
X2020000Y57817446D01*
X1935826Y57840000D01*
X1804174Y57840000D01*
X1720000Y57817446D01*
X1720000Y58480578D01*
X1719999Y58480578D01*
X1600709Y58461684D01*
X1428559Y58405750D01*
X1267269Y58323569D01*
X1267265Y58323567D01*
X1120830Y58217176D01*
X992824Y58089170D01*
X886433Y57942735D01*
X886431Y57942731D01*
X804250Y57781441D01*
X748316Y57609290D01*
X729423Y57490000D01*
X500000Y57490000D01*
X500000Y60030000D01*
X729423Y60030000D01*
X1392555Y60030000D01*
X1370000Y59945826D01*
X1370000Y59814174D01*
X1392555Y59730000D01*
X729423Y59730000D01*
X748316Y59610711D01*
X804250Y59438560D01*
X886431Y59277270D01*
X886433Y59277266D01*
X992824Y59130831D01*
X1120830Y59002825D01*
X1267265Y58896434D01*
X1267269Y58896432D01*
X1428559Y58814251D01*
X1600710Y58758317D01*
X1720000Y58739423D01*
X1720000Y59402555D01*
X1804174Y59380000D01*
X1935826Y59380000D01*
X2020000Y59402555D01*
X2020000Y58739424D01*
X2139289Y58758317D01*
X2311440Y58814251D01*
X2472730Y58896432D01*
X2472734Y58896434D01*
X2619169Y59002825D01*
X2747175Y59130831D01*
X2853566Y59277266D01*
X2853568Y59277270D01*
X2935749Y59438560D01*
X2991683Y59610711D01*
X3010577Y59730000D01*
X2347445Y59730000D01*
X2370000Y59814174D01*
X2370000Y59945826D01*
X2359914Y59983468D01*
X3359500Y59983468D01*
X3359500Y59776533D01*
X3399869Y59573582D01*
X3479058Y59382403D01*
X3583774Y59225684D01*
X3594023Y59210345D01*
X3740345Y59064023D01*
X3912402Y58949059D01*
X4103580Y58869870D01*
X4306535Y58829500D01*
X4306536Y58829500D01*
X4513464Y58829500D01*
X4513465Y58829500D01*
X4716420Y58869870D01*
X4907598Y58949059D01*
X5079655Y59064023D01*
X5225977Y59210345D01*
X5340941Y59382402D01*
X5420130Y59573580D01*
X5460500Y59776535D01*
X5460500Y59983465D01*
X5420130Y60186420D01*
X5340941Y60377598D01*
X5225977Y60549655D01*
X5079655Y60695977D01*
X5079651Y60695980D01*
X4907597Y60810942D01*
X4716418Y60890131D01*
X4513467Y60930500D01*
X4513465Y60930500D01*
X4306535Y60930500D01*
X4306532Y60930500D01*
X4103581Y60890131D01*
X3912402Y60810942D01*
X3740348Y60695980D01*
X3594020Y60549652D01*
X3479058Y60377598D01*
X3399869Y60186419D01*
X3359500Y59983468D01*
X2359914Y59983468D01*
X2347445Y60030000D01*
X3010577Y60030000D01*
X3010577Y60030001D01*
X2991683Y60149290D01*
X2935749Y60321441D01*
X2853568Y60482731D01*
X2853566Y60482735D01*
X2747175Y60629170D01*
X2619169Y60757176D01*
X2472734Y60863567D01*
X2472730Y60863569D01*
X2311440Y60945750D01*
X2139290Y61001684D01*
X2020000Y61020578D01*
X2020000Y60357446D01*
X1935826Y60380000D01*
X1804174Y60380000D01*
X1720000Y60357446D01*
X1720000Y61020578D01*
X1719999Y61020578D01*
X1600709Y61001684D01*
X1428559Y60945750D01*
X1267269Y60863569D01*
X1267265Y60863567D01*
X1120830Y60757176D01*
X992824Y60629170D01*
X886433Y60482735D01*
X886431Y60482731D01*
X804250Y60321441D01*
X748316Y60149290D01*
X729423Y60030000D01*
X500000Y60030000D01*
X500000Y62570000D01*
X729423Y62570000D01*
X1392555Y62570000D01*
X1370000Y62485826D01*
X1370000Y62354174D01*
X1392555Y62270000D01*
X729423Y62270000D01*
X748316Y62150711D01*
X804250Y61978560D01*
X886431Y61817270D01*
X886433Y61817266D01*
X992824Y61670831D01*
X1120830Y61542825D01*
X1267265Y61436434D01*
X1267269Y61436432D01*
X1428559Y61354251D01*
X1600710Y61298317D01*
X1720000Y61279423D01*
X1720000Y61942555D01*
X1804174Y61920000D01*
X1935826Y61920000D01*
X2020000Y61942555D01*
X2020000Y61279424D01*
X2139289Y61298317D01*
X2311440Y61354251D01*
X2472730Y61436432D01*
X2472734Y61436434D01*
X2619169Y61542825D01*
X2747175Y61670831D01*
X2853566Y61817266D01*
X2853568Y61817270D01*
X2935749Y61978560D01*
X2991683Y62150711D01*
X3010577Y62270000D01*
X2347445Y62270000D01*
X2370000Y62354174D01*
X2370000Y62485826D01*
X2359914Y62523468D01*
X3359500Y62523468D01*
X3359500Y62316533D01*
X3399869Y62113582D01*
X3479058Y61922403D01*
X3479059Y61922402D01*
X3594023Y61750345D01*
X3740345Y61604023D01*
X3912402Y61489059D01*
X4103580Y61409870D01*
X4306535Y61369500D01*
X4306536Y61369500D01*
X4513464Y61369500D01*
X4513465Y61369500D01*
X4716420Y61409870D01*
X4907598Y61489059D01*
X5079655Y61604023D01*
X5225977Y61750345D01*
X5340941Y61922402D01*
X5420130Y62113580D01*
X5460500Y62316535D01*
X5460500Y62523465D01*
X5460499Y62523468D01*
X46539500Y62523468D01*
X46539500Y62316533D01*
X46579869Y62113582D01*
X46659058Y61922403D01*
X46659059Y61922402D01*
X46774023Y61750345D01*
X46920345Y61604023D01*
X47092402Y61489059D01*
X47283580Y61409870D01*
X47486535Y61369500D01*
X47486536Y61369500D01*
X47693464Y61369500D01*
X47693465Y61369500D01*
X47896420Y61409870D01*
X48087598Y61489059D01*
X48259655Y61604023D01*
X48405977Y61750345D01*
X48520941Y61922402D01*
X48600130Y62113580D01*
X48627290Y62250126D01*
X48640499Y62316529D01*
X48640499Y62316532D01*
X48640500Y62316535D01*
X48640500Y62523465D01*
X48640499Y62523467D01*
X48640499Y62523472D01*
X48631244Y62570000D01*
X48989423Y62570000D01*
X49652555Y62570000D01*
X49630000Y62485826D01*
X49630000Y62354174D01*
X49652555Y62270000D01*
X48989423Y62270000D01*
X49008316Y62150711D01*
X49064250Y61978560D01*
X49146431Y61817270D01*
X49146433Y61817266D01*
X49252824Y61670831D01*
X49380830Y61542825D01*
X49527265Y61436434D01*
X49527269Y61436432D01*
X49688559Y61354251D01*
X49860710Y61298317D01*
X49980000Y61279423D01*
X49980000Y61942555D01*
X50064174Y61920000D01*
X50195826Y61920000D01*
X50280000Y61942555D01*
X50280000Y61279424D01*
X50399289Y61298317D01*
X50571440Y61354251D01*
X50732730Y61436432D01*
X50732734Y61436434D01*
X50879169Y61542825D01*
X51007175Y61670831D01*
X51113566Y61817266D01*
X51113568Y61817270D01*
X51195749Y61978560D01*
X51251683Y62150711D01*
X51270577Y62270000D01*
X50607445Y62270000D01*
X50630000Y62354174D01*
X50630000Y62485826D01*
X50607445Y62570000D01*
X51270577Y62570000D01*
X51251683Y62689290D01*
X51195749Y62861441D01*
X51113568Y63022731D01*
X51113566Y63022735D01*
X51007175Y63169170D01*
X50879169Y63297176D01*
X50732734Y63403567D01*
X50732730Y63403569D01*
X50571440Y63485750D01*
X50399290Y63541684D01*
X50280000Y63560578D01*
X50280000Y62897446D01*
X50195826Y62920000D01*
X50064174Y62920000D01*
X49980000Y62897446D01*
X49980000Y63560578D01*
X49979999Y63560578D01*
X49860709Y63541684D01*
X49688559Y63485750D01*
X49527269Y63403569D01*
X49527265Y63403567D01*
X49380830Y63297176D01*
X49252824Y63169170D01*
X49146433Y63022735D01*
X49146431Y63022731D01*
X49064250Y62861441D01*
X49008316Y62689290D01*
X48989423Y62570000D01*
X48631244Y62570000D01*
X48613710Y62658148D01*
X48600130Y62726420D01*
X48520941Y62917598D01*
X48405977Y63089655D01*
X48259655Y63235977D01*
X48087598Y63350941D01*
X48087599Y63350941D01*
X48087597Y63350942D01*
X47896418Y63430131D01*
X47693467Y63470500D01*
X47693465Y63470500D01*
X47486535Y63470500D01*
X47486532Y63470500D01*
X47283581Y63430131D01*
X47092402Y63350942D01*
X46920348Y63235980D01*
X46774020Y63089652D01*
X46659058Y62917598D01*
X46579869Y62726419D01*
X46539500Y62523468D01*
X5460499Y62523468D01*
X5420130Y62726420D01*
X5340941Y62917598D01*
X5225977Y63089655D01*
X5079655Y63235977D01*
X4907598Y63350941D01*
X4907599Y63350941D01*
X4907597Y63350942D01*
X4716418Y63430131D01*
X4513467Y63470500D01*
X4513465Y63470500D01*
X4306535Y63470500D01*
X4306532Y63470500D01*
X4103581Y63430131D01*
X3912402Y63350942D01*
X3740348Y63235980D01*
X3594020Y63089652D01*
X3479058Y62917598D01*
X3399869Y62726419D01*
X3359500Y62523468D01*
X2359914Y62523468D01*
X2347445Y62570000D01*
X3010577Y62570000D01*
X3010577Y62570001D01*
X2991683Y62689290D01*
X2935749Y62861441D01*
X2853568Y63022731D01*
X2853566Y63022735D01*
X2747175Y63169170D01*
X2619169Y63297176D01*
X2472734Y63403567D01*
X2472730Y63403569D01*
X2311440Y63485750D01*
X2139290Y63541684D01*
X2020000Y63560578D01*
X2020000Y62897446D01*
X1935826Y62920000D01*
X1804174Y62920000D01*
X1720000Y62897446D01*
X1720000Y63560578D01*
X1719999Y63560578D01*
X1600709Y63541684D01*
X1428559Y63485750D01*
X1267269Y63403569D01*
X1267265Y63403567D01*
X1120830Y63297176D01*
X992824Y63169170D01*
X886433Y63022735D01*
X886431Y63022731D01*
X804250Y62861441D01*
X748316Y62689290D01*
X729423Y62570000D01*
X500000Y62570000D01*
X500000Y65110000D01*
X729423Y65110000D01*
X1392555Y65110000D01*
X1370000Y65025826D01*
X1370000Y64894174D01*
X1392555Y64810000D01*
X729423Y64810000D01*
X748316Y64690711D01*
X804250Y64518560D01*
X886431Y64357270D01*
X886433Y64357266D01*
X992824Y64210831D01*
X1120830Y64082825D01*
X1267265Y63976434D01*
X1267269Y63976432D01*
X1428559Y63894251D01*
X1600710Y63838317D01*
X1720000Y63819423D01*
X1720000Y64482555D01*
X1804174Y64460000D01*
X1935826Y64460000D01*
X2020000Y64482555D01*
X2020000Y63819424D01*
X2139289Y63838317D01*
X2311440Y63894251D01*
X2472730Y63976432D01*
X2472734Y63976434D01*
X2619169Y64082825D01*
X2747175Y64210831D01*
X2853566Y64357266D01*
X2853568Y64357270D01*
X2935749Y64518560D01*
X2991683Y64690711D01*
X3010577Y64810000D01*
X2347445Y64810000D01*
X2370000Y64894174D01*
X2370000Y65025826D01*
X2359914Y65063468D01*
X3359500Y65063468D01*
X3359500Y64856533D01*
X3399869Y64653582D01*
X3479058Y64462403D01*
X3479059Y64462402D01*
X3594023Y64290345D01*
X3740345Y64144023D01*
X3912402Y64029059D01*
X4103580Y63949870D01*
X4306535Y63909500D01*
X4306536Y63909500D01*
X4513464Y63909500D01*
X4513465Y63909500D01*
X4716420Y63949870D01*
X4907598Y64029059D01*
X5079655Y64144023D01*
X5225977Y64290345D01*
X5340941Y64462402D01*
X5420130Y64653580D01*
X5460500Y64856535D01*
X5460500Y65063465D01*
X5460499Y65063468D01*
X46539500Y65063468D01*
X46539500Y64856533D01*
X46579869Y64653582D01*
X46659058Y64462403D01*
X46659059Y64462402D01*
X46774023Y64290345D01*
X46920345Y64144023D01*
X47092402Y64029059D01*
X47283580Y63949870D01*
X47486535Y63909500D01*
X47486536Y63909500D01*
X47693464Y63909500D01*
X47693465Y63909500D01*
X47896420Y63949870D01*
X48087598Y64029059D01*
X48259655Y64144023D01*
X48405977Y64290345D01*
X48520941Y64462402D01*
X48600130Y64653580D01*
X48627290Y64790126D01*
X48640499Y64856529D01*
X48640499Y64856532D01*
X48640500Y64856535D01*
X48640500Y65063465D01*
X48640499Y65063467D01*
X48640499Y65063472D01*
X48631244Y65110000D01*
X48989423Y65110000D01*
X49652555Y65110000D01*
X49630000Y65025826D01*
X49630000Y64894174D01*
X49652555Y64810000D01*
X48989423Y64810000D01*
X49008316Y64690711D01*
X49064250Y64518560D01*
X49146431Y64357270D01*
X49146433Y64357266D01*
X49252824Y64210831D01*
X49380830Y64082825D01*
X49527265Y63976434D01*
X49527269Y63976432D01*
X49688559Y63894251D01*
X49860710Y63838317D01*
X49980000Y63819423D01*
X49980000Y64482555D01*
X50064174Y64460000D01*
X50195826Y64460000D01*
X50280000Y64482555D01*
X50280000Y63819424D01*
X50399289Y63838317D01*
X50571440Y63894251D01*
X50732730Y63976432D01*
X50732734Y63976434D01*
X50879169Y64082825D01*
X51007175Y64210831D01*
X51113566Y64357266D01*
X51113568Y64357270D01*
X51195749Y64518560D01*
X51251683Y64690711D01*
X51270577Y64810000D01*
X50607445Y64810000D01*
X50630000Y64894174D01*
X50630000Y65025826D01*
X50607445Y65110000D01*
X51270577Y65110000D01*
X51251683Y65229290D01*
X51195749Y65401441D01*
X51113568Y65562731D01*
X51113566Y65562735D01*
X51007175Y65709170D01*
X50879169Y65837176D01*
X50732734Y65943567D01*
X50732730Y65943569D01*
X50571440Y66025750D01*
X50399290Y66081684D01*
X50280000Y66100578D01*
X50280000Y65437446D01*
X50195826Y65460000D01*
X50064174Y65460000D01*
X49980000Y65437446D01*
X49980000Y66100578D01*
X49979999Y66100578D01*
X49860709Y66081684D01*
X49688559Y66025750D01*
X49527269Y65943569D01*
X49527265Y65943567D01*
X49380830Y65837176D01*
X49252824Y65709170D01*
X49146433Y65562735D01*
X49146431Y65562731D01*
X49064250Y65401441D01*
X49008316Y65229290D01*
X48989423Y65110000D01*
X48631244Y65110000D01*
X48613710Y65198148D01*
X48600130Y65266420D01*
X48520941Y65457598D01*
X48405977Y65629655D01*
X48259655Y65775977D01*
X48259651Y65775980D01*
X48087597Y65890942D01*
X47896418Y65970131D01*
X47693467Y66010500D01*
X47693465Y66010500D01*
X47486535Y66010500D01*
X47486532Y66010500D01*
X47283581Y65970131D01*
X47092402Y65890942D01*
X46920348Y65775980D01*
X46774020Y65629652D01*
X46659058Y65457598D01*
X46579869Y65266419D01*
X46539500Y65063468D01*
X5460499Y65063468D01*
X5420130Y65266420D01*
X5340941Y65457598D01*
X5225977Y65629655D01*
X5079655Y65775977D01*
X5079651Y65775980D01*
X4907597Y65890942D01*
X4716418Y65970131D01*
X4513467Y66010500D01*
X4513465Y66010500D01*
X4306535Y66010500D01*
X4306532Y66010500D01*
X4103581Y65970131D01*
X3912402Y65890942D01*
X3740348Y65775980D01*
X3594020Y65629652D01*
X3479058Y65457598D01*
X3399869Y65266419D01*
X3359500Y65063468D01*
X2359914Y65063468D01*
X2347445Y65110000D01*
X3010577Y65110000D01*
X3010577Y65110001D01*
X2991683Y65229290D01*
X2935749Y65401441D01*
X2853568Y65562731D01*
X2853566Y65562735D01*
X2747175Y65709170D01*
X2619169Y65837176D01*
X2472734Y65943567D01*
X2472730Y65943569D01*
X2311440Y66025750D01*
X2139290Y66081684D01*
X2020000Y66100578D01*
X2020000Y65437446D01*
X1935826Y65460000D01*
X1804174Y65460000D01*
X1720000Y65437446D01*
X1720000Y66100578D01*
X1719999Y66100578D01*
X1600709Y66081684D01*
X1428559Y66025750D01*
X1267269Y65943569D01*
X1267265Y65943567D01*
X1120830Y65837176D01*
X992824Y65709170D01*
X886433Y65562735D01*
X886431Y65562731D01*
X804250Y65401441D01*
X748316Y65229290D01*
X729423Y65110000D01*
X500000Y65110000D01*
X500000Y68394798D01*
X720000Y68394798D01*
X720000Y67650001D01*
X720001Y67650000D01*
X1392555Y67650000D01*
X1370000Y67565826D01*
X1370000Y67434174D01*
X1392555Y67350000D01*
X720002Y67350000D01*
X720001Y67349999D01*
X720001Y66605209D01*
X722909Y66580126D01*
X768213Y66477523D01*
X847522Y66398214D01*
X950127Y66352910D01*
X975203Y66350001D01*
X1719998Y66350001D01*
X1720000Y66350002D01*
X1720000Y67022555D01*
X1804174Y67000000D01*
X1935826Y67000000D01*
X2020000Y67022555D01*
X2020000Y66350002D01*
X2020001Y66350001D01*
X2764790Y66350001D01*
X2764791Y66350002D01*
X2789874Y66352910D01*
X2892477Y66398214D01*
X2971786Y66477523D01*
X3017090Y66580128D01*
X3019999Y66605203D01*
X3020000Y66605205D01*
X3020000Y67349999D01*
X3019999Y67350000D01*
X2347445Y67350000D01*
X2370000Y67434174D01*
X2370000Y67565826D01*
X2359914Y67603468D01*
X3359500Y67603468D01*
X3359500Y67396533D01*
X3399869Y67193582D01*
X3479058Y67002403D01*
X3479059Y67002402D01*
X3594023Y66830345D01*
X3740345Y66684023D01*
X3912402Y66569059D01*
X4103580Y66489870D01*
X4306535Y66449500D01*
X4306536Y66449500D01*
X4513464Y66449500D01*
X4513465Y66449500D01*
X4716420Y66489870D01*
X4907598Y66569059D01*
X5079655Y66684023D01*
X5225977Y66830345D01*
X5340941Y67002402D01*
X5420130Y67193580D01*
X5460500Y67396535D01*
X5460500Y67603465D01*
X5460499Y67603467D01*
X5460499Y67603473D01*
X5459094Y67610536D01*
X5459093Y67610538D01*
X5456024Y67625966D01*
X10429500Y67625966D01*
X10429500Y67374035D01*
X10468908Y67125220D01*
X10546759Y66885621D01*
X10661127Y66661159D01*
X10661130Y66661155D01*
X10809207Y66457344D01*
X10987344Y66279207D01*
X11191155Y66131130D01*
X11415621Y66016759D01*
X11655215Y65938910D01*
X11655216Y65938910D01*
X11655219Y65938909D01*
X11904035Y65899500D01*
X11904038Y65899500D01*
X12155965Y65899500D01*
X12404780Y65938909D01*
X12404781Y65938910D01*
X12404785Y65938910D01*
X12644379Y66016759D01*
X12868845Y66131130D01*
X13072656Y66279207D01*
X13250793Y66457344D01*
X13398870Y66661155D01*
X13513241Y66885621D01*
X13591090Y67125215D01*
X13601918Y67193580D01*
X13630500Y67374035D01*
X13630500Y67625966D01*
X13591091Y67874781D01*
X13591090Y67874785D01*
X13513241Y68114379D01*
X13436041Y68265892D01*
X13398871Y68338843D01*
X13398870Y68338845D01*
X13250793Y68542656D01*
X13072656Y68720793D01*
X12868845Y68868870D01*
X12868844Y68868871D01*
X12868842Y68868872D01*
X12644379Y68983241D01*
X12404780Y69061092D01*
X12155965Y69100500D01*
X12155962Y69100500D01*
X11904038Y69100500D01*
X11904035Y69100500D01*
X11655219Y69061092D01*
X11415620Y68983241D01*
X11191157Y68868872D01*
X10987345Y68720794D01*
X10809206Y68542655D01*
X10661128Y68338843D01*
X10546759Y68114380D01*
X10468908Y67874781D01*
X10429500Y67625966D01*
X5456024Y67625966D01*
X5442692Y67692993D01*
X5420130Y67806420D01*
X5340941Y67997598D01*
X5225977Y68169655D01*
X5079655Y68315977D01*
X5079651Y68315980D01*
X4907597Y68430942D01*
X4716418Y68510131D01*
X4513467Y68550500D01*
X4513465Y68550500D01*
X4306535Y68550500D01*
X4306532Y68550500D01*
X4103581Y68510131D01*
X3912402Y68430942D01*
X3740348Y68315980D01*
X3594020Y68169652D01*
X3479058Y67997598D01*
X3399869Y67806419D01*
X3359500Y67603468D01*
X2359914Y67603468D01*
X2347445Y67650000D01*
X3019998Y67650000D01*
X3019999Y67650001D01*
X3019999Y68394790D01*
X3019998Y68394792D01*
X3017090Y68419875D01*
X2971786Y68522478D01*
X2892477Y68601787D01*
X2789872Y68647091D01*
X2764797Y68650000D01*
X2020001Y68650000D01*
X2020000Y68649999D01*
X2020000Y67977446D01*
X1935826Y68000000D01*
X1804174Y68000000D01*
X1720000Y67977446D01*
X1720000Y68649999D01*
X1719999Y68650000D01*
X975210Y68650000D01*
X975207Y68649999D01*
X950125Y68647091D01*
X847522Y68601787D01*
X768213Y68522478D01*
X722909Y68419873D01*
X720000Y68394798D01*
X500000Y68394798D01*
X500000Y69487810D01*
X507535Y69525694D01*
X565711Y69666142D01*
X570525Y69676137D01*
X710830Y69930000D01*
X711583Y69931363D01*
X717475Y69940742D01*
X886246Y70178601D01*
X893131Y70187235D01*
X1087476Y70404706D01*
X1095294Y70412524D01*
X1312765Y70606869D01*
X1321399Y70613754D01*
X1559258Y70782525D01*
X1568637Y70788417D01*
X1823869Y70929479D01*
X1833866Y70934292D01*
X1974307Y70992464D01*
X2012192Y71000000D01*
X22752638Y71000000D01*
X22810829Y70981093D01*
G37*
%TD.AperFunction*%
%TA.AperFunction,Conductor*%
G36*
X28270829Y70981093D02*
G01*
X28306793Y70931593D01*
X28306793Y70870407D01*
X28270829Y70820907D01*
X28267640Y70818685D01*
X28108473Y70712332D01*
X28108469Y70712329D01*
X27972671Y70576531D01*
X27972668Y70576527D01*
X27865969Y70416844D01*
X27865965Y70416835D01*
X27792467Y70239396D01*
X27755000Y70051032D01*
X27755000Y69930001D01*
X27755001Y69930000D01*
X28380000Y69930000D01*
X28380000Y69630000D01*
X27755001Y69630000D01*
X27755000Y69629999D01*
X27755000Y69508969D01*
X27792467Y69320605D01*
X27865965Y69143166D01*
X27865969Y69143157D01*
X27972668Y68983474D01*
X27972671Y68983470D01*
X28086637Y68869504D01*
X28114414Y68814987D01*
X28104843Y68754555D01*
X28061578Y68711290D01*
X28016633Y68700500D01*
X23983367Y68700500D01*
X23925176Y68719407D01*
X23889212Y68768907D01*
X23889212Y68830093D01*
X23913363Y68869504D01*
X24027328Y68983470D01*
X24027331Y68983474D01*
X24134030Y69143157D01*
X24134034Y69143166D01*
X24207532Y69320605D01*
X24244999Y69508969D01*
X24245000Y69508972D01*
X24245000Y69629999D01*
X24244999Y69630000D01*
X23620000Y69630000D01*
X23620000Y69930000D01*
X24244999Y69930000D01*
X24245000Y69930001D01*
X24245000Y70051029D01*
X24244999Y70051032D01*
X24207532Y70239396D01*
X24134034Y70416835D01*
X24134030Y70416844D01*
X24027331Y70576527D01*
X24027328Y70576531D01*
X23891530Y70712329D01*
X23891526Y70712332D01*
X23732360Y70818685D01*
X23694481Y70866735D01*
X23692079Y70927873D01*
X23726072Y70978747D01*
X23783476Y70999924D01*
X23787362Y71000000D01*
X28212638Y71000000D01*
X28270829Y70981093D01*
G37*
%TD.AperFunction*%
%TD*%
M02*
