M48
; DRILL file KiCad 10.0.3 date 2026-06-09T11:19:06
; FORMAT={-:-/ absolute / metric / decimal}
; #@! TF.CreationDate,2026-06-09T11:19:06-05:00
; #@! TF.GenerationSoftware,Kicad,Pcbnew,10.0.3
; #@! TF.FileFunction,Plated,1,2,PTH
FMAT,2
METRIC
; #@! TA.AperFunction,Plated,PTH,ViaDrill
T1C0.250
; #@! TA.AperFunction,Plated,PTH,ComponentDrill
T2C0.250
; #@! TA.AperFunction,Plated,PTH,ComponentDrill
T3C0.650
; #@! TA.AperFunction,Plated,PTH,ComponentDrill
T4C0.700
; #@! TA.AperFunction,Plated,PTH,ComponentDrill
T5C1.000
%
G90
G05
T1
X11.0Y58.4
X12.14Y62.25
X15.4Y51.5
X16.0Y59.4
X16.7Y54.6
X16.7Y53.3
X16.78Y41.7
X16.785Y44.4
X16.8Y39.3
X16.9Y60.5
X18.275Y66.425
X19.0Y49.6
X19.2Y41.7
X20.1Y34.224
X20.9Y58.7
X21.3Y55.3
X21.3Y54.0
X21.3Y52.7
X21.4Y68.2
X23.3Y28.3
X23.4Y31.08
X23.8Y41.7
X23.9Y32.7
X24.7Y65.5
X25.0Y51.5
X26.8Y39.2
X26.8Y34.28
X27.7Y48.7
X27.7Y48.1
X27.7Y43.7
X28.2Y32.68
X28.3Y41.7
X28.7Y26.7
X28.8Y31.08
X30.1Y48.45
X30.1Y47.85
X30.6Y68.2
X30.8Y46.8
X32.8Y41.7
X34.1Y26.5
X34.715Y37.0
X34.8Y46.3
X35.22Y42.0
X35.22Y41.0
X35.95Y64.05
X36.9Y14.3
X36.9Y11.8
X37.1Y52.5
T2
X24.867Y42.633
X24.867Y41.5
X24.867Y40.367
X26.0Y42.633
X26.0Y41.5
X26.0Y40.367
X27.133Y42.633
X27.133Y41.5
X27.133Y40.367
T5
X1.87Y67.5
X1.87Y64.96
X1.87Y62.42
X1.87Y59.88
X1.87Y57.34
X1.87Y54.8
X1.87Y52.26
X1.87Y49.72
X1.87Y47.18
X1.87Y44.64
X1.87Y42.1
X1.87Y39.56
X1.87Y37.02
X1.87Y34.48
X1.87Y31.94
X1.87Y29.4
X1.87Y26.86
X1.87Y24.32
X1.87Y21.78
X1.87Y19.24
X1.87Y16.7
X1.87Y14.16
X1.87Y11.62
X1.87Y9.08
X1.87Y6.54
X1.87Y4.0
X4.41Y67.5
X4.41Y64.96
X4.41Y62.42
X4.41Y59.88
X4.41Y57.34
X4.41Y54.8
X4.41Y52.26
X4.41Y49.72
X4.41Y47.18
X4.41Y44.64
X4.41Y42.1
X4.41Y39.56
X4.41Y37.02
X4.41Y34.48
X4.41Y31.94
X4.41Y29.4
X4.41Y26.86
X4.41Y24.32
X4.41Y21.78
X4.41Y19.24
X4.41Y16.7
X4.41Y14.16
X4.41Y11.62
X4.41Y9.08
X4.41Y6.54
X4.41Y4.0
X47.59Y67.5
X47.59Y64.96
X47.59Y62.42
X47.59Y59.88
X47.59Y57.34
X47.59Y54.8
X47.59Y52.26
X47.59Y49.72
X47.59Y47.18
X47.59Y44.64
X47.59Y42.1
X47.59Y39.56
X47.59Y37.02
X47.59Y34.48
X47.59Y31.94
X47.59Y29.4
X47.59Y26.86
X47.59Y24.32
X47.59Y21.78
X47.59Y19.24
X47.59Y16.7
X47.59Y14.16
X47.59Y11.62
X47.59Y9.08
X47.59Y6.54
X47.59Y4.0
X50.13Y67.5
X50.13Y64.96
X50.13Y62.42
X50.13Y59.88
X50.13Y57.34
X50.13Y54.8
X50.13Y52.26
X50.13Y49.72
X50.13Y47.18
X50.13Y44.64
X50.13Y42.1
X50.13Y39.56
X50.13Y37.02
X50.13Y34.48
X50.13Y31.94
X50.13Y29.4
X50.13Y26.86
X50.13Y24.32
X50.13Y21.78
X50.13Y19.24
X50.13Y16.7
X50.13Y14.16
X50.13Y11.62
X50.13Y9.08
X50.13Y6.54
X50.13Y4.0
T3
X23.58Y66.98G85X23.58Y66.58
G05
X28.42Y66.98G85X28.42Y66.58
G05
T4
X23.27Y70.03G85X23.27Y69.53
G05
X28.73Y70.03G85X28.73Y69.53
G05
M30
